<?xml version="1.0" encoding="iso-8859-1"?>
<!-- Generator: Adobe Illustrator 17.0.0, SVG Export Plug-In . SVG Version: 6.00 Build 0)  -->
<!DOCTYPE svg PUBLIC "-//W3C//DTD SVG 1.1//EN" "http://www.w3.org/Graphics/SVG/1.1/DTD/svg11.dtd">
<svg version="1.1" id="_x32_5_x5F_airplane_x5F_flight"
	 xmlns="http://www.w3.org/2000/svg" xmlns:xlink="http://www.w3.org/1999/xlink" x="0px" y="0px" width="64px" height="64px"
	 viewBox="0 0 64 64" style="enable-background:new 0 0 64 64;" xml:space="preserve">
<g>
	<g>
		<g>
			<g>
				<path style="fill:#222829;" d="M55,37H42v-2h13c2.921,0,5.936-1.815,7-2.522v-0.955C60.936,30.815,57.921,29,55,29H12
					c-0.265,0-0.52-0.105-0.707-0.293L6.586,24H5.257l2.539,11H19v2H7c-0.466,0-0.87-0.321-0.975-0.775l-3-13
					c-0.068-0.297,0.002-0.608,0.192-0.847C3.407,22.139,3.695,22,4,22h3c0.265,0,0.52,0.105,0.707,0.293L12.414,27H55
					c4.284,0,8.426,3.069,8.6,3.2c0.252,0.188,0.4,0.485,0.4,0.8v2c0,0.314-0.148,0.611-0.4,0.8C63.426,33.931,59.284,37,55,37z"/>
			</g>
			<g>
				<path style="fill:#222829;" d="M43,29H27c-0.265,0-0.52-0.105-0.707-0.293l-10-10c-0.286-0.286-0.372-0.716-0.217-1.09
					S16.596,17,17,17h8c0.17,0,0.337,0.043,0.486,0.126l18,10c0.398,0.221,0.597,0.684,0.482,1.125C43.854,28.692,43.456,29,43,29z
					 M27.414,27h11.727l-14.4-8h-5.327L27.414,27z"/>
			</g>
			<g>
				<path style="fill:#222829;" d="M25,43h-8c-0.404,0-0.769-0.243-0.924-0.617s-0.069-0.804,0.217-1.09l10-10
					C26.48,31.105,26.735,31,27,31h16c0.456,0,0.854,0.308,0.968,0.749c0.114,0.441-0.084,0.904-0.482,1.125l-18,10
					C25.337,42.957,25.17,43,25,43z M19.414,41h5.327l14.4-8H27.414L19.414,41z"/>
			</g>
			<g>
				<rect x="50" y="31" style="fill:#222829;" width="2" height="2"/>
			</g>
			<g>
				<rect x="46" y="31" style="fill:#222829;" width="2" height="2"/>
			</g>
			<g>
				<rect x="20" y="31" style="fill:#222829;" width="2" height="2"/>
			</g>
			<g>
				<rect x="16" y="31" style="fill:#222829;" width="2" height="2"/>
			</g>
			<g>
				<rect x="12" y="31" style="fill:#222829;" width="2" height="2"/>
			</g>
			<g>
				<rect x="6" y="41" style="fill:#222829;" width="8" height="2"/>
			</g>
			<g>
				<rect y="41" style="fill:#222829;" width="4" height="2"/>
			</g>
			<g>
				<rect x="10" y="17" style="fill:#222829;" width="4" height="2"/>
			</g>
			<g>
				<rect y="17" style="fill:#222829;" width="8" height="2"/>
			</g>
		</g>
		<g>
			<path style="fill:#222829;" d="M57,23h-2v-1c0-4.411-3.589-8-8-8h-3.002l1.203-1.601C45.724,11.703,46,10.873,46,10
				c0-2.206-1.794-4-4-4c-0.874,0-1.704,0.276-2.399,0.799l-0.78,0.587L38.216,6.62C35.792,3.555,32.691,2,29,2
				c-6.065,0-11,4.935-11,11h-2c0-7.168,5.832-13,13-13c3.983,0,7.494,1.617,10.207,4.688C40.062,4.235,41.012,4,42,4
				c3.309,0,6,2.691,6,6c0,0.699-0.118,1.38-0.348,2.021C52.863,12.358,57,16.705,57,22V23z"/>
		</g>
		<g>
			<path style="fill:#222829;" d="M32.941,48.339l-1.882-0.678C31.78,45.658,34.29,41,42,41c4.064,0,7.869,1.599,10.713,4.501
				l-1.429,1.4C48.819,44.386,45.522,43,42,43C35.79,43,33.659,46.345,32.941,48.339z"/>
		</g>
		<g>
			<path style="fill:#222829;" d="M19,60h-2c0-5.514,4.486-10,10-10c2.465,0,4.833,0.905,6.669,2.548l-1.334,1.49
				C30.867,52.724,28.972,52,27,52C22.589,52,19,55.589,19,60z"/>
		</g>
		<g>
			<path style="fill:#222829;" d="M56,60v-2c3.309,0,6-2.691,6-6s-2.691-6-6-6s-6,2.691-6,6h-2c0-4.411,3.589-8,8-8s8,3.589,8,8
				S60.411,60,56,60z"/>
		</g>
		<g>
			<rect x="42" y="58" style="fill:#222829;" width="14" height="2"/>
		</g>
		<g>
			<rect x="36" y="58" style="fill:#222829;" width="4" height="2"/>
		</g>
		<g>
			<rect x="6" y="62" style="fill:#222829;" width="4" height="2"/>
		</g>
		<g>
			<path style="fill:#222829;" d="M6,64c-3.309,0-6-2.691-6-6c0-3.07,2.318-5.61,5.297-5.959C6.653,48.914,9.921,47,14,47
				c4.432,0,8,3.282,8,6h-2c0-1.405-2.474-4-6-4c-3.462,0-6.164,1.654-7.051,4.316L6.721,54H6c-2.206,0-4,1.794-4,4s1.794,4,4,4V64z
				"/>
		</g>
	</g>
</g>
</svg>
