<?xml version="1.0" encoding="iso-8859-1"?>
<!-- Generator: Adobe Illustrator 17.0.0, SVG Export Plug-In . SVG Version: 6.00 Build 0)  -->
<!DOCTYPE svg PUBLIC "-//W3C//DTD SVG 1.1//EN" "http://www.w3.org/Graphics/SVG/1.1/DTD/svg11.dtd">
<svg version="1.1" id="_x32_5_x5F_air_x5F_baloon_x5F_journey"
	 xmlns="http://www.w3.org/2000/svg" xmlns:xlink="http://www.w3.org/1999/xlink" x="0px" y="0px" width="64px" height="64px"
	 viewBox="0 0 64 64" style="enable-background:new 0 0 64 64;" xml:space="preserve">
<g>
	<g>
		<g>
			<g>
				<path style="fill:#222829;" d="M38,64H28c-1.103,0-2-0.897-2-2v-5h2v5h10v-5h2v5C40,63.103,39.103,64,38,64z"/>
			</g>
			<g>
				<rect x="30" y="57" style="fill:#222829;" width="2" height="6"/>
			</g>
			<g>
				<rect x="34" y="57" style="fill:#222829;" width="2" height="6"/>
			</g>
			<g>
				<path style="fill:#222829;" d="M41,54H25v-1c0-4.013-2.516-7.434-5.429-11.396C15.554,36.142,11,29.949,11,20
					C11,8.411,20.252,0,33,0s22,8.411,22,20c0,9.949-4.554,16.142-8.571,21.604C43.516,45.566,41,48.987,41,53V54z M26.957,52
					h12.087c0.366-4.226,2.999-7.806,5.774-11.58C48.653,35.204,53,29.293,53,20C53,9.57,44.589,2,33,2S13,9.57,13,20
					c0,9.293,4.347,15.204,8.183,20.42C23.958,44.194,26.591,47.774,26.957,52z"/>
			</g>
			<g>
				<path style="fill:#222829;" d="M30,53h-2c0-3.037-1.467-6.243-3.167-9.955C22.234,37.367,19,30.301,19,20
					C19,8.411,24.888,0,33,0v2c-6.841,0-12,7.738-12,18c0,9.865,3.134,16.711,5.652,22.213C28.448,46.138,30,49.527,30,53z"/>
			</g>
			<g>
				<path style="fill:#222829;" d="M38,53h-2c0-3.473,1.552-6.862,3.348-10.787C41.866,36.711,45,29.865,45,20
					C45,9.738,39.841,2,33,2V0c8.112,0,14,8.411,14,20c0,10.301-3.234,17.367-5.833,23.045C39.467,46.757,38,49.963,38,53z"/>
			</g>
			<g>
				<path style="fill:#222829;" d="M33,53h-2c0-2.357-0.665-6.188-1.436-10.622C28.422,35.801,27,27.615,27,20
					c0-11.775,2.467-20,6-20v2c-0.882,0-4,4.311-4,18c0,7.442,1.406,15.534,2.535,22.036C32.321,46.562,33,50.47,33,53z"/>
			</g>
			<g>
				<path style="fill:#222829;" d="M35,53h-2c0-2.53,0.679-6.438,1.465-10.964C35.594,35.534,37,27.442,37,20
					c0-13.689-3.118-18-4-18V0c3.533,0,6,8.225,6,20c0,7.615-1.422,15.801-2.564,22.378C35.665,46.812,35,50.643,35,53z"/>
			</g>
			<g>
				<rect x="25" y="56" style="fill:#222829;" width="16" height="2"/>
			</g>
		</g>
		<g>
			<path style="fill:#222829;" d="M22,52H7c-3.86,0-7-3.141-7-7c0-3.546,2.65-6.484,6.073-6.938C6.525,35.197,9.011,33,12,33v2
				c-2.206,0-4,1.794-4,4v1H7c-2.757,0-5,2.243-5,5s2.243,5,5,5h15V52z"/>
		</g>
		<g>
			<g>
				<path style="fill:#222829;" d="M9,9.013L7,9C6.992,8.704,6.781,6,2,6V4c3.34,0,5.087,1.153,6,2.353C8.913,5.153,10.66,4,14,4v2
					C9.219,6,9.008,8.704,9,9.013z"/>
			</g>
		</g>
		<g>
			<path style="fill:#222829;" d="M59,40h-8v-2h8c1.654,0,3-1.346,3-3s-1.346-3-3-3c-0.552,0-1-0.447-1-1c0-1.103-0.897-2-2-2v-2
				c1.889,0,3.477,1.316,3.893,3.08C62.226,30.502,64,32.548,64,35C64,37.757,61.757,40,59,40z"/>
		</g>
	</g>
</g>
</svg>
