<?xml version="1.0" encoding="iso-8859-1"?>
<!-- Generator: Adobe Illustrator 17.0.0, SVG Export Plug-In . SVG Version: 6.00 Build 0)  -->
<!DOCTYPE svg PUBLIC "-//W3C//DTD SVG 1.1//EN" "http://www.w3.org/Graphics/SVG/1.1/DTD/svg11.dtd">
<svg version="1.1" id="_x32_5_x5F_beach_x5F_paradise"
	 xmlns="http://www.w3.org/2000/svg" xmlns:xlink="http://www.w3.org/1999/xlink" x="0px" y="0px" width="64px" height="60px"
	 viewBox="0 0 64 60" style="enable-background:new 0 0 64 60;" xml:space="preserve">
<g>
	<g>
		<g>
			<rect y="58" style="fill:#222829;" width="64" height="2"/>
		</g>
		<g>
			<rect x="17" y="12" style="fill:#222829;" width="2" height="47"/>
		</g>
		<g>
			<path style="fill:#222829;" d="M28,30h-2c0-10.767-2.617-16-8-16s-8,5.233-8,16H8c0-11.944,3.364-18,10-18S28,18.056,28,30z"/>
		</g>
		<g>
			<path style="fill:#222829;" d="M35,31H1c-0.552,0-1-0.447-1-1c0-9.925,8.075-18,18-18s18,8.075,18,18C36,30.553,35.552,31,35,31z
				 M2.031,29h31.938C33.451,20.642,26.486,14,18,14S2.549,20.642,2.031,29z"/>
		</g>
		<g>
			<path style="fill:#222829;" d="M54.293,59.707L48.586,54H23v-2h26c0.265,0,0.52,0.105,0.707,0.293l6,6L54.293,59.707z"/>
		</g>
		<g>
			
				<rect x="25" y="51.757" transform="matrix(0.7071 0.7071 -0.7071 0.7071 47.2132 -1.9828)" style="fill:#222829;" width="2" height="8.485"/>
		</g>
		<g>
			
				<rect x="22.136" y="47.5" transform="matrix(0.7071 0.7071 -0.7071 0.7071 42.6421 -5.9472)" style="fill:#222829;" width="12.728" height="2"/>
		</g>
		<g>
			<path style="fill:#222829;" d="M42.293,53.707L38.586,50H29v-2h10c0.265,0,0.52,0.105,0.707,0.293l4,4L42.293,53.707z"/>
		</g>
		<g>
			<g>
				<path style="fill:#222829;" d="M49.001,16c-0.004,0-0.007,0-0.011,0c-0.455,0-0.85-0.313-0.96-0.755
					C47.996,15.123,47.083,12,42,12v-2c3.925,0,5.97,1.564,7,2.9c1.03-1.336,3.075-2.9,7-2.9v2c-5.083,0-5.996,3.123-6.033,3.256
					C49.848,15.69,49.452,16,49.001,16z"/>
			</g>
			<g>
				<rect x="48" y="15" style="fill:#222829;" width="2" height="1"/>
			</g>
		</g>
		<g>
			<path style="fill:#222829;" d="M45,38c-4.006,0-7.837-1.232-11.081-3.565l1.168-1.623C37.988,34.897,41.416,36,45,36
				c9.374,0,17-7.626,17-17S54.374,2,45,2c-6.848,0-12.997,4.075-15.665,10.383l-1.842-0.779C30.475,4.555,37.347,0,45,0
				c10.477,0,19,8.523,19,19S55.477,38,45,38z"/>
		</g>
	</g>
</g>
</svg>
