<?xml version="1.0" encoding="iso-8859-1"?>
<!-- Generator: Adobe Illustrator 17.0.0, SVG Export Plug-In . SVG Version: 6.00 Build 0)  -->
<!DOCTYPE svg PUBLIC "-//W3C//DTD SVG 1.1//EN" "http://www.w3.org/Graphics/SVG/1.1/DTD/svg11.dtd">
<svg version="1.1" id="_x32_5_x5F_film_x5F_camera" xmlns="http://www.w3.org/2000/svg" xmlns:xlink="http://www.w3.org/1999/xlink"
	 x="0px" y="0px" width="64px" height="54px" viewBox="0 0 64 54" style="enable-background:new 0 0 64 54;" xml:space="preserve">
<g>
	<g>
		<g>
			<path style="fill:#222829;" d="M31,4h-8c-0.552,0-1-0.447-1-1V1c0-0.553,0.448-1,1-1h8c0.552,0,1,0.447,1,1v2
				C32,3.553,31.552,4,31,4z M24,2h6H24z"/>
		</g>
		<g>
			<path style="fill:#222829;" d="M2,46H0V19c0-0.553,0.448-1,1-1h17v2H2V46z"/>
		</g>
		<g>
			<path style="fill:#222829;" d="M64,46h-2V20h-8v-2h9c0.552,0,1,0.447,1,1V46z"/>
		</g>
		<g>
			<path style="fill:#222829;" d="M2,16H0v-5c0-0.553,0.448-1,1-1h17V3c0-0.553,0.448-1,1-1h38v2H20v7c0,0.553-0.448,1-1,1H2V16z"/>
		</g>
		<g>
			<path style="fill:#222829;" d="M15,8H1C0.448,8,0,7.553,0,7V3c0-0.553,0.448-1,1-1h14c0.552,0,1,0.447,1,1v4
				C16,7.553,15.552,8,15,8z M2,6h12V4H2V6z"/>
		</g>
		<g>
			<path style="fill:#222829;" d="M63,16h-6c-0.552,0-1-0.447-1-1V3c0-0.553,0.448-1,1-1h6c0.552,0,1,0.447,1,1v12
				C64,15.553,63.552,16,63,16z M58,14h4V4h-4V14z"/>
		</g>
		<g>
			<rect x="46" y="6" style="fill:#222829;" width="8" height="2"/>
		</g>
		<g>
			<rect x="22" y="6" style="fill:#222829;" width="2" height="2"/>
		</g>
		<g>
			<rect x="7" y="14" style="fill:#222829;" width="2" height="2"/>
		</g>
		<g>
			<path style="fill:#222829;" d="M36,46c-9.925,0-18-8.075-18-18s8.075-18,18-18s18,8.075,18,18S45.925,46,36,46z M36,12
				c-8.822,0-16,7.178-16,16s7.178,16,16,16s16-7.178,16-16S44.822,12,36,12z"/>
		</g>
		<g>
			<path style="fill:#222829;" d="M36,42c-7.72,0-14-6.28-14-14s6.28-14,14-14s14,6.28,14,14S43.72,42,36,42z M36,16
				c-6.617,0-12,5.383-12,12s5.383,12,12,12s12-5.383,12-12S42.617,16,36,16z"/>
		</g>
		<g>
			<path style="fill:#222829;" d="M36,37c-4.962,0-9-4.037-9-9s4.038-9,9-9s9,4.037,9,9S40.962,37,36,37z M36,21
				c-3.86,0-7,3.141-7,7s3.14,7,7,7s7-3.141,7-7S39.86,21,36,21z"/>
		</g>
		<g>
			<path style="fill:#222829;" d="M33,28h-2c0-2.757,2.243-5,5-5v2C34.346,25,33,26.346,33,28z"/>
		</g>
		<g>
			<path style="fill:#222829;" d="M63,54H1c-0.552,0-1-0.447-1-1v-4c0-0.553,0.448-1,1-1h62c0.552,0,1,0.447,1,1v4
				C64,53.553,63.552,54,63,54z M2,52h60v-2H2V52z"/>
		</g>
		<g>
			<rect x="1" y="24" style="fill:#222829;" width="3" height="2"/>
		</g>
		<g>
			<rect x="1" y="28" style="fill:#222829;" width="3" height="2"/>
		</g>
		<g>
			<rect x="60" y="24" style="fill:#222829;" width="3" height="2"/>
		</g>
		<g>
			<rect x="60" y="28" style="fill:#222829;" width="3" height="2"/>
		</g>
		<g>
			<rect x="12" y="22" style="fill:#222829;" width="2" height="24"/>
		</g>
	</g>
</g>
</svg>
