<?xml version="1.0" encoding="iso-8859-1"?>
<!-- Generator: Adobe Illustrator 17.0.0, SVG Export Plug-In . SVG Version: 6.00 Build 0)  -->
<!DOCTYPE svg PUBLIC "-//W3C//DTD SVG 1.1//EN" "http://www.w3.org/Graphics/SVG/1.1/DTD/svg11.dtd">
<svg version="1.1" id="_x32_5_x5F_ice-cream_x5F_and_x5F_cola"
	 xmlns="http://www.w3.org/2000/svg" xmlns:xlink="http://www.w3.org/1999/xlink" x="0px" y="0px" width="60px" height="64px"
	 viewBox="0 0 60 64" style="enable-background:new 0 0 60 64;" xml:space="preserve">
<g>
	<g>
		<g>
			<g>
				<path style="fill:#222829;" d="M41,64h-2c-0.424,0-0.802-0.268-0.943-0.667l-12-34c-0.108-0.307-0.061-0.646,0.126-0.91
					C26.371,28.157,26.675,28,27,28h26c0.325,0,0.629,0.157,0.816,0.423c0.188,0.265,0.234,0.604,0.126,0.91l-12,34
					C41.802,63.732,41.424,64,41,64z M39.708,62h0.585l11.294-32H28.414L39.708,62z"/>
			</g>
			<g>
				<path style="fill:#222829;" d="M32,30c-6.617,0-12-5.383-12-12c0-5.858,4.184-10.832,9.949-11.825l0.34,1.971
					C25.486,8.974,22,13.118,22,18c0,5.514,4.486,10,10,10V30z"/>
			</g>
			<g>
				<path style="fill:#222829;" d="M48,30v-2c5.514,0,10-4.486,10-10S53.514,8,48,8s-10,4.486-10,10h-2c0-6.617,5.383-12,12-12
					s12,5.383,12,12S54.617,30,48,30z"/>
			</g>
			<g>
				<path style="fill:#222829;" d="M40,24c-6.617,0-12-5.383-12-12S33.383,0,40,0c4.616,0,8.746,2.576,10.78,6.723l-1.796,0.881
					C47.289,4.147,43.847,2,40,2c-5.514,0-10,4.486-10,10s4.486,10,10,10V24z"/>
			</g>
			<g>
				<rect x="29" y="32" style="fill:#222829;" width="22" height="2"/>
			</g>
			<g>
				<path style="fill:#222829;" d="M25,64H7c-0.552,0-1-0.447-1-1V8c0-0.553,0.448-1,1-1h13v2H8v53h16V34h2v29
					C26,63.553,25.552,64,25,64z"/>
			</g>
			<g>
				<path style="fill:#222829;" d="M19.022,48.208L9.19,2H0V0h10c0.472,0,0.88,0.33,0.978,0.792l10,47L19.022,48.208z"/>
			</g>
			<g>
				<rect x="7" y="58" style="fill:#222829;" width="18" height="2"/>
			</g>
			<g>
				<rect x="7" y="36" style="fill:#222829;" width="18" height="2"/>
			</g>
		</g>
		<g>
			<rect x="10" y="54" style="fill:#222829;" width="2" height="2"/>
		</g>
		<g>
			<rect x="14" y="50" style="fill:#222829;" width="2" height="2"/>
		</g>
		<g>
			<rect x="12" y="44" style="fill:#222829;" width="2" height="2"/>
		</g>
		<g>
			<rect x="19" y="52" style="fill:#222829;" width="2" height="2"/>
		</g>
		<g>
			<rect x="39" y="36" style="fill:#222829;" width="2" height="2"/>
		</g>
		<g>
			<rect x="35" y="36" style="fill:#222829;" width="2" height="2"/>
		</g>
		<g>
			<rect x="43" y="36" style="fill:#222829;" width="2" height="2"/>
		</g>
	</g>
</g>
</svg>
