<?xml version="1.0" encoding="iso-8859-1"?>
<!-- Generator: Adobe Illustrator 17.0.0, SVG Export Plug-In . SVG Version: 6.00 Build 0)  -->
<!DOCTYPE svg PUBLIC "-//W3C//DTD SVG 1.1//EN" "http://www.w3.org/Graphics/SVG/1.1/DTD/svg11.dtd">
<svg version="1.1" id="_x32_5_x5F_lighthouse" xmlns="http://www.w3.org/2000/svg" xmlns:xlink="http://www.w3.org/1999/xlink"
	 x="0px" y="0px" width="64px" height="64px" viewBox="0 0 64 64" style="enable-background:new 0 0 64 64;" xml:space="preserve">
<g>
	<g>
		<g>
			<path style="fill:#222829;" d="M44,64H20c-0.552,0-1-0.447-1-1v-5c0-0.046,0.003-0.092,0.009-0.137l4-29l1.981,0.273L21,58.068
				V62h22v-3.932l-3.991-28.932l1.981-0.273l4,29C44.997,57.908,45,57.954,45,58v5C45,63.553,44.552,64,44,64z"/>
		</g>
		<g>
			<path style="fill:#222829;" d="M41,22h-2V12H25v10h-2V11c0-0.553,0.448-1,1-1h16c0.552,0,1,0.447,1,1V22z"/>
		</g>
		<g>
			<rect x="21" y="24" style="fill:#222829;" width="22" height="2"/>
		</g>
		<g>
			<rect x="21" y="28" style="fill:#222829;" width="22" height="2"/>
		</g>
		<g>
			<path style="fill:#222829;" d="M44,16h-1v-2h0.896l18.898-3.979C62.862,10.007,62.931,10,63,10h1v2h-0.896l-18.898,3.979
				C44.138,15.993,44.069,16,44,16z"/>
		</g>
		<g>
			<path style="fill:#222829;" d="M64,26h-1c-0.069,0-0.138-0.007-0.206-0.021L43.896,22H43v-2h1c0.069,0,0.138,0.007,0.206,0.021
				L63.104,24H64V26z"/>
		</g>
		<g>
			<path style="fill:#222829;" d="M21,16h-1c-0.069,0-0.138-0.007-0.206-0.021L0.896,12H0v-2h1c0.069,0,0.138,0.007,0.206,0.021
				L20.104,14H21V16z"/>
		</g>
		<g>
			<path style="fill:#222829;" d="M1,26H0v-2h0.896l18.898-3.979C19.862,20.007,19.931,20,20,20h1v2h-0.896L1.206,25.979
				C1.138,25.993,1.069,26,1,26z"/>
		</g>
		<g>
			<rect y="62" style="fill:#222829;" width="64" height="2"/>
		</g>
		<g>
			<g>
				<path style="fill:#222829;" d="M35,64h-6c-0.552,0-1-0.447-1-1v-5c0-2.206,1.794-4,4-4s4,1.794,4,4v5C36,63.553,35.552,64,35,64
					z M30,62h4v-4c0-1.103-0.897-2-2-2s-2,0.897-2,2V62z"/>
			</g>
		</g>
		<g>
			<path style="fill:#222829;" d="M32,22c-2.206,0-4-1.794-4-4s1.794-4,4-4s4,1.794,4,4S34.206,22,32,22z M32,16
				c-1.103,0-2,0.897-2,2s0.897,2,2,2s2-0.897,2-2S33.103,16,32,16z"/>
		</g>
		<g>
			<rect x="23" y="25" style="fill:#222829;" width="2" height="4"/>
		</g>
		<g>
			<rect x="27" y="25" style="fill:#222829;" width="2" height="4"/>
		</g>
		<g>
			<rect x="31" y="25" style="fill:#222829;" width="2" height="4"/>
		</g>
		<g>
			<rect x="35" y="25" style="fill:#222829;" width="2" height="4"/>
		</g>
		<g>
			<rect x="39" y="25" style="fill:#222829;" width="2" height="4"/>
		</g>
		<g>
			<rect x="24" y="32" style="fill:#222829;" width="16" height="2"/>
		</g>
		<g>
			<rect x="23" y="36" style="fill:#222829;" width="18" height="2"/>
		</g>
		<g>
			<rect x="23" y="40" style="fill:#222829;" width="18" height="2"/>
		</g>
		<g>
			<rect x="22" y="44" style="fill:#222829;" width="20" height="2"/>
		</g>
		<g>
			<rect x="21" y="48" style="fill:#222829;" width="22" height="2"/>
		</g>
		<g>
			<path style="fill:#222829;" d="M41,11h-2V9c0-3.859-3.14-7-7-7s-7,3.141-7,7v2h-2V9c0-4.963,4.038-9,9-9s9,4.037,9,9V11z"/>
		</g>
		<g>
			<path style="fill:none;stroke:#222829;stroke-width:2;stroke-miterlimit:10;" d="M24,55"/>
		</g>
	</g>
</g>
</svg>
