<?xml version="1.0" encoding="iso-8859-1"?>
<!-- Generator: Adobe Illustrator 17.0.0, SVG Export Plug-In . SVG Version: 6.00 Build 0)  -->
<!DOCTYPE svg PUBLIC "-//W3C//DTD SVG 1.1//EN" "http://www.w3.org/Graphics/SVG/1.1/DTD/svg11.dtd">
<svg version="1.1" id="_x32_5_x5F_landmark_x5F_picture"
	 xmlns="http://www.w3.org/2000/svg" xmlns:xlink="http://www.w3.org/1999/xlink" x="0px" y="0px" width="64px" height="64px"
	 viewBox="0 0 64 64" style="enable-background:new 0 0 64 64;" xml:space="preserve">
<g>
	<g>
		<g>
			<path style="fill:#222829;" d="M63,64H1c-0.552,0-1-0.447-1-1V1c0-0.553,0.448-1,1-1h62c0.552,0,1,0.447,1,1v62
				C64,63.553,63.552,64,63,64z M2,62h60V2H2V62z"/>
		</g>
		<g>
			<rect x="4" y="58" style="fill:#222829;" width="2" height="2"/>
		</g>
		<g>
			<rect x="8" y="58" style="fill:#222829;" width="2" height="2"/>
		</g>
		<g>
			<rect x="12" y="58" style="fill:#222829;" width="2" height="2"/>
		</g>
		<g>
			<rect x="48" y="48" style="fill:#222829;" width="12" height="2"/>
		</g>
		<g>
			<rect x="27" y="48" style="fill:#222829;" width="19" height="2"/>
		</g>
		<g>
			<rect x="40" y="52" style="fill:#222829;" width="20" height="2"/>
		</g>
		<g>
			<path style="fill:#222829;" d="M59,46H5c-0.552,0-1-0.447-1-1V5c0-0.553,0.448-1,1-1h54c0.552,0,1,0.447,1,1v40
				C60,45.553,59.552,46,59,46z M6,44h52V6H6V44z"/>
		</g>
		<g>
			<g>
				<path style="fill:#222829;" d="M22,45h-2v-3c0-1.103-0.897-2-2-2h-6c-1.103,0-2,0.897-2,2v3H8v-3c0-2.206,1.794-4,4-4h6
					c2.206,0,4,1.794,4,4V45z"/>
			</g>
			<g>
				<path style="fill:#222829;" d="M42,45h-2v-3c0-1.103-0.897-2-2-2h-6c-1.103,0-2,0.897-2,2v3h-2v-3c0-2.206,1.794-4,4-4h6
					c2.206,0,4,1.794,4,4V45z"/>
			</g>
			<g>
				<rect x="12" y="42" style="fill:#222829;" width="2" height="3"/>
			</g>
			<g>
				<rect x="16" y="42" style="fill:#222829;" width="2" height="3"/>
			</g>
			<g>
				<rect x="32" y="42" style="fill:#222829;" width="2" height="3"/>
			</g>
			<g>
				<rect x="36" y="42" style="fill:#222829;" width="2" height="3"/>
			</g>
			<g>
				<path style="fill:#222829;" d="M13,39h-2v-3c0-3.309,2.691-6,6-6h5v2h-5c-2.206,0-4,1.794-4,4V39z"/>
			</g>
			<g>
				<path style="fill:#222829;" d="M39,39h-2v-3c0-2.206-1.794-4-4-4h-5v-2h5c3.309,0,6,2.691,6,6V39z"/>
			</g>
			<g>
				<path style="fill:#222829;" d="M25,30c-5.161,0-7-5.166-7-10c0-3.869,2.486-6,7-6s7,2.131,7,6C32,24.834,30.161,30,25,30z
					 M25,16c-5,0-5,3.011-5,4c0,1.877,0.36,8,5,8s5-6.123,5-8C30,19.011,30,16,25,16z"/>
			</g>
			<g>
				<path style="fill:#222829;" d="M27,36h-4c-0.459,0-0.859-0.312-0.97-0.758l-2-8l1.94-0.484L23.781,34h2.438l1.811-7.242
					l1.94,0.484l-2,8C27.859,35.688,27.459,36,27,36z"/>
			</g>
			<g>
				<path style="fill:#222829;" d="M17.4,31.8c-4.271-3.203-5.343-9.374-5.386-9.636c-0.072-0.433,0.146-0.862,0.539-1.059l6-3
					l0.895,1.789l-5.306,2.652c0.395,1.604,1.61,5.517,4.458,7.653L17.4,31.8z"/>
			</g>
			<g>
				<path style="fill:#222829;" d="M32.6,31.8l-1.2-1.6c2.859-2.145,4.069-6.052,4.459-7.652l-5.307-2.653l0.895-1.789l6,3
					c0.393,0.196,0.611,0.626,0.539,1.059C37.943,22.426,36.872,28.597,32.6,31.8z"/>
			</g>
		</g>
		<g>
			<path style="fill:#222829;" d="M58.293,24.707L44,10.414l-7.293,7.293l-1.414-1.414l8-8c0.391-0.391,1.023-0.391,1.414,0l15,15
				L58.293,24.707z"/>
		</g>
		<g>
			
				<rect x="29.561" y="26" transform="matrix(0.2169 0.9762 -0.9762 0.2169 63.9444 -25.7141)" style="fill:#222829;" width="36.878" height="2"/>
		</g>
		<g>
			<path style="fill:#222829;" d="M12,16c-2.206,0-4-1.794-4-4s1.794-4,4-4s4,1.794,4,4S14.206,16,12,16z M12,10
				c-1.103,0-2,0.897-2,2s0.897,2,2,2s2-0.897,2-2S13.103,10,12,10z"/>
		</g>
	</g>
</g>
</svg>
