<?xml version="1.0" encoding="iso-8859-1"?>
<!-- Generator: Adobe Illustrator 17.0.0, SVG Export Plug-In . SVG Version: 6.00 Build 0)  -->
<!DOCTYPE svg PUBLIC "-//W3C//DTD SVG 1.1//EN" "http://www.w3.org/Graphics/SVG/1.1/DTD/svg11.dtd">
<svg version="1.1" id="_x32_5_x5F_lunch_x5F_dish" xmlns="http://www.w3.org/2000/svg" xmlns:xlink="http://www.w3.org/1999/xlink"
	 x="0px" y="0px" width="64px" height="64px" viewBox="0 0 64 64" style="enable-background:new 0 0 64 64;" xml:space="preserve">
<g>
	<g>
		<g>
			<rect x="4" y="12" style="fill:#222829;" width="2" height="10"/>
		</g>
		<g>
			<path style="fill:#222829;" d="M6,26H4c-2.206,0-4-1.794-4-4V12h2v10c0,1.103,0.897,2,2,2h2c1.103,0,2-0.897,2-2V12h2v10
				C10,24.206,8.206,26,6,26z"/>
		</g>
		<g>
			<path style="fill:#222829;" d="M5,52c-1.654,0-3-1.346-3-3V25h2v24c0,0.552,0.449,1,1,1s1-0.448,1-1V25h2v24
				C8,50.654,6.654,52,5,52z"/>
		</g>
		<g>
			<g>
				<path style="fill:#222829;" d="M61,52c-1.654,0-3-1.346-3-3V34.414l-2.707-2.707C55.105,31.52,55,31.266,55,31V20
					c0-4.411,3.589-8,8-8c0.552,0,1,0.447,1,1v36C64,50.654,62.654,52,61,52z M57,30.586l2.707,2.707C59.895,33.48,60,33.734,60,34
					v15c0,0.552,0.449,1,1,1s1-0.448,1-1V14.083c-2.834,0.478-5,2.949-5,5.917V30.586z"/>
			</g>
			<g>
				<rect x="56" y="27" style="fill:#222829;" width="3" height="2"/>
			</g>
			<g>
				<rect x="56" y="23" style="fill:#222829;" width="3" height="2"/>
			</g>
			<g>
				<rect x="56" y="19" style="fill:#222829;" width="3" height="2"/>
			</g>
		</g>
		<g>
			<path style="fill:#222829;" d="M32,52c-11.028,0-20-8.972-20-20s8.972-20,20-20s20,8.972,20,20S43.028,52,32,52z M32,14
				c-9.925,0-18,8.075-18,18s8.075,18,18,18s18-8.075,18-18S41.925,14,32,14z"/>
		</g>
		<g>
			<path style="fill:#222829;" d="M32,46c-7.72,0-14-6.28-14-14s6.28-14,14-14s14,6.28,14,14S39.72,46,32,46z M32,20
				c-6.617,0-12,5.383-12,12s5.383,12,12,12s12-5.383,12-12S38.617,20,32,20z"/>
		</g>
		<g>
			<path style="fill:#222829;" d="M24,32h-2c0-5.514,4.486-10,10-10v2C27.589,24,24,27.589,24,32z"/>
		</g>
		<g>
			<g>
				<path style="fill:#222829;" d="M62,10h-2V3.618l-3-1.5l-3.553,1.776c-0.281,0.141-0.613,0.141-0.895,0L49,2.118l-3.553,1.776
					c-0.281,0.141-0.613,0.141-0.895,0L41,2.118l-3.553,1.776c-0.281,0.141-0.613,0.141-0.895,0L33,2.118l-3.553,1.776
					c-0.281,0.141-0.613,0.141-0.895,0L25,2.118l-3.553,1.776c-0.281,0.141-0.613,0.141-0.895,0L17,2.118l-3.553,1.776
					c-0.281,0.141-0.613,0.141-0.895,0L9,2.118l-3,1.5V10H4V3c0-0.379,0.214-0.725,0.553-0.895l4-2c0.281-0.141,0.613-0.141,0.895,0
					L13,1.882l3.553-1.776c0.281-0.141,0.613-0.141,0.895,0L21,1.882l3.553-1.776c0.281-0.141,0.613-0.141,0.895,0L29,1.882
					l3.553-1.776c0.281-0.141,0.613-0.141,0.895,0L37,1.882l3.553-1.776c0.281-0.141,0.613-0.141,0.895,0L45,1.882l3.553-1.776
					c0.281-0.141,0.613-0.141,0.895,0L53,1.882l3.553-1.776c0.281-0.141,0.613-0.141,0.895,0l4,2C61.786,2.275,62,2.621,62,3V10z"/>
			</g>
			<g>
				<path style="fill:#222829;" d="M57,64c-0.153,0-0.307-0.035-0.447-0.105L53,62.118l-3.553,1.776
					c-0.281,0.141-0.613,0.141-0.895,0L45,62.118l-3.553,1.776c-0.281,0.141-0.613,0.141-0.895,0L37,62.118l-3.553,1.776
					c-0.281,0.141-0.613,0.141-0.895,0L29,62.118l-3.553,1.776c-0.281,0.141-0.613,0.141-0.895,0L21,62.118l-3.553,1.776
					c-0.281,0.141-0.613,0.141-0.895,0L13,62.118l-3.553,1.776c-0.281,0.141-0.613,0.141-0.895,0l-4-2C4.214,61.725,4,61.379,4,61
					v-7h2v6.382l3,1.5l3.553-1.776c0.281-0.141,0.613-0.141,0.895,0L17,61.882l3.553-1.776c0.281-0.141,0.613-0.141,0.895,0
					L25,61.882l3.553-1.776c0.281-0.141,0.613-0.141,0.895,0L33,61.882l3.553-1.776c0.281-0.141,0.613-0.141,0.895,0L41,61.882
					l3.553-1.776c0.281-0.141,0.613-0.141,0.895,0L49,61.882l3.553-1.776c0.281-0.141,0.613-0.141,0.895,0L57,61.882l3-1.5V54h2v7
					c0,0.379-0.214,0.725-0.553,0.895l-4,2C57.307,63.965,57.153,64,57,64z"/>
			</g>
		</g>
	</g>
</g>
</svg>
