<?xml version="1.0" encoding="iso-8859-1"?>
<!-- Generator: Adobe Illustrator 17.0.0, SVG Export Plug-In . SVG Version: 6.00 Build 0)  -->
<!DOCTYPE svg PUBLIC "-//W3C//DTD SVG 1.1//EN" "http://www.w3.org/Graphics/SVG/1.1/DTD/svg11.dtd">
<svg version="1.1" id="_x32_5_x5F_martini_x5F_cocktail"
	 xmlns="http://www.w3.org/2000/svg" xmlns:xlink="http://www.w3.org/1999/xlink" x="0px" y="0px" width="60px" height="64px"
	 viewBox="0 0 60 64" style="enable-background:new 0 0 60 64;" xml:space="preserve">
<g>
	<g>
		<g>
			<rect x="34" y="35" style="fill:#222829;" width="2" height="15"/>
		</g>
		<g>
			<path style="fill:#222829;" d="M35,36c-0.256,0-0.512-0.098-0.707-0.293l-24-24c-0.286-0.286-0.372-0.716-0.217-1.09
				S10.596,10,11,10h48c0.404,0,0.769,0.243,0.924,0.617s0.069,0.804-0.217,1.09l-24,24C35.512,35.902,35.256,36,35,36z M13.414,12
				L35,33.586L56.586,12H13.414z"/>
		</g>
		<g>
			
				<rect x="45" y="-4.385" transform="matrix(0.7071 0.7071 -0.7071 0.7071 23.3726 -28.4264)" style="fill:#222829;" width="2" height="36.77"/>
		</g>
		<g>
			<path style="fill:#222829;" d="M46,64H24v-2c5.54,0,10-6.564,10-12h2c0,5.436,4.46,12,10,12V64z M29.857,62h10.285
				c-2.289-1.652-4.097-4.161-5.143-6.881C33.954,57.839,32.146,60.348,29.857,62z"/>
		</g>
		<g>
			<path style="fill:#222829;" d="M11,22C4.935,22,0,17.065,0,11S4.935,0,11,0s11,4.935,11,11c0,2.896-1.117,5.632-3.146,7.7
				l-1.428-1.4C19.086,15.607,20,13.37,20,11c0-4.963-4.038-9-9-9s-9,4.037-9,9c0,4.625,3.506,8.445,8,8.944V18h2v3
				C12,21.553,11.552,22,11,22z"/>
		</g>
		<g>
			<rect x="18" y="17" style="fill:#222829;" width="34" height="2"/>
		</g>
		<g>
			<rect x="48" y="62" style="fill:#222829;" width="12" height="2"/>
		</g>
		<g>
			<rect y="47" style="fill:#222829;" width="60" height="2"/>
		</g>
		<g>
			<path style="fill:#222829;" d="M54.994,43c-1.602,0-2.448-0.676-3.127-1.219C51.298,41.328,50.888,41,49.987,41
				c-0.9,0-1.289,0.311-1.877,0.781C47.431,42.324,46.586,43,44.984,43c-1.6,0-2.445-0.676-3.124-1.219
				C41.273,41.311,40.885,41,39.986,41c-0.899,0-1.288,0.311-1.876,0.781C37.431,42.324,36.585,43,34.984,43
				s-2.446-0.676-3.125-1.219C31.272,41.311,30.884,41,29.985,41c-0.899,0-1.288,0.311-1.875,0.781
				C27.431,42.324,26.585,43,24.985,43s-2.446-0.676-3.125-1.219C21.272,41.311,20.884,41,19.985,41
				c-0.898,0-1.286,0.311-1.874,0.78C17.433,42.324,16.588,43,14.987,43c-1.6,0-2.444-0.676-3.123-1.22
				C11.277,41.311,10.889,41,9.992,41c-0.898,0-1.287,0.311-1.874,0.78C7.439,42.324,6.594,43,4.994,43
				c-1.599,0-2.443-0.676-3.122-1.22C1.285,41.311,0.897,41,0,41v-2c1.6,0,2.444,0.676,3.122,1.22C3.709,40.689,4.097,41,4.994,41
				c0.898,0,1.287-0.311,1.874-0.78C7.546,39.676,8.391,39,9.992,39c1.6,0,2.444,0.676,3.123,1.22c0.587,0.47,0.975,0.78,1.873,0.78
				c0.898,0,1.287-0.311,1.874-0.781C17.54,39.676,18.385,39,19.985,39c1.601,0,2.446,0.676,3.125,1.219
				C23.697,40.689,24.085,41,24.985,41s1.288-0.311,1.875-0.781C27.539,39.676,28.384,39,29.985,39s2.445,0.676,3.124,1.219
				C33.697,40.689,34.085,41,34.984,41c0.9,0,1.289-0.311,1.876-0.781C37.54,39.676,38.385,39,39.986,39
				c1.601,0,2.445,0.676,3.125,1.22c0.587,0.47,0.976,0.78,1.874,0.78c0.9,0,1.289-0.311,1.877-0.781
				C47.541,39.676,48.386,39,49.987,39c1.602,0,2.448,0.676,3.127,1.219C53.682,40.672,54.092,41,54.994,41s1.312-0.328,1.879-0.781
				C57.552,39.676,58.398,39,60,39v2c-0.901,0-1.311,0.328-1.879,0.781C57.442,42.324,56.596,43,54.994,43z"/>
		</g>
		<g>
			<rect y="62" style="fill:#222829;" width="22" height="2"/>
		</g>
	</g>
</g>
</svg>
