<?xml version="1.0" encoding="iso-8859-1"?>
<!-- Generator: Adobe Illustrator 17.0.0, SVG Export Plug-In . SVG Version: 6.00 Build 0)  -->
<!DOCTYPE svg PUBLIC "-//W3C//DTD SVG 1.1//EN" "http://www.w3.org/Graphics/SVG/1.1/DTD/svg11.dtd">
<svg version="1.1" id="_x32_5_x5F_ocean_x5F_liner_x5F_voyage"
	 xmlns="http://www.w3.org/2000/svg" xmlns:xlink="http://www.w3.org/1999/xlink" x="0px" y="0px" width="60px" height="64px"
	 viewBox="0 0 60 64" style="enable-background:new 0 0 60 64;" xml:space="preserve">
<g>
	<g>
		<g>
			<path style="fill:#222829;" d="M47,25h-2V14H15v11h-2V13c0-0.553,0.448-1,1-1h32c0.552,0,1,0.447,1,1V25z"/>
		</g>
		<g>
			<path style="fill:#222829;" d="M46.975,57.225l-1.949-0.449l5.816-25.203L30,22.099L9.158,31.572l5.816,25.203l-1.949,0.449
				l-6-26c-0.107-0.463,0.128-0.938,0.561-1.135l22-10c0.263-0.119,0.564-0.119,0.827,0l22,10c0.433,0.196,0.668,0.672,0.561,1.135
				L46.975,57.225z"/>
		</g>
		<g>
			<rect x="29" y="21" style="fill:#222829;" width="2" height="36"/>
		</g>
		<g>
			<path style="fill:#222829;" d="M37,13h-2V2H25v11h-2V1c0-0.553,0.448-1,1-1h12c0.552,0,1,0.447,1,1V13z"/>
		</g>
		<g>
			<rect x="13" y="32" style="fill:#222829;" width="4" height="2"/>
		</g>
		<g>
			<rect x="43" y="32" style="fill:#222829;" width="4" height="2"/>
		</g>
		<g>
			<path style="fill:#222829;" d="M60,64c-2.543,0-4.774-1.363-6-3.397C52.774,62.637,50.543,64,48,64s-4.774-1.363-6-3.397
				C40.774,62.637,38.543,64,36,64s-4.774-1.363-6-3.397C28.774,62.637,26.543,64,24,64s-4.774-1.363-6-3.397
				C16.774,62.637,14.543,64,12,64s-4.774-1.363-6-3.397C4.774,62.637,2.543,64,0,64v-2c2.757,0,5-2.243,5-5h2c0,2.757,2.243,5,5,5
				s5-2.243,5-5h2c0,2.757,2.243,5,5,5s5-2.243,5-5h2c0,2.757,2.243,5,5,5s5-2.243,5-5h2c0,2.757,2.243,5,5,5s5-2.243,5-5h2
				c0,2.757,2.243,5,5,5V64z"/>
		</g>
		<g>
			<rect x="17" y="16" style="fill:#222829;" width="2" height="2"/>
		</g>
		<g>
			<rect x="21" y="16" style="fill:#222829;" width="2" height="2"/>
		</g>
		<g>
			<rect x="25" y="16" style="fill:#222829;" width="2" height="2"/>
		</g>
		<g>
			<rect x="33" y="16" style="fill:#222829;" width="2" height="2"/>
		</g>
		<g>
			<rect x="29" y="16" style="fill:#222829;" width="2" height="2"/>
		</g>
		<g>
			<rect x="37" y="16" style="fill:#222829;" width="2" height="2"/>
		</g>
		<g>
			<rect x="41" y="16" style="fill:#222829;" width="2" height="2"/>
		</g>
		<g>
			<rect x="17" y="8" style="fill:#222829;" width="26" height="2"/>
		</g>
		<g>
			<rect x="27" y="4" style="fill:#222829;" width="6" height="2"/>
		</g>
	</g>
</g>
</svg>
