<?xml version="1.0" encoding="iso-8859-1"?>
<!-- Generator: Adobe Illustrator 17.0.0, SVG Export Plug-In . SVG Version: 6.00 Build 0)  -->
<!DOCTYPE svg PUBLIC "-//W3C//DTD SVG 1.1//EN" "http://www.w3.org/Graphics/SVG/1.1/DTD/svg11.dtd">
<svg version="1.1" id="_x32_5_x5F_perfect_x5F_weather"
	 xmlns="http://www.w3.org/2000/svg" xmlns:xlink="http://www.w3.org/1999/xlink" x="0px" y="0px" width="64px" height="64px"
	 viewBox="0 0 64 64" style="enable-background:new 0 0 64 64;" xml:space="preserve">
<g>
	<g>
		<g>
			<path style="fill:#222829;" d="M32,64c-6.617,0-12-5.383-12-12c0-4.679,2.664-8.707,7-10.664V5c0-2.757,2.243-5,5-5s5,2.243,5,5
				h-2c0-1.654-1.346-3-3-3s-3,1.346-3,3v37.683l-0.636,0.249C24.438,44.464,22,47.939,22,52c0,5.514,4.486,10,10,10s10-4.486,10-10
				c0-4.062-2.438-7.537-6.363-9.068L35,42.684V35h2v6.336c4.336,1.956,7,5.984,7,10.664C44,58.617,38.617,64,32,64z"/>
		</g>
		<g>
			<path style="fill:#222829;" d="M32,59c-3.86,0-7-3.141-7-7s3.14-7,7-7s7,3.141,7,7S35.86,59,32,59z M32,47c-2.757,0-5,2.243-5,5
				s2.243,5,5,5s5-2.243,5-5S34.757,47,32,47z"/>
		</g>
		<g>
			<polygon style="fill:#222829;" points="33,46 31,46 31,7 64,7 64,9 33,9 			"/>
		</g>
		<g>
			<path style="fill:#222829;" d="M64,41c-2.413,0-3.684-1.271-4.705-2.293C58.341,37.753,57.588,37,56.003,37
				c-1.584,0-2.337,0.753-3.291,1.707C51.691,39.729,50.42,41,48.007,41c-2.414,0-3.685-1.271-4.707-2.293
				C42.347,37.753,41.594,37,40.01,37H39v-2h1c2.423,0,3.694,1.271,4.715,2.293C45.668,38.247,46.421,39,48.007,39
				c1.584,0,2.337-0.753,3.291-1.707C52.319,36.271,53.589,35,56.003,35c2.414,0,3.685,1.271,4.707,2.293
				C61.663,38.247,62.416,39,64,39V41z"/>
		</g>
		<g>
			<path style="fill:#222829;" d="M16.01,41c-2.415,0-3.687-1.271-4.709-2.293C10.346,37.754,9.592,37,8.005,37
				s-2.341,0.754-3.296,1.707C3.687,39.729,2.415,41,0,41v-2c1.587,0,2.341-0.753,3.295-1.707C4.317,36.271,5.589,35,8.005,35
				s3.688,1.271,4.71,2.293C13.669,38.247,14.423,39,16.01,39c1.586,0,2.339-0.753,3.293-1.707c1.02-1.021,2.29-2.29,4.697-2.293h1
				v2h-0.991c-1.585,0-2.338,0.753-3.292,1.707C19.695,39.729,18.424,41,16.01,41z"/>
		</g>
		<g>
			<path style="fill:#222829;" d="M18,51c-2.415,0-3.687-1.271-4.709-2.293C12.336,47.754,11.583,47,9.995,47
				c-1.587,0-2.338,0.753-3.291,1.707C5.685,49.729,4.416,51,2,51v-2c1.586,0,2.338-0.753,3.289-1.706
				C6.309,46.271,7.579,45,9.995,45c2.416,0,3.688,1.271,4.71,2.293C15.659,48.247,16.413,49,18,49V51z"/>
		</g>
		<g>
			<path style="fill:#222829;" d="M62,51c-2.415,0-3.687-1.271-4.709-2.293C56.336,47.754,55.583,47,53.995,47
				c-1.587,0-2.338,0.753-3.291,1.707C49.685,49.729,48.416,51,46,51v-2c1.586,0,2.338-0.753,3.289-1.706
				c1.02-1.022,2.29-2.294,4.706-2.294c2.416,0,3.688,1.271,4.71,2.293C59.659,48.247,60.413,49,62,49V51z"/>
		</g>
		<g>
			<g>
				<rect x="39" y="11" style="fill:#222829;" width="2" height="10"/>
			</g>
			<g>
				<rect x="40" y="15" style="fill:#222829;" width="5" height="2"/>
			</g>
			<g>
				<rect x="44" y="11" style="fill:#222829;" width="2" height="10"/>
			</g>
			<g>
				<path style="fill:#222829;" d="M53,21h-3c-1.103,0-2-0.897-2-2v-6c0-1.103,0.897-2,2-2h3c1.103,0,2,0.897,2,2v6
					C55,20.103,54.103,21,53,21z M50,13v6h3.001L53,13H50z"/>
			</g>
			<g>
				<rect x="56" y="11" style="fill:#222829;" width="8" height="2"/>
			</g>
			<g>
				<rect x="59" y="12" style="fill:#222829;" width="2" height="9"/>
			</g>
		</g>
		<g>
			<rect x="32" y="31" style="fill:#222829;" width="5" height="2"/>
		</g>
		<g>
			<rect x="32" y="27" style="fill:#222829;" width="5" height="2"/>
		</g>
		<g>
			<rect x="32" y="23" style="fill:#222829;" width="5" height="2"/>
		</g>
		<g>
			<rect x="32" y="19" style="fill:#222829;" width="5" height="2"/>
		</g>
		<g>
			<rect x="32" y="15" style="fill:#222829;" width="5" height="2"/>
		</g>
		<g>
			<rect x="32" y="11" style="fill:#222829;" width="5" height="2"/>
		</g>
	</g>
</g>
</svg>
