<?xml version="1.0" encoding="iso-8859-1"?>
<!-- Generator: Adobe Illustrator 17.0.0, SVG Export Plug-In . SVG Version: 6.00 Build 0)  -->
<!DOCTYPE svg PUBLIC "-//W3C//DTD SVG 1.1//EN" "http://www.w3.org/Graphics/SVG/1.1/DTD/svg11.dtd">
<svg version="1.1" id="_x32_5_x5F_passport_x5F_ticket"
	 xmlns="http://www.w3.org/2000/svg" xmlns:xlink="http://www.w3.org/1999/xlink" x="0px" y="0px" width="64px" height="64px"
	 viewBox="0 0 64 64" style="enable-background:new 0 0 64 64;" xml:space="preserve">
<g>
	<g>
		<g>
			<path style="fill:#222829;" d="M38,64H2c-1.103,0-2-0.897-2-2V10c0-1.103,0.897-2,2-2h36c1.103,0,2,0.897,2,2v52
				C40,63.103,39.103,64,38,64z M2,10v52h36.001L38,10H2z"/>
		</g>
		<g>
			<path style="fill:#222829;" d="M20,44c-7.72,0-14-6.28-14-14s6.28-14,14-14s14,6.28,14,14S27.72,44,20,44z M20,18
				c-6.617,0-12,5.383-12,12s5.383,12,12,12s12-5.383,12-12S26.617,18,20,18z"/>
		</g>
		<g>
			<rect x="8" y="25" style="fill:#222829;" width="24" height="2"/>
		</g>
		<g>
			<rect x="8" y="33" style="fill:#222829;" width="24" height="2"/>
		</g>
		<g>
			<rect x="19" y="17" style="fill:#222829;" width="2" height="26"/>
		</g>
		<g>
			<path style="fill:#222829;" d="M20,44c-4.486,0-8-6.149-8-14s3.514-14,8-14s8,6.149,8,14S24.486,44,20,44z M20,18
				c-3.252,0-6,5.495-6,12s2.748,12,6,12s6-5.495,6-12S23.252,18,20,18z"/>
		</g>
		<g>
			<rect x="6" y="48" style="fill:#222829;" width="28" height="2"/>
		</g>
		<g>
			<rect x="6" y="52" style="fill:#222829;" width="28" height="2"/>
		</g>
		<g>
			<rect x="52" y="40" style="fill:#222829;" width="2" height="2"/>
		</g>
		<g>
			<rect x="56" y="40" style="fill:#222829;" width="2" height="2"/>
		</g>
		<g>
			<rect x="48" y="40" style="fill:#222829;" width="2" height="2"/>
		</g>
		<g>
			<rect x="44" y="40" style="fill:#222829;" width="2" height="2"/>
		</g>
		<g>
			<rect x="50" y="46" style="fill:#222829;" width="2" height="12"/>
		</g>
		<g>
			<rect x="46" y="46" style="fill:#222829;" width="2" height="12"/>
		</g>
		<g>
			<rect x="50" y="20" style="fill:#222829;" width="2" height="16"/>
		</g>
		<g>
			<rect x="46" y="20" style="fill:#222829;" width="2" height="16"/>
		</g>
		<g>
			<g>
				<rect x="48" y="6" style="fill:#222829;" width="2" height="10"/>
			</g>
			<g>
				<path style="fill:#222829;" d="M50.293,17.707L49,16.414l-1.293,1.293l-1.414-1.414l2-2c0.391-0.391,1.023-0.391,1.414,0l2,2
					L50.293,17.707z"/>
			</g>
			<g>
				<path style="fill:#222829;" d="M52.293,13.707L49,10.414l-3.293,3.293l-1.414-1.414l4-4c0.391-0.391,1.023-0.391,1.414,0l4,4
					L52.293,13.707z"/>
			</g>
		</g>
		<g>
			<rect x="56" y="44" style="fill:#222829;" width="2" height="19"/>
		</g>
		<g>
			<rect x="56" y="1" style="fill:#222829;" width="2" height="37"/>
		</g>
		<g>
			<rect x="38" y="1" style="fill:#222829;" width="2" height="5"/>
		</g>
		<g>
			<path style="fill:#222829;" d="M60,64H42v-2h18c1.103,0,2-0.897,2-2V44c0-1.103-0.897-2-2-2v-2c1.103,0,2-0.897,2-2V4
				c0-1.103-0.897-2-2-2H32c-1.103,0-2,0.897-2,2v2h-2V4c0-2.206,1.794-4,4-4h28c2.206,0,4,1.794,4,4v34
				c0,1.193-0.525,2.267-1.357,3C63.475,41.733,64,42.807,64,44v16C64,62.206,62.206,64,60,64z"/>
		</g>
	</g>
</g>
</svg>
