<?xml version="1.0" encoding="iso-8859-1"?>
<!-- Generator: Adobe Illustrator 17.0.0, SVG Export Plug-In . SVG Version: 6.00 Build 0)  -->
<!DOCTYPE svg PUBLIC "-//W3C//DTD SVG 1.1//EN" "http://www.w3.org/Graphics/SVG/1.1/DTD/svg11.dtd">
<svg version="1.1" id="_x32_5_x5F_resort_x5F_hotel"
	 xmlns="http://www.w3.org/2000/svg" xmlns:xlink="http://www.w3.org/1999/xlink" x="0px" y="0px" width="64px" height="64px"
	 viewBox="0 0 64 64" style="enable-background:new 0 0 64 64;" xml:space="preserve">
<g>
	<g>
		<g>
			<g>
				<path style="fill:#222829;" d="M47,64H17c-0.552,0-1-0.447-1-1V1c0-0.553,0.448-1,1-1h30c0.552,0,1,0.447,1,1v62
					C48,63.553,47.552,64,47,64z M18,62h28V2H18V62z"/>
			</g>
			<g>
				<rect x="20" y="53" style="fill:#222829;" width="24" height="2"/>
			</g>
			<g>
				<rect x="22" y="54" style="fill:#222829;" width="2" height="9"/>
			</g>
			<g>
				<rect x="40" y="54" style="fill:#222829;" width="2" height="9"/>
			</g>
			<g>
				<rect x="31" y="54" style="fill:#222829;" width="2" height="9"/>
			</g>
			<g>
				<rect x="35" y="57" style="fill:#222829;" width="2" height="2"/>
			</g>
			<g>
				<rect x="27" y="57" style="fill:#222829;" width="2" height="2"/>
			</g>
			<g>
				<path style="fill:#222829;" d="M42,50h-4c-0.552,0-1-0.447-1-1v-4c0-0.553,0.448-1,1-1h4c0.552,0,1,0.447,1,1v4
					C43,49.553,42.552,50,42,50z M39,48h2v-2h-2V48z"/>
			</g>
			<g>
				<path style="fill:#222829;" d="M34,50h-4c-0.552,0-1-0.447-1-1v-4c0-0.553,0.448-1,1-1h4c0.552,0,1,0.447,1,1v4
					C35,49.553,34.552,50,34,50z M31,48h2v-2h-2V48z"/>
			</g>
			<g>
				<path style="fill:#222829;" d="M26,50h-4c-0.552,0-1-0.447-1-1v-4c0-0.553,0.448-1,1-1h4c0.552,0,1,0.447,1,1v4
					C27,49.553,26.552,50,26,50z M23,48h2v-2h-2V48z"/>
			</g>
			<g>
				<path style="fill:#222829;" d="M42,41h-4c-0.552,0-1-0.447-1-1v-4c0-0.553,0.448-1,1-1h4c0.552,0,1,0.447,1,1v4
					C43,40.553,42.552,41,42,41z M39,39h2v-2h-2V39z"/>
			</g>
			<g>
				<path style="fill:#222829;" d="M34,41h-4c-0.552,0-1-0.447-1-1v-4c0-0.553,0.448-1,1-1h4c0.552,0,1,0.447,1,1v4
					C35,40.553,34.552,41,34,41z M31,39h2v-2h-2V39z"/>
			</g>
			<g>
				<path style="fill:#222829;" d="M26,41h-4c-0.552,0-1-0.447-1-1v-4c0-0.553,0.448-1,1-1h4c0.552,0,1,0.447,1,1v4
					C27,40.553,26.552,41,26,41z M23,39h2v-2h-2V39z"/>
			</g>
			<g>
				<path style="fill:#222829;" d="M42,32h-4c-0.552,0-1-0.447-1-1v-4c0-0.553,0.448-1,1-1h4c0.552,0,1,0.447,1,1v4
					C43,31.553,42.552,32,42,32z M39,30h2v-2h-2V30z"/>
			</g>
			<g>
				<path style="fill:#222829;" d="M34,32h-4c-0.552,0-1-0.447-1-1v-4c0-0.553,0.448-1,1-1h4c0.552,0,1,0.447,1,1v4
					C35,31.553,34.552,32,34,32z M31,30h2v-2h-2V30z"/>
			</g>
			<g>
				<path style="fill:#222829;" d="M26,32h-4c-0.552,0-1-0.447-1-1v-4c0-0.553,0.448-1,1-1h4c0.552,0,1,0.447,1,1v4
					C27,31.553,26.552,32,26,32z M23,30h2v-2h-2V30z"/>
			</g>
			<g>
				<path style="fill:#222829;" d="M42,23h-4c-0.552,0-1-0.447-1-1v-4c0-0.553,0.448-1,1-1h4c0.552,0,1,0.447,1,1v4
					C43,22.553,42.552,23,42,23z M39,21h2v-2h-2V21z"/>
			</g>
			<g>
				<path style="fill:#222829;" d="M34,23h-4c-0.552,0-1-0.447-1-1v-4c0-0.553,0.448-1,1-1h4c0.552,0,1,0.447,1,1v4
					C35,22.553,34.552,23,34,23z M31,21h2v-2h-2V21z"/>
			</g>
			<g>
				<path style="fill:#222829;" d="M26,23h-4c-0.552,0-1-0.447-1-1v-4c0-0.553,0.448-1,1-1h4c0.552,0,1,0.447,1,1v4
					C27,22.553,26.552,23,26,23z M23,21h2v-2h-2V21z"/>
			</g>
			<g>
				<path style="fill:#222829;" d="M42,14h-4c-0.552,0-1-0.447-1-1V9c0-0.553,0.448-1,1-1h4c0.552,0,1,0.447,1,1v4
					C43,13.553,42.552,14,42,14z M39,12h2v-2h-2V12z"/>
			</g>
			<g>
				<path style="fill:#222829;" d="M34,14h-4c-0.552,0-1-0.447-1-1V9c0-0.553,0.448-1,1-1h4c0.552,0,1,0.447,1,1v4
					C35,13.553,34.552,14,34,14z M31,12h2v-2h-2V12z"/>
			</g>
			<g>
				<path style="fill:#222829;" d="M26,14h-4c-0.552,0-1-0.447-1-1V9c0-0.553,0.448-1,1-1h4c0.552,0,1,0.447,1,1v4
					C27,13.553,26.552,14,26,14z M23,12h2v-2h-2V12z"/>
			</g>
			<g>
				<path style="fill:#222829;" d="M63,64H47c-0.552,0-1-0.447-1-1V22c0-0.553,0.448-1,1-1h16c0.552,0,1,0.447,1,1v41
					C64,63.553,63.552,64,63,64z M48,62h14V23H48V62z"/>
			</g>
			<g>
				<rect x="50" y="26" style="fill:#222829;" width="2" height="2"/>
			</g>
			<g>
				<rect x="54" y="26" style="fill:#222829;" width="2" height="2"/>
			</g>
			<g>
				<rect x="58" y="26" style="fill:#222829;" width="2" height="2"/>
			</g>
			<g>
				<rect x="50" y="30" style="fill:#222829;" width="2" height="2"/>
			</g>
			<g>
				<rect x="54" y="30" style="fill:#222829;" width="2" height="2"/>
			</g>
			<g>
				<rect x="58" y="30" style="fill:#222829;" width="2" height="2"/>
			</g>
			<g>
				<rect x="50" y="44" style="fill:#222829;" width="2" height="2"/>
			</g>
			<g>
				<rect x="54" y="44" style="fill:#222829;" width="2" height="2"/>
			</g>
			<g>
				<rect x="58" y="44" style="fill:#222829;" width="2" height="2"/>
			</g>
			<g>
				<rect x="50" y="48" style="fill:#222829;" width="2" height="2"/>
			</g>
			<g>
				<rect x="54" y="48" style="fill:#222829;" width="2" height="2"/>
			</g>
			<g>
				<rect x="58" y="48" style="fill:#222829;" width="2" height="2"/>
			</g>
			<g>
				<rect x="50" y="35" style="fill:#222829;" width="2" height="2"/>
			</g>
			<g>
				<rect x="54" y="35" style="fill:#222829;" width="2" height="2"/>
			</g>
			<g>
				<rect x="58" y="35" style="fill:#222829;" width="2" height="2"/>
			</g>
			<g>
				<rect x="50" y="39" style="fill:#222829;" width="2" height="2"/>
			</g>
			<g>
				<rect x="54" y="39" style="fill:#222829;" width="2" height="2"/>
			</g>
			<g>
				<rect x="58" y="39" style="fill:#222829;" width="2" height="2"/>
			</g>
			<g>
				<rect x="21" y="4" style="fill:#222829;" width="22" height="2"/>
			</g>
			<g>
				<rect x="50" y="19" style="fill:#222829;" width="2" height="3"/>
			</g>
			<g>
				<rect x="58" y="19" style="fill:#222829;" width="2" height="3"/>
			</g>
			<g>
				<rect x="50" y="53" style="fill:#222829;" width="13" height="2"/>
			</g>
			<g>
				<rect x="50" y="57" style="fill:#222829;" width="13" height="2"/>
			</g>
			<g>
				<path style="fill:#222829;" d="M17,64H1c-0.552,0-1-0.447-1-1V22c0-0.553,0.448-1,1-1h16c0.552,0,1,0.447,1,1v41
					C18,63.553,17.552,64,17,64z M2,62h14V23H2V62z"/>
			</g>
			<g>
				<rect x="4" y="26" style="fill:#222829;" width="2" height="2"/>
			</g>
			<g>
				<rect x="8" y="26" style="fill:#222829;" width="2" height="2"/>
			</g>
			<g>
				<rect x="12" y="26" style="fill:#222829;" width="2" height="2"/>
			</g>
			<g>
				<rect x="4" y="30" style="fill:#222829;" width="2" height="2"/>
			</g>
			<g>
				<rect x="8" y="30" style="fill:#222829;" width="2" height="2"/>
			</g>
			<g>
				<rect x="12" y="30" style="fill:#222829;" width="2" height="2"/>
			</g>
			<g>
				<rect x="4" y="44" style="fill:#222829;" width="2" height="2"/>
			</g>
			<g>
				<rect x="8" y="44" style="fill:#222829;" width="2" height="2"/>
			</g>
			<g>
				<rect x="12" y="44" style="fill:#222829;" width="2" height="2"/>
			</g>
			<g>
				<rect x="4" y="48" style="fill:#222829;" width="2" height="2"/>
			</g>
			<g>
				<rect x="8" y="48" style="fill:#222829;" width="2" height="2"/>
			</g>
			<g>
				<rect x="12" y="48" style="fill:#222829;" width="2" height="2"/>
			</g>
			<g>
				<rect x="4" y="35" style="fill:#222829;" width="2" height="2"/>
			</g>
			<g>
				<rect x="8" y="35" style="fill:#222829;" width="2" height="2"/>
			</g>
			<g>
				<rect x="12" y="35" style="fill:#222829;" width="2" height="2"/>
			</g>
			<g>
				<rect x="4" y="39" style="fill:#222829;" width="2" height="2"/>
			</g>
			<g>
				<rect x="8" y="39" style="fill:#222829;" width="2" height="2"/>
			</g>
			<g>
				<rect x="12" y="39" style="fill:#222829;" width="2" height="2"/>
			</g>
			<g>
				<rect x="4" y="19" style="fill:#222829;" width="2" height="3"/>
			</g>
			<g>
				<rect x="12" y="19" style="fill:#222829;" width="2" height="3"/>
			</g>
			<g>
				<rect x="1" y="53" style="fill:#222829;" width="13" height="2"/>
			</g>
			<g>
				<rect x="1" y="57" style="fill:#222829;" width="13" height="2"/>
			</g>
		</g>
	</g>
</g>
</svg>
