<?xml version="1.0" encoding="iso-8859-1"?>
<!-- Generator: Adobe Illustrator 17.0.0, SVG Export Plug-In . SVG Version: 6.00 Build 0)  -->
<!DOCTYPE svg PUBLIC "-//W3C//DTD SVG 1.1//EN" "http://www.w3.org/Graphics/SVG/1.1/DTD/svg11.dtd">
<svg version="1.1" id="_x32_5_x5F_railroad_x5F_trip"
	 xmlns="http://www.w3.org/2000/svg" xmlns:xlink="http://www.w3.org/1999/xlink" x="0px" y="0px" width="64px" height="48px"
	 viewBox="0 0 64 48" style="enable-background:new 0 0 64 48;" xml:space="preserve">
<g>
	<g>
		<g>
			<rect y="44" style="fill:#4e5c65;" width="64" height="2"/>
		</g>
		<g>
			<path style="fill:#4e5c65;" d="M4,42H2V8c0-4.411,3.589-8,8-8s8,3.589,8,8v5h-2V8c0-3.309-2.691-6-6-6S4,4.691,4,8V42z"/>
		</g>
		<g>
			<path style="fill:#4e5c65;" d="M36,41h-2c0-1.654-1.346-3-3-3H6v-2h25C33.757,36,36,38.243,36,41z"/>
		</g>
		<g>
			<path style="fill:#4e5c65;" d="M8,25H6v-2h2v-2H6v-2h2c1.103,0,2,0.897,2,2v2C10,24.103,9.103,25,8,25z"/>
		</g>
		<g>
			<path style="fill:#4e5c65;" d="M22,25h-8c-1.103,0-2-0.897-2-2v-2c0-1.103,0.897-2,2-2h8c1.103,0,2,0.897,2,2v2
				C24,24.103,23.103,25,22,25z M14,21v2h8.001L22,21H14z"/>
		</g>
		<g>
			<rect x="2" y="45" style="fill:#4e5c65;" width="2" height="3"/>
		</g>
		<g>
			<rect x="6" y="45" style="fill:#4e5c65;" width="2" height="3"/>
		</g>
		<g>
			<rect x="10" y="45" style="fill:#4e5c65;" width="2" height="3"/>
		</g>
		<g>
			<rect x="14" y="45" style="fill:#4e5c65;" width="2" height="3"/>
		</g>
		<g>
			<rect x="18" y="45" style="fill:#4e5c65;" width="2" height="3"/>
		</g>
		<g>
			<rect x="22" y="45" style="fill:#4e5c65;" width="2" height="3"/>
		</g>
		<g>
			<rect x="26" y="45" style="fill:#4e5c65;" width="2" height="3"/>
		</g>
		<g>
			<rect x="30" y="45" style="fill:#4e5c65;" width="2" height="3"/>
		</g>
		<g>
			<rect x="34" y="45" style="fill:#4e5c65;" width="2" height="3"/>
		</g>
		<g>
			<rect x="38" y="45" style="fill:#4e5c65;" width="2" height="3"/>
		</g>
		<g>
			<rect x="42" y="45" style="fill:#4e5c65;" width="2" height="3"/>
		</g>
		<g>
			<rect x="46" y="45" style="fill:#4e5c65;" width="2" height="3"/>
		</g>
		<g>
			<rect x="50" y="45" style="fill:#4e5c65;" width="2" height="3"/>
		</g>
		<g>
			<rect x="54" y="45" style="fill:#4e5c65;" width="2" height="3"/>
		</g>
		<g>
			<rect x="58" y="45" style="fill:#4e5c65;" width="2" height="3"/>
		</g>
		<g>
			<rect x="62" y="45" style="fill:#4e5c65;" width="2" height="3"/>
		</g>
		<g>
			<path style="fill:#4e5c65;" d="M56,42H6v-2h50c2.206,0,4-1.794,4-4v-2c0-2.477-11.636-17-25-17H6v-2h29c14.542,0,27,15.392,27,19
				v2C62,39.309,59.309,42,56,42z"/>
		</g>
		<g>
			<path style="fill:#4e5c65;" d="M60,32H47c-7.411,0-13-5.589-13-13v-3h2v3c0,6.271,4.729,11,11,11h13V32z"/>
		</g>
		<g>
			<rect x="56" y="34" style="fill:#4e5c65;" width="5" height="2"/>
		</g>
		<g>
			<rect x="52" y="34" style="fill:#4e5c65;" width="2" height="2"/>
		</g>
		<g>
			<rect x="30" y="19" style="fill:#4e5c65;" width="2" height="2"/>
		</g>
		<g>
			<rect x="26" y="19" style="fill:#4e5c65;" width="2" height="2"/>
		</g>
		<g>
			<rect x="6" y="29" style="fill:#4e5c65;" width="18" height="2"/>
		</g>
		<g>
			<path style="fill:#4e5c65;" d="M64,23h-2v-1c0-4.411-3.589-8-8-8h-3.002l1.203-1.601C52.724,11.703,53,10.873,53,10
				c0-2.206-1.794-4-4-4c-0.874,0-1.704,0.276-2.399,0.799l-0.78,0.587L45.216,6.62C42.792,3.555,39.691,2,36,2
				c-6.065,0-11,4.935-11,11h-2c0-7.168,5.832-13,13-13c3.983,0,7.494,1.617,10.207,4.688C47.062,4.235,48.012,4,49,4
				c3.309,0,6,2.691,6,6c0,0.699-0.118,1.38-0.348,2.021C59.863,12.358,64,16.705,64,22V23z"/>
		</g>
	</g>
</g>
</svg>
