<?xml version="1.0" encoding="iso-8859-1"?>
<!-- Generator: Adobe Illustrator 17.0.0, SVG Export Plug-In . SVG Version: 6.00 Build 0)  -->
<!DOCTYPE svg PUBLIC "-//W3C//DTD SVG 1.1//EN" "http://www.w3.org/Graphics/SVG/1.1/DTD/svg11.dtd">
<svg version="1.1" id="_x32_5_x5F_sunglasses_x5F_and_x5F_swimsuit"
	 xmlns="http://www.w3.org/2000/svg" xmlns:xlink="http://www.w3.org/1999/xlink" x="0px" y="0px" width="56px" height="64px"
	 viewBox="0 0 56 64" style="enable-background:new 0 0 56 64;" xml:space="preserve">
<g>
	<g>
		<g>
			<path style="fill:#222829;" d="M53,64H31c-0.552,0-1-0.447-1-1V53c0-1.103-0.897-2-2-2s-2,0.897-2,2v10c0,0.553-0.448,1-1,1H3
				c-0.552,0-1-0.447-1-1V23c0-0.553,0.448-1,1-1h50c0.552,0,1,0.447,1,1v40C54,63.553,53.552,64,53,64z M32,62h20V24H4v38h20v-9
				c0-2.206,1.794-4,4-4s4,1.794,4,4V62z"/>
		</g>
		<g>
			<rect x="3" y="30" style="fill:#222829;" width="50" height="2"/>
		</g>
		<g>
			<rect x="24" y="27" style="fill:#222829;" width="2" height="12"/>
		</g>
		<g>
			<rect x="30" y="27" style="fill:#222829;" width="2" height="12"/>
		</g>
		<g>
			<rect x="22" y="26" style="fill:#222829;" width="12" height="2"/>
		</g>
		<g>
			<rect x="6" y="34" style="fill:#222829;" width="2" height="26"/>
		</g>
		<g>
			<rect x="48" y="34" style="fill:#222829;" width="2" height="26"/>
		</g>
		<g>
			<path style="fill:none;stroke:#222829;stroke-width:2;stroke-linejoin:round;stroke-miterlimit:10;" d="M25,6"/>
		</g>
		<g>
			<g>
				<path style="fill:#222829;" d="M16,18h-5c-5.804,0-9-3.196-9-9c0-3.863,1.037-9,10-9h8c5.378,0,6,3.424,6,6
					C26,10.107,21.777,18,16,18z M12,2C4.618,2,4,5.613,4,9c0,4.71,2.29,7,7,7h5c4.378,0,8-6.621,8-10c0-2.533-0.654-4-4-4H12z"/>
			</g>
		</g>
		<g>
			<rect y="8" style="fill:#222829;" width="3" height="2"/>
		</g>
		<g>
			<path style="fill:none;stroke:#222829;stroke-width:2;stroke-linejoin:round;stroke-miterlimit:10;" d="M31,6"/>
		</g>
		<g>
			<g>
				<path style="fill:#222829;" d="M45,18h-5c-5.777,0-10-7.893-10-12c0-2.576,0.622-6,6-6h7c9.571,0,11,5.639,11,9
					C54,14.804,50.804,18,45,18z M36,2c-3.346,0-4,1.467-4,4c0,3.379,3.622,10,8,10h5c4.71,0,7-2.29,7-7c0-4.645-3.028-7-9-7H36z"/>
			</g>
		</g>
		<g>
			<rect x="53" y="8" style="fill:#222829;" width="3" height="2"/>
		</g>
		<g>
			<rect x="20" style="fill:#222829;" width="16" height="2"/>
		</g>
		<g>
			<rect x="25" y="5" style="fill:#222829;" width="6" height="2"/>
		</g>
	</g>
</g>
</svg>
