<?xml version="1.0" encoding="iso-8859-1"?>
<!-- Generator: Adobe Illustrator 17.0.0, SVG Export Plug-In . SVG Version: 6.00 Build 0)  -->
<!DOCTYPE svg PUBLIC "-//W3C//DTD SVG 1.1//EN" "http://www.w3.org/Graphics/SVG/1.1/DTD/svg11.dtd">
<svg version="1.1" id="_x32_5_x5F_swimming_x5F_pool"
	 xmlns="http://www.w3.org/2000/svg" xmlns:xlink="http://www.w3.org/1999/xlink" x="0px" y="0px" width="64px" height="60px"
	 viewBox="0 0 64 60" style="enable-background:new 0 0 64 60;" xml:space="preserve">
<g>
	<g>
		<g>
			<rect y="14" style="fill:#222829;" width="64" height="2"/>
		</g>
		<g>
			<g>
				<path style="fill:#222829;" d="M25,38h-2V6c0-2.206-1.794-4-4-4s-4,1.794-4,4v9h-2V6c0-3.309,2.691-6,6-6s6,2.691,6,6V38z"/>
			</g>
			<g>
				<path style="fill:#222829;" d="M45,38h-2V6c0-2.206-1.794-4-4-4s-4,1.794-4,4v9h-2V6c0-3.309,2.691-6,6-6s6,2.691,6,6V38z"/>
			</g>
			<g>
				<rect x="24" y="20" style="fill:#222829;" width="20" height="2"/>
			</g>
			<g>
				<rect x="24" y="26" style="fill:#222829;" width="20" height="2"/>
			</g>
			<g>
				<rect x="24" y="32" style="fill:#222829;" width="20" height="2"/>
			</g>
		</g>
		<g>
			<path style="fill:#222829;" d="M64,44c-2.084,0-3.924-1.068-5-2.687C57.924,42.932,56.084,44,54,44s-3.924-1.068-5-2.687
				C47.924,42.932,46.084,44,44,44s-3.924-1.068-5-2.687C37.924,42.932,36.084,44,34,44s-3.924-1.068-5-2.687
				C27.924,42.932,26.084,44,24,44s-3.924-1.068-5-2.687C17.924,42.932,16.084,44,14,44s-3.924-1.068-5-2.687
				C7.924,42.932,6.084,44,4,44v-2c2.206,0,4-1.794,4-4h2c0,2.206,1.794,4,4,4s4-1.794,4-4h2c0,2.206,1.794,4,4,4s4-1.794,4-4h2
				c0,2.206,1.794,4,4,4s4-1.794,4-4h2c0,2.206,1.794,4,4,4s4-1.794,4-4h2c0,2.206,1.794,4,4,4s4-1.794,4-4h2c0,2.206,1.794,4,4,4
				V44z"/>
		</g>
		<g>
			<path style="fill:#222829;" d="M60,52c-2.084,0-3.924-1.068-5-2.687C53.924,50.932,52.084,52,50,52s-3.924-1.068-5-2.687
				C43.924,50.932,42.084,52,40,52s-3.924-1.068-5-2.687C33.924,50.932,32.084,52,30,52s-3.924-1.068-5-2.687
				C23.924,50.932,22.084,52,20,52s-3.924-1.068-5-2.687C13.924,50.932,12.084,52,10,52s-3.924-1.068-5-2.687
				C3.924,50.932,2.084,52,0,52v-2c2.206,0,4-1.794,4-4h2c0,2.206,1.794,4,4,4s4-1.794,4-4h2c0,2.206,1.794,4,4,4s4-1.794,4-4h2
				c0,2.206,1.794,4,4,4s4-1.794,4-4h2c0,2.206,1.794,4,4,4s4-1.794,4-4h2c0,2.206,1.794,4,4,4s4-1.794,4-4h2c0,2.206,1.794,4,4,4
				V52z"/>
		</g>
		<g>
			<path style="fill:#222829;" d="M64,60c-2.084,0-3.924-1.068-5-2.687C57.924,58.932,56.084,60,54,60s-3.924-1.068-5-2.687
				C47.924,58.932,46.084,60,44,60s-3.924-1.068-5-2.687C37.924,58.932,36.084,60,34,60s-3.924-1.068-5-2.687
				C27.924,58.932,26.084,60,24,60s-3.924-1.068-5-2.687C17.924,58.932,16.084,60,14,60s-3.924-1.068-5-2.687
				C7.924,58.932,6.084,60,4,60v-2c2.206,0,4-1.794,4-4h2c0,2.206,1.794,4,4,4s4-1.794,4-4h2c0,2.206,1.794,4,4,4s4-1.794,4-4h2
				c0,2.206,1.794,4,4,4s4-1.794,4-4h2c0,2.206,1.794,4,4,4s4-1.794,4-4h2c0,2.206,1.794,4,4,4s4-1.794,4-4h2c0,2.206,1.794,4,4,4
				V60z"/>
		</g>
		<g>
			<rect x="47" y="20" style="fill:#222829;" width="17" height="2"/>
		</g>
		<g>
			<rect y="20" style="fill:#222829;" width="21" height="2"/>
		</g>
	</g>
</g>
</svg>
