<?xml version="1.0" encoding="iso-8859-1"?>
<!-- Generator: Adobe Illustrator 17.0.0, SVG Export Plug-In . SVG Version: 6.00 Build 0)  -->
<!DOCTYPE svg PUBLIC "-//W3C//DTD SVG 1.1//EN" "http://www.w3.org/Graphics/SVG/1.1/DTD/svg11.dtd">
<svg version="1.1" id="_x32_5_x5F_travel_x5F_the_x5F_world"
	 xmlns="http://www.w3.org/2000/svg" xmlns:xlink="http://www.w3.org/1999/xlink" x="0px" y="0px" width="54px" height="64px"
	 viewBox="0 0 54 64" style="enable-background:new 0 0 54 64;" xml:space="preserve">
<g>
	<g>
		<g>
			<path style="fill:#222829;" d="M27,64C12.112,64,0,51.888,0,37s12.112-27,27-27v2C13.215,12,2,23.215,2,37s11.215,25,25,25
				s25-11.215,25-25c0-4.521-1.219-8.95-3.526-12.81l1.717-1.025C52.683,27.334,54,32.118,54,37C54,51.888,41.888,64,27,64z"/>
		</g>
		<g>
			<rect x="26" y="14" style="fill:#222829;" width="2" height="49"/>
		</g>
		<g>
			<rect x="1" y="36" style="fill:#222829;" width="52" height="2"/>
		</g>
		<g>
			<path style="fill:#222829;" d="M27,64c-7.851,0-14-11.859-14-27s6.149-27,14-27v2c-6.505,0-12,11.448-12,25s5.495,25,12,25
				s12-11.448,12-25h2C41,52.141,34.851,64,27,64z"/>
		</g>
		<g>
			<rect x="6" y="21" style="fill:#222829;" width="23" height="2"/>
		</g>
		<g>
			<rect x="6" y="51" style="fill:#222829;" width="42" height="2"/>
		</g>
		<g>
			<path style="fill:#222829;" d="M40,38c-0.29,0-0.566-0.126-0.756-0.345C38.704,37.031,26,22.278,26,14c0-7.72,6.28-14,14-14
				s14,6.28,14,14c0,8.278-12.704,23.031-13.244,23.655C40.566,37.874,40.29,38,40,38z M40,2c-6.617,0-12,5.383-12,12
				c0,6.455,9.257,18.13,12,21.445C42.742,32.129,52,20.452,52,14C52,7.383,46.617,2,40,2z"/>
		</g>
		<g>
			<path style="fill:#222829;" d="M40,23c-4.962,0-9-4.037-9-9s4.038-9,9-9s9,4.037,9,9S44.962,23,40,23z M40,7c-3.86,0-7,3.141-7,7
				s3.14,7,7,7s7-3.141,7-7S43.86,7,40,7z"/>
		</g>
	</g>
</g>
</svg>
