<?xml version="1.0" encoding="iso-8859-1"?>
<!-- Generator: Adobe Illustrator 17.0.0, SVG Export Plug-In . SVG Version: 6.00 Build 0)  -->
<!DOCTYPE svg PUBLIC "-//W3C//DTD SVG 1.1//EN" "http://www.w3.org/Graphics/SVG/1.1/DTD/svg11.dtd">
<svg version="1.1" id="_x32_5_x5F_tourist_x5F_travel_x5F_bag"
	 xmlns="http://www.w3.org/2000/svg" xmlns:xlink="http://www.w3.org/1999/xlink" x="0px" y="0px" width="64px" height="64px"
	 viewBox="0 0 64 64" style="enable-background:new 0 0 64 64;" xml:space="preserve">
<g>
	<g>
		<g>
			<path style="fill:#222829;" d="M61,60H3c-1.654,0-3-1.346-3-3V13c0-1.654,1.346-3,3-3h58c1.654,0,3,1.346,3,3v44
				C64,58.654,62.654,60,61,60z M3,12c-0.551,0-1,0.448-1,1v44c0,0.552,0.449,1,1,1h58c0.551,0,1-0.448,1-1V13c0-0.552-0.449-1-1-1
				H3z"/>
		</g>
		<g>
			<rect x="52" y="18" style="fill:#222829;" width="2" height="41"/>
		</g>
		<g>
			<rect x="10" y="18" style="fill:#222829;" width="2" height="41"/>
		</g>
		<g>
			<g>
				<path style="fill:#222829;" d="M45,11h-2V3c-0.012-0.449-0.195-1-1-1H22c-0.805,0-0.988,0.55-1,1.012V11h-2V3
					c0-1.206,0.799-3,3-3h20c2.2,0,3,1.794,3,2.999V11z"/>
			</g>
			<g>
				<rect x="20" y="4" style="fill:#222829;" width="24" height="2"/>
			</g>
		</g>
		<g>
			<rect x="57" y="54" style="fill:#222829;" width="2" height="2"/>
		</g>
		<g>
			<rect x="5" y="54" style="fill:#222829;" width="2" height="2"/>
		</g>
		<g>
			<path style="fill:#222829;" d="M16,64H6c-0.552,0-1-0.447-1-1v-4c0-0.553,0.448-1,1-1h10c0.552,0,1,0.447,1,1v4
				C17,63.553,16.552,64,16,64z M7,62h8v-2H7V62z"/>
		</g>
		<g>
			<path style="fill:#222829;" d="M58,64H48c-0.552,0-1-0.447-1-1v-4c0-0.553,0.448-1,1-1h10c0.552,0,1,0.447,1,1v4
				C59,63.553,58.552,64,58,64z M49,62h8v-2h-8V62z"/>
		</g>
		<g>
			<rect y="62" style="fill:#222829;" width="64" height="2"/>
		</g>
		<g>
			<path style="fill:#222829;" d="M16,16H6c-0.552,0-1-0.447-1-1v-4c0-0.553,0.448-1,1-1h10c0.552,0,1,0.447,1,1v4
				C17,15.553,16.552,16,16,16z M7,14h8v-2H7V14z"/>
		</g>
		<g>
			<path style="fill:#222829;" d="M58,16H48c-0.552,0-1-0.447-1-1v-4c0-0.553,0.448-1,1-1h10c0.552,0,1,0.447,1,1v4
				C59,15.553,58.552,16,58,16z M49,14h8v-2h-8V14z"/>
		</g>
		<g>
			<rect x="19" y="14" style="fill:#222829;" width="26" height="2"/>
		</g>
		<g>
			<rect x="14" y="54" style="fill:#222829;" width="36" height="2"/>
		</g>
		<g>
			<rect x="15" y="18" style="fill:#222829;" width="2" height="4"/>
		</g>
		<g>
			<rect x="19" y="18" style="fill:#222829;" width="2" height="4"/>
		</g>
		<g>
			<rect x="23" y="18" style="fill:#222829;" width="2" height="4"/>
		</g>
		<g>
			<rect x="27" y="18" style="fill:#222829;" width="2" height="4"/>
		</g>
		<g>
			<rect x="31" y="18" style="fill:#222829;" width="2" height="4"/>
		</g>
		<g>
			<rect x="35" y="18" style="fill:#222829;" width="2" height="4"/>
		</g>
		<g>
			<rect x="39" y="18" style="fill:#222829;" width="2" height="4"/>
		</g>
		<g>
			<rect x="43" y="18" style="fill:#222829;" width="2" height="4"/>
		</g>
		<g>
			<rect x="47" y="18" style="fill:#222829;" width="2" height="4"/>
		</g>
	</g>
</g>
</svg>
