<?xml version="1.0" encoding="iso-8859-1"?>
<!-- Generator: Adobe Illustrator 17.0.0, SVG Export Plug-In . SVG Version: 6.00 Build 0)  -->
<!DOCTYPE svg PUBLIC "-//W3C//DTD SVG 1.1//EN" "http://www.w3.org/Graphics/SVG/1.1/DTD/svg11.dtd">
<svg version="1.1" id="_x32_5_x5F_vacation_x5F_dates"
	 xmlns="http://www.w3.org/2000/svg" xmlns:xlink="http://www.w3.org/1999/xlink" x="0px" y="0px" width="64px" height="60px"
	 viewBox="0 0 64 60" style="enable-background:new 0 0 64 60;" xml:space="preserve">
<g>
	<g>
		<g>
			<path style="fill:#222829;" d="M63,56H1c-0.552,0-1-0.447-1-1V11c0-0.553,0.448-1,1-1h62c0.552,0,1,0.447,1,1v44
				C64,55.553,63.552,56,63,56z M2,54h60V12H2V54z"/>
		</g>
		<g>
			<path style="fill:#222829;" d="M64,8h-2V2H2v6H0V1c0-0.553,0.448-1,1-1h62c0.552,0,1,0.447,1,1V8z"/>
		</g>
		<g>
			<rect x="5" y="4" style="fill:#222829;" width="54" height="2"/>
		</g>
		<g>
			<path style="fill:#222829;" d="M26,24h-4c-0.552,0-1-0.447-1-1v-4c0-0.553,0.448-1,1-1h4c0.552,0,1,0.447,1,1v4
				C27,23.553,26.552,24,26,24z M23,22h2v-2h-2V22z"/>
		</g>
		<g>
			<path style="fill:#222829;" d="M34,24h-4c-0.552,0-1-0.447-1-1v-4c0-0.553,0.448-1,1-1h4c0.552,0,1,0.447,1,1v4
				C35,23.553,34.552,24,34,24z M31,22h2v-2h-2V22z"/>
		</g>
		<g>
			<path style="fill:#222829;" d="M10,24H6c-0.552,0-1-0.447-1-1v-4c0-0.553,0.448-1,1-1h4c0.552,0,1,0.447,1,1v4
				C11,23.553,10.552,24,10,24z M7,22h2v-2H7V22z"/>
		</g>
		<g>
			<path style="fill:#222829;" d="M18,24h-4c-0.552,0-1-0.447-1-1v-4c0-0.553,0.448-1,1-1h4c0.552,0,1,0.447,1,1v4
				C19,23.553,18.552,24,18,24z M15,22h2v-2h-2V22z"/>
		</g>
		<g>
			<path style="fill:#222829;" d="M42,24h-4c-0.552,0-1-0.447-1-1v-4c0-0.553,0.448-1,1-1h4c0.552,0,1,0.447,1,1v4
				C43,23.553,42.552,24,42,24z M39,22h2v-2h-2V22z"/>
		</g>
		<g>
			<path style="fill:#222829;" d="M50,24h-4c-0.552,0-1-0.447-1-1v-4c0-0.553,0.448-1,1-1h4c0.552,0,1,0.447,1,1v4
				C51,23.553,50.552,24,50,24z M47,22h2v-2h-2V22z"/>
		</g>
		<g>
			<path style="fill:#222829;" d="M58,24h-4c-0.552,0-1-0.447-1-1v-4c0-0.553,0.448-1,1-1h4c0.552,0,1,0.447,1,1v4
				C59,23.553,58.552,24,58,24z M55,22h2v-2h-2V22z"/>
		</g>
		<g>
			<path style="fill:#222829;" d="M10,32H6c-0.552,0-1-0.447-1-1v-4c0-0.553,0.448-1,1-1h4c0.552,0,1,0.447,1,1v4
				C11,31.553,10.552,32,10,32z M7,30h2v-2H7V30z"/>
		</g>
		<g>
			<path style="fill:#222829;" d="M18,32h-4c-0.552,0-1-0.447-1-1v-4c0-0.553,0.448-1,1-1h4c0.552,0,1,0.447,1,1v4
				C19,31.553,18.552,32,18,32z M15,30h2v-2h-2V30z"/>
		</g>
		<g>
			<path style="fill:#222829;" d="M26,48h-4c-0.552,0-1-0.447-1-1v-4c0-0.553,0.448-1,1-1h4c0.552,0,1,0.447,1,1v4
				C27,47.553,26.552,48,26,48z M23,46h2v-2h-2V46z"/>
		</g>
		<g>
			<path style="fill:#222829;" d="M34,48h-4c-0.552,0-1-0.447-1-1v-4c0-0.553,0.448-1,1-1h4c0.552,0,1,0.447,1,1v4
				C35,47.553,34.552,48,34,48z M31,46h2v-2h-2V46z"/>
		</g>
		<g>
			<path style="fill:#222829;" d="M10,48H6c-0.552,0-1-0.447-1-1v-4c0-0.553,0.448-1,1-1h4c0.552,0,1,0.447,1,1v4
				C11,47.553,10.552,48,10,48z M7,46h2v-2H7V46z"/>
		</g>
		<g>
			<path style="fill:#222829;" d="M18,48h-4c-0.552,0-1-0.447-1-1v-4c0-0.553,0.448-1,1-1h4c0.552,0,1,0.447,1,1v4
				C19,47.553,18.552,48,18,48z M15,46h2v-2h-2V46z"/>
		</g>
		<g>
			<path style="fill:#222829;" d="M42,48h-4c-0.552,0-1-0.447-1-1v-4c0-0.553,0.448-1,1-1h4c0.552,0,1,0.447,1,1v4
				C43,47.553,42.552,48,42,48z M39,46h2v-2h-2V46z"/>
		</g>
		<g>
			<path style="fill:#222829;" d="M50,48h-4c-0.552,0-1-0.447-1-1v-4c0-0.553,0.448-1,1-1h4c0.552,0,1,0.447,1,1v4
				C51,47.553,50.552,48,50,48z M47,46h2v-2h-2V46z"/>
		</g>
		<g>
			<path style="fill:#222829;" d="M58,48h-4c-0.552,0-1-0.447-1-1v-4c0-0.553,0.448-1,1-1h4c0.552,0,1,0.447,1,1v4
				C59,47.553,58.552,48,58,48z M55,46h2v-2h-2V46z"/>
		</g>
		<g>
			<path style="fill:#222829;" d="M50,40h-4c-0.552,0-1-0.447-1-1v-4c0-0.553,0.448-1,1-1h4c0.552,0,1,0.447,1,1v4
				C51,39.553,50.552,40,50,40z M47,38h2v-2h-2V38z"/>
		</g>
		<g>
			<path style="fill:#222829;" d="M58,40h-4c-0.552,0-1-0.447-1-1v-4c0-0.553,0.448-1,1-1h4c0.552,0,1,0.447,1,1v4
				C59,39.553,58.552,40,58,40z M55,38h2v-2h-2V38z"/>
		</g>
		<g>
			<rect y="58" style="fill:#222829;" width="64" height="2"/>
		</g>
		<g>
			<rect x="23" y="28" style="fill:#222829;" width="2" height="2"/>
		</g>
		<g>
			<rect x="31" y="28" style="fill:#222829;" width="2" height="2"/>
		</g>
		<g>
			<rect x="39" y="28" style="fill:#222829;" width="2" height="2"/>
		</g>
		<g>
			<rect x="47" y="28" style="fill:#222829;" width="2" height="2"/>
		</g>
		<g>
			<rect x="55" y="28" style="fill:#222829;" width="2" height="2"/>
		</g>
		<g>
			<rect x="7" y="36" style="fill:#222829;" width="2" height="2"/>
		</g>
		<g>
			<rect x="15" y="36" style="fill:#222829;" width="2" height="2"/>
		</g>
		<g>
			<rect x="23" y="36" style="fill:#222829;" width="2" height="2"/>
		</g>
		<g>
			<rect x="31" y="36" style="fill:#222829;" width="2" height="2"/>
		</g>
		<g>
			<rect x="39" y="36" style="fill:#222829;" width="2" height="2"/>
		</g>
	</g>
</g>
</svg>
