<?xml version="1.0" encoding="iso-8859-1"?>
<!-- Generator: Adobe Illustrator 17.0.0, SVG Export Plug-In . SVG Version: 6.00 Build 0)  -->
<!DOCTYPE svg PUBLIC "-//W3C//DTD SVG 1.1//EN" "http://www.w3.org/Graphics/SVG/1.1/DTD/svg11.dtd">
<svg version="1.1" id="_x32_5_x5F_yacht_x5F_boat_x5F_trip"
	 xmlns="http://www.w3.org/2000/svg" xmlns:xlink="http://www.w3.org/1999/xlink" x="0px" y="0px" width="64px" height="64.001px"
	 viewBox="0 0 64 64.001" style="enable-background:new 0 0 64 64.001;" xml:space="preserve">
<g>
	<g>
		<g>
			<g>
				<path style="fill:#222829;" d="M49,56.002H1c-0.552,0-1-0.448-1-1.001v-10c0-0.553,0.448-0.999,1-0.999h4.586l1.707-1.707
					C7.48,42.108,7.735,42.002,8,42.002h5.465l3.703-5.555c0.186-0.278,0.498-0.445,0.832-0.445h19c5.623,0,11.062,5,12.402,6H63
					c0.308,0,0.599,0.141,0.788,0.384c0.189,0.242,0.257,0.559,0.182,0.858C63.938,43.372,60.646,56.002,49,56.002z M2,54.002h47
					c4.199,0,7.655-1.859,10.273-5.527c1.194-1.674,1.94-3.473,2.351-4.473H49c-0.265,0-0.519-0.105-0.707-0.292
					c-0.057-0.058-5.786-5.708-11.293-5.708H18.535l-3.703,5.555c-0.186,0.278-0.498,0.445-0.832,0.445H8.414l-1.707,1.707
					C6.52,45.897,6.265,46.002,6,46.002H2V54.002z"/>
			</g>
			<g>
				<path style="fill:#222829;" d="M47,52.002H4v-2h43c4.512,0,8.257-3.671,8.294-3.709l1.413,1.415
					C56.532,47.885,52.353,52.002,47,52.002z"/>
			</g>
			<g>
				<rect x="36" y="37.002" style="fill:#222829;" width="2" height="9"/>
			</g>
			<g>
				<rect x="18" y="42.002" style="fill:#222829;" width="31" height="2"/>
			</g>
		</g>
		<g>
			<path style="fill:#222829;" d="M60,64.001c-2.084,0-3.924-1.068-5-2.687c-1.076,1.618-2.916,2.687-5,2.687s-3.924-1.068-5-2.687
				c-1.076,1.618-2.916,2.687-5,2.687s-3.924-1.068-5-2.687c-1.076,1.618-2.916,2.687-5,2.687s-3.924-1.068-5-2.687
				c-1.076,1.618-2.916,2.687-5,2.687s-3.924-1.068-5-2.687c-1.076,1.618-2.916,2.687-5,2.687s-3.924-1.068-5-2.687
				c-1.076,1.618-2.916,2.687-5,2.687v-2c2.206,0,4-1.999,4-3.999h2c0,2,1.794,4,4,4s4-2,4-4h2c0,2,1.794,4,4,4s4-2,4-4h2
				c0,2,1.794,4,4,4s4-2,4-4h2c0,2,1.794,4,4,4s4-2,4-4h2c0,2,1.794,4,4,4s4-2,4-4h2c0,2,1.794,3.999,4,3.999V64.001z"/>
		</g>
		<g>
			<rect x="14" y="36.002" style="fill:#222829;" width="4" height="2"/>
		</g>
		<g>
			<path style="fill:#222829;" d="M28,37.002h-2V1.001c0-0.404,0.244-0.77,0.617-0.924c0.374-0.157,0.803-0.069,1.09,0.217l32,32
				c0.286,0.286,0.372,0.716,0.217,1.09s-0.52,0.618-0.924,0.618H30v-2h26.586L28,3.415V37.002z"/>
		</g>
		<g>
			<path style="fill:#222829;" d="M24,32.002H8c-0.365,0-0.7-0.199-0.876-0.518s-0.164-0.709,0.031-1.018l19-30l1.689,1.071
				L9.817,30.002H24V32.002z"/>
		</g>
		<g>
			<path style="fill:#222829;" d="M35,22.002h-8c-0.552,0-1-0.448-1-1.001v-6c0-0.553,0.448-0.999,1-0.999h8
				c0.404,0,0.769,0.243,0.924,0.617s0.069,0.803-0.217,1.09l-2.293,2.293l2.293,2.293c0.286,0.286,0.372,0.716,0.217,1.09
				S35.404,22.002,35,22.002z M28,20.002h4.586l-1.293-1.294c-0.391-0.391-0.391-1.023,0-1.414l1.293-1.293H28V20.002z"/>
		</g>
		<g>
			<g>
				<path style="fill:#222829;" d="M53.001,10.002c-0.004,0-0.007,0-0.011,0c-0.455,0-0.85-0.314-0.96-0.755
					C51.996,9.125,51.083,6.001,46,6.001v-2c3.925,0,5.97,1.564,7,2.9c1.03-1.336,3.075-2.9,7-2.9v2
					c-5.083,0-5.996,3.124-6.033,3.256C53.848,9.692,53.452,10.002,53.001,10.002z"/>
			</g>
			<g>
				<rect x="52" y="9.001" style="fill:#222829;" width="2" height="1"/>
			</g>
		</g>
	</g>
</g>
</svg>
