<?xml version="1.0" encoding="iso-8859-1"?>
<!-- Generator: Adobe Illustrator 17.0.0, SVG Export Plug-In . SVG Version: 6.00 Build 0)  -->
<!DOCTYPE svg PUBLIC "-//W3C//DTD SVG 1.1//EN" "http://www.w3.org/Graphics/SVG/1.1/DTD/svg11.dtd">
<svg version="1.1" id="_x32_6_x5F_camping_x5F_tent"
	 xmlns="http://www.w3.org/2000/svg" xmlns:xlink="http://www.w3.org/1999/xlink" x="0px" y="0px" width="64px" height="48.538px"
	 viewBox="0 0 64 48.538" style="enable-background:new 0 0 64 48.538;" xml:space="preserve">
<g>
	<g>
		<g>
			
				<rect x="19" y="-3.841" transform="matrix(0.8429 0.5381 -0.5381 0.8429 16.0787 -6.9853)" style="fill:#222829;" width="2" height="55.758"/>
		</g>
		<g>
			
				<rect x="16.121" y="23.038" transform="matrix(0.538 0.8429 -0.8429 0.538 40.5887 -25.9838)" style="fill:#222829;" width="55.758" height="2"/>
		</g>
		<g>
			<rect y="46.076" style="fill:#222829;" width="64" height="2"/>
		</g>
		<g>
			<rect x="31" y="5.076" style="fill:#222829;" width="2" height="42"/>
		</g>
		<g>
			<path style="fill:#222829;" d="M28,44.076h-2c-0.007,0-0.239-3.769-6-3.769c-0.325,0-0.629-0.042-0.816-0.307
				c-0.188-0.265-0.234-0.546-0.126-0.852l12-33.971l1.886,0.68L21.39,38.366C27.919,39.018,28,44.076,28,44.076z"/>
		</g>
		<g>
			<rect x="35" y="42.538" style="fill:#222829;" width="2" height="2"/>
		</g>
		<g>
			<rect x="35" y="38.538" style="fill:#222829;" width="2" height="2"/>
		</g>
		<g>
			<rect x="35" y="34.538" style="fill:#222829;" width="2" height="2"/>
		</g>
		<g>
			<rect x="35" y="30.538" style="fill:#222829;" width="2" height="2"/>
		</g>
	</g>
</g>
</svg>
