<?xml version="1.0" encoding="iso-8859-1"?>
<!-- Generator: Adobe Illustrator 17.0.0, SVG Export Plug-In . SVG Version: 6.00 Build 0)  -->
<!DOCTYPE svg PUBLIC "-//W3C//DTD SVG 1.1//EN" "http://www.w3.org/Graphics/SVG/1.1/DTD/svg11.dtd">
<svg version="1.1" id="_x32_6_x5F_campfire" xmlns="http://www.w3.org/2000/svg" xmlns:xlink="http://www.w3.org/1999/xlink"
	 x="0px" y="0px" width="64px" height="63.999px" viewBox="0 0 64 63.999" style="enable-background:new 0 0 64 63.999;"
	 xml:space="preserve">
<g>
	<g>
		<g>
			<path style="fill:#222829;" d="M35,38.999c-0.438,0-0.826-0.286-0.955-0.705c-0.13-0.418,0.028-0.872,0.39-1.12
				C34.842,36.893,36,35.891,36,34.999c0-2.171-0.854-3.216-1.938-4.538c-0.67-0.819-1.438-1.759-2.062-3.074
				c-0.624,1.315-1.393,2.255-2.062,3.074C28.854,31.783,28,32.828,28,34.999c0,0.836,1.052,1.824,1.561,2.172
				c0.362,0.248,0.522,0.703,0.394,1.122c-0.13,0.419-0.516,0.706-0.954,0.706c-2.421,0-5.104-1.145-7.179-3.061
				C20.078,34.327,18,31.469,18,26.999c0-6.283,3.348-9.757,6.585-13.116C27.884,10.459,31,7.226,31,0.999
				c0-0.417,0.258-0.79,0.648-0.937c0.388-0.144,0.829-0.036,1.104,0.278l1.454,1.654C40.535,9.176,46,15.377,46,24.999
				C46,32.407,39.849,38.999,35,38.999z M32.843,3.472c-0.723,5.474-3.814,8.683-6.817,11.799C22.927,18.486,20,21.523,20,26.999
				c0,4.991,3.197,8.253,6.349,9.468C26.138,36.021,26,35.527,26,34.999c0-2.886,1.215-4.37,2.39-5.806
				c1.068-1.306,2.174-2.655,2.624-5.358c0.08-0.482,0.497-0.836,0.986-0.836s0.906,0.354,0.986,0.836
				c0.45,2.703,1.556,4.053,2.624,5.358c1.175,1.436,2.39,2.92,2.39,5.806c0,0.396-0.077,0.771-0.204,1.121
				C40.862,34.336,44,30.027,44,24.999C44,16.196,39.088,10.56,32.843,3.472z"/>
		</g>
		<g>
			<path style="fill:#222829;" d="M18.08,49.83l-8.499-3.923c-0.29-0.134-0.499-0.398-0.562-0.712l-1-5
				c-0.095-0.473,0.161-0.945,0.609-1.125l5-2c0.255-0.103,0.54-0.095,0.79,0.021l14.082,6.498l-0.838,1.816l-13.691-6.318
				l-3.828,1.531l0.737,3.687l8.037,3.709L18.08,49.83z"/>
		</g>
		<g>
			<path style="fill:#222829;" d="M49,63.999c-0.144,0-0.286-0.031-0.419-0.092l-12.75-5.885l0.838-1.816l12.359,5.705l3.828-1.531
				l-0.737-3.687L45.417,53.6l0.838-1.816l7.164,3.308c0.29,0.134,0.499,0.398,0.562,0.712l1,5c0.095,0.473-0.161,0.945-0.609,1.125
				l-5,2C49.252,63.976,49.126,63.999,49,63.999z"/>
		</g>
		<g>
			<path style="fill:#222829;" d="M15,63.999c-0.126,0-0.252-0.023-0.371-0.071l-5-2c-0.448-0.18-0.704-0.652-0.609-1.125l1-5
				c0.062-0.313,0.271-0.578,0.562-0.712l39-18c0.25-0.113,0.536-0.122,0.79-0.021l5,2c0.448,0.18,0.704,0.652,0.609,1.125l-1,5
				c-0.062,0.313-0.271,0.578-0.562,0.712l-39,18C15.286,63.968,15.144,63.999,15,63.999z M11.144,60.38l3.828,1.531l38.147-17.607
				l0.737-3.686l-3.828-1.531L11.881,56.694L11.144,60.38z"/>
		</g>
		<g>
			<rect y="61.998" style="fill:#222829;" width="64" height="2"/>
		</g>
	</g>
</g>
</svg>
