<?xml version="1.0" encoding="iso-8859-1"?>
<!-- Generator: Adobe Illustrator 17.0.0, SVG Export Plug-In . SVG Version: 6.00 Build 0)  -->
<!DOCTYPE svg PUBLIC "-//W3C//DTD SVG 1.1//EN" "http://www.w3.org/Graphics/SVG/1.1/DTD/svg11.dtd">
<svg version="1.1" id="_x32_6_x5F_forest_x5F_hut" xmlns="http://www.w3.org/2000/svg" xmlns:xlink="http://www.w3.org/1999/xlink"
	 x="0px" y="0px" width="64px" height="58px" viewBox="0 0 64 58" style="enable-background:new 0 0 64 58;" xml:space="preserve">
<g>
	<g>
		<g>
			<path style="fill:#222829;" d="M6,58c-2.206,0-4-1.794-4-4s1.794-4,4-4s4,1.794,4,4S8.206,58,6,58z M6,52c-1.103,0-2,0.897-2,2
				s0.897,2,2,2s2-0.897,2-2S7.103,52,6,52z"/>
		</g>
		<g>
			<path style="fill:#222829;" d="M6,52c-2.206,0-4-1.794-4-4s1.794-4,4-4s4,1.794,4,4S8.206,52,6,52z M6,46c-1.103,0-2,0.897-2,2
				s0.897,2,2,2s2-0.897,2-2S7.103,46,6,46z"/>
		</g>
		<g>
			<path style="fill:#222829;" d="M6,46c-2.206,0-4-1.794-4-4s1.794-4,4-4s4,1.794,4,4S8.206,46,6,46z M6,40c-1.103,0-2,0.897-2,2
				s0.897,2,2,2s2-0.897,2-2S7.103,40,6,40z"/>
		</g>
		<g>
			<rect y="56.001" style="fill:#222829;" width="64" height="2"/>
		</g>
		<g>
			<rect x="33" y="50.001" style="fill:#222829;" width="25" height="2"/>
		</g>
		<g>
			<rect x="6" y="50.001" style="fill:#222829;" width="9" height="2"/>
		</g>
		<g>
			<rect x="49" y="44.001" style="fill:#222829;" width="9" height="2"/>
		</g>
		<g>
			<rect x="6" y="44.001" style="fill:#222829;" width="9" height="2"/>
		</g>
		<g>
			<path style="fill:#222829;" d="M6,40c-2.206,0-4-1.794-4-4s1.794-4,4-4s4,1.794,4,4S8.206,40,6,40z M6,34c-1.103,0-2,0.897-2,2
				s0.897,2,2,2s2-0.897,2-2S7.103,34,6,34z"/>
		</g>
		<g>
			<path style="fill:#222829;" d="M6,34c-2.206,0-4-1.794-4-4s1.794-4,4-4s4,1.794,4,4S8.206,34,6,34z M6,28c-1.103,0-2,0.897-2,2
				s0.897,2,2,2s2-0.897,2-2S7.103,28,6,28z"/>
		</g>
		<g>
			<path style="fill:#222829;" d="M58,58c-2.206,0-4-1.794-4-4s1.794-4,4-4s4,1.794,4,4S60.206,58,58,58z M58,52
				c-1.103,0-2,0.897-2,2s0.897,2,2,2s2-0.897,2-2S59.103,52,58,52z"/>
		</g>
		<g>
			<path style="fill:#222829;" d="M58,52c-2.206,0-4-1.794-4-4s1.794-4,4-4s4,1.794,4,4S60.206,52,58,52z M58,46
				c-1.103,0-2,0.897-2,2s0.897,2,2,2s2-0.897,2-2S59.103,46,58,46z"/>
		</g>
		<g>
			<path style="fill:#222829;" d="M58,46c-2.206,0-4-1.794-4-4s1.794-4,4-4s4,1.794,4,4S60.206,46,58,46z M58,40
				c-1.103,0-2,0.897-2,2s0.897,2,2,2s2-0.897,2-2S59.103,40,58,40z"/>
		</g>
		<g>
			<path style="fill:#222829;" d="M58,40c-2.206,0-4-1.794-4-4s1.794-4,4-4s4,1.794,4,4S60.206,40,58,40z M58,34
				c-1.103,0-2,0.897-2,2s0.897,2,2,2s2-0.897,2-2S59.103,34,58,34z"/>
		</g>
		<g>
			<path style="fill:#222829;" d="M58,34c-2.206,0-4-1.794-4-4s1.794-4,4-4s4,1.794,4,4S60.206,34,58,34z M58,28
				c-1.103,0-2,0.897-2,2s0.897,2,2,2s2-0.897,2-2S59.103,28,58,28z"/>
		</g>
		<g>
			<rect x="6" y="32.001" style="fill:#222829;" width="52" height="2"/>
		</g>
		<g>
			<rect x="49" y="38.001" style="fill:#222829;" width="9" height="2"/>
		</g>
		<g>
			<rect x="6" y="38.001" style="fill:#222829;" width="9" height="2"/>
		</g>
		<g>
			<path style="fill:#222829;" d="M31,57.001c0,0.552-0.448,1-1,1H18c-0.552,0-1-0.448-1-1v-20c0-0.552,0.448-1,1-1h12
				c0.552,0,1,0.448,1,1V57.001z M19,56.001h10v-18H19V56.001z"/>
		</g>
		<g>
			<path style="fill:#222829;" d="M47,46.001c0,0.552-0.448,1-1,1H34c-0.552,0-1-0.448-1-1v-9c0-0.552,0.448-1,1-1h12
				c0.552,0,1,0.448,1,1V46.001z M35,45.001h10v-7H35V45.001z"/>
		</g>
		<g>
			<path style="fill:#222829;" d="M57.41,27.808L32,9.239L6.59,27.808l-1.18-1.615l26-19c0.352-0.256,0.828-0.256,1.18,0l26,19
				L57.41,27.808z"/>
		</g>
		<g>
			<path style="fill:#222829;" d="M64,26.001h-2v-1.498L32,2.246L2,24.503v1.498H0v-2c0-0.316,0.15-0.614,0.404-0.803l31-23
				c0.354-0.264,0.838-0.264,1.191,0l31,23C63.85,23.386,64,23.684,64,24V26.001z"/>
		</g>
		<g>
			<rect x="6" y="26.001" style="fill:#222829;" width="52" height="2"/>
		</g>
		<g>
			<rect x="31" y="1.001" style="fill:#222829;" width="2" height="7"/>
		</g>
		<g>
			<path style="fill:#222829;" d="M32,24c-2.757,0-5-2.243-5-5s2.243-5,5-5s5,2.243,5,5S34.757,24,32,24z M32,16
				c-1.654,0-3,1.346-3,3s1.346,3,3,3s3-1.346,3-3S33.654,16,32,16z"/>
		</g>
		<g>
			<rect x="25" y="45" style="fill:#222829;" width="2" height="2"/>
		</g>
		<g>
			<path style="fill:#222829;" d="M53,16.001h-2v-12h-4v3h-2V3c0-0.553,0.448-1,1-1h6c0.552,0,1,0.447,1,1V16.001z"/>
		</g>
		<g>
			<rect x="39" y="37.001" style="fill:#222829;" width="2" height="9"/>
		</g>
	</g>
</g>
</svg>
