<?xml version="1.0" encoding="iso-8859-1"?>
<!-- Generator: Adobe Illustrator 17.0.0, SVG Export Plug-In . SVG Version: 6.00 Build 0)  -->
<!DOCTYPE svg PUBLIC "-//W3C//DTD SVG 1.1//EN" "http://www.w3.org/Graphics/SVG/1.1/DTD/svg11.dtd">
<svg version="1.1" id="_x32_6_x5F_food_x5F_stash" xmlns="http://www.w3.org/2000/svg" xmlns:xlink="http://www.w3.org/1999/xlink"
	 x="0px" y="0px" width="60px" height="64px" viewBox="0 0 60 64" style="enable-background:new 0 0 60 64;" xml:space="preserve">
<g>
	<g>
		<g>
			<path style="fill:#222829;" d="M39,64H5c-2.757,0-5-2.243-5-5V5c0-2.757,2.243-5,5-5h34c2.757,0,5,2.243,5,5v16h-2V5
				c0-1.654-1.346-3-3-3H5C3.346,2,2,3.346,2,5v54c0,1.654,1.346,3,3,3h34c1.654,0,3-1.346,3-3V34h2v25C44,61.757,41.757,64,39,64z"
				/>
		</g>
		<g>
			<path style="fill:#222829;" d="M40,21h-2V7c0-0.552-0.449-1-1-1H7C6.449,6,6,6.448,6,7v14H4V7c0-1.654,1.346-3,3-3h30
				c1.654,0,3,1.346,3,3V21z"/>
		</g>
		<g>
			<path style="fill:#222829;" d="M37,60H7c-1.654,0-3-1.346-3-3V29h2v28c0,0.552,0.449,1,1,1h30c0.551,0,1-0.448,1-1V34h2v23
				C40,58.654,38.654,60,37,60z"/>
		</g>
		<g>
			<path style="fill:#222829;" d="M10,35v-2c2.206,0,4-1.794,4-4s-1.794-4-4-4s-4,1.794-4,4H4c0-3.309,2.691-6,6-6s6,2.691,6,6
				S13.309,35,10,35z"/>
		</g>
		<g>
			<path style="fill:#222829;" d="M44,35v-2c2.206,0,4-1.794,4-4s-1.794-4-4-4v-2c3.309,0,6,2.691,6,6S47.309,35,44,35z"/>
		</g>
		<g>
			<rect x="10" y="33" style="fill:#222829;" width="34" height="2"/>
		</g>
		<g>
			<rect x="10" y="23" style="fill:#222829;" width="34" height="2"/>
		</g>
		<g>
			<path style="fill:#222829;" d="M57,35h-2c-1.654,0-3-1.346-3-3h-1v-2h2c0.552,0,1,0.447,1,1v1c0,0.552,0.449,1,1,1h2
				c0.551,0,1-0.448,1-1v-6c0-0.552-0.449-1-1-1h-2c-0.551,0-1,0.448-1,1v1c0,0.553-0.448,1-1,1h-4v-2h3c0-1.654,1.346-3,3-3h2
				c1.654,0,3,1.346,3,3v6C60,33.654,58.654,35,57,35z"/>
		</g>
		<g>
			<path style="fill:#222829;" d="M20,21h-2c0-3.471-2.691-8.135-4.049-10.269C12.587,12.668,10,16.885,10,21H8
				c0-6.29,5.018-12.384,5.232-12.641c0.199-0.236,0.505-0.375,0.805-0.358c0.31,0.012,0.597,0.166,0.777,0.418
				C15.025,8.715,20,15.74,20,21z"/>
		</g>
		<g>
			<rect x="14" y="18" style="fill:#222829;" width="2" height="2"/>
		</g>
		<g>
			<path style="fill:#222829;" d="M28,21h-2c0-3.471-2.692-8.137-4.05-10.27c-0.841,1.192-2.146,3.251-3.022,5.616l-1.876-0.693
				c1.5-4.053,4.071-7.163,4.18-7.294c0.198-0.237,0.495-0.379,0.805-0.358c0.31,0.012,0.597,0.166,0.777,0.418
				C23.025,8.715,28,15.74,28,21z"/>
		</g>
		<g>
			<rect x="22" y="18" style="fill:#222829;" width="2" height="2"/>
		</g>
		<g>
			<path style="fill:#222829;" d="M36,21h-2c0-3.471-2.692-8.137-4.05-10.27c-0.841,1.192-2.146,3.251-3.022,5.616l-1.876-0.693
				c1.5-4.053,4.071-7.163,4.18-7.294c0.198-0.237,0.494-0.379,0.805-0.358c0.31,0.012,0.597,0.166,0.777,0.418
				C31.025,8.715,36,15.74,36,21z"/>
		</g>
		<g>
			<rect x="30" y="18" style="fill:#222829;" width="2" height="2"/>
		</g>
		<g>
			<rect x="10" y="37" style="fill:#222829;" width="2" height="17"/>
		</g>
		<g>
			<rect x="32" y="37" style="fill:#222829;" width="2" height="17"/>
		</g>
	</g>
</g>
</svg>
