<?xml version="1.0" encoding="iso-8859-1"?>
<!-- Generator: Adobe Illustrator 17.0.0, SVG Export Plug-In . SVG Version: 6.00 Build 0)  -->
<!DOCTYPE svg PUBLIC "-//W3C//DTD SVG 1.1//EN" "http://www.w3.org/Graphics/SVG/1.1/DTD/svg11.dtd">
<svg version="1.1" id="_x32_6_x5F_fishing_x5F_hook"
	 xmlns="http://www.w3.org/2000/svg" xmlns:xlink="http://www.w3.org/1999/xlink" x="0px" y="0px" width="56px" height="64px"
	 viewBox="0 0 56 64" style="enable-background:new 0 0 56 64;" xml:space="preserve">
<g>
	<g>
		<g>
			<path style="fill:#222829;" d="M9,40c-2.206,0-4-1.794-4-4s1.794-4,4-4s4,1.794,4,4S11.206,40,9,40z M9,34c-1.103,0-2,0.897-2,2
				s0.897,2,2,2s2-0.897,2-2S10.103,34,9,34z"/>
		</g>
		<g>
			<path style="fill:#222829;" d="M38,52c-0.268,0-0.525-0.107-0.713-0.299C36.826,51.232,26,40.054,26,26
				S36.826,0.768,37.287,0.299c0.376-0.383,1.051-0.383,1.427,0C39.174,0.768,50,11.946,50,26S39.174,51.232,38.713,51.701
				C38.525,51.893,38.268,52,38,52z M38,2.484C35.604,5.225,28,14.804,28,26c0,11.214,7.603,20.779,10,23.516
				C40.396,46.775,48,37.196,48,26C48,14.786,40.397,5.221,38,2.484z"/>
		</g>
		<g>
			<path style="fill:#222829;" d="M46,64H30c-0.369,0-0.708-0.203-0.882-0.528c-0.174-0.325-0.155-0.72,0.05-1.026l8-12
				c0.371-0.557,1.293-0.557,1.664,0l8,12c0.205,0.307,0.224,0.701,0.05,1.026C46.708,63.797,46.369,64,46,64z M31.869,62h12.263
				L38,52.803L31.869,62z"/>
		</g>
		<g>
			<path style="fill:#222829;" d="M38,19c-3.606,0-7.064-0.787-9.489-2.159l0.985-1.74C31.629,16.308,34.729,17,38,17
				c3.273,0,6.375-0.693,8.507-1.902l0.986,1.74C45.069,18.212,41.609,19,38,19z"/>
		</g>
		<g>
			<rect x="37" y="9" style="fill:#222829;" width="2" height="2"/>
		</g>
		<g>
			<path style="fill:#222829;" d="M55,42c-0.072,0-0.145-0.008-0.217-0.023l-9-2l0.434-1.953l7.151,1.59l-5.297-13.242l1.857-0.742
				l6,15c0.138,0.344,0.073,0.736-0.167,1.019C55.57,41.874,55.29,42,55,42z"/>
		</g>
		<g>
			<path style="fill:#222829;" d="M21,42c-0.29,0-0.57-0.126-0.762-0.353c-0.24-0.282-0.305-0.675-0.167-1.019l6-15l1.857,0.742
				l-5.297,13.242l7.151-1.59l0.434,1.953l-9,2C21.145,41.992,21.072,42,21,42z"/>
		</g>
		<g>
			<path style="fill:#222829;" d="M38,24c-2.223,0-4.347-0.32-6.312-0.951l0.611-1.904c3.484,1.119,7.915,1.119,11.395,0.002
				l0.611,1.904C42.343,23.681,40.222,24,38,24z"/>
		</g>
		<g>
			<path style="fill:#222829;" d="M38,28c-2.223,0-4.347-0.32-6.312-0.951l0.611-1.904c3.484,1.119,7.915,1.119,11.395,0.002
				l0.611,1.904C42.343,27.681,40.222,28,38,28z"/>
		</g>
		<g>
			<path style="fill:#222829;" d="M16,64c-4.411,0-8-3.589-8-8V39h2v17c0,3.309,2.691,6,6,6s6-2.691,6-6v-4.586l-4.293,4.293
				l-1.414-1.414l6-6c0.286-0.287,0.714-0.374,1.09-0.217C23.756,48.23,24,48.596,24,49v7C24,60.411,20.411,64,16,64z"/>
		</g>
		<g>
			<path style="fill:#222829;" d="M10,33H8v-4c0-1.654-1.346-3-3-3c-2.757,0-5-2.243-5-5s2.243-5,5-5h8c1.654,0,3-1.346,3-3
				s-1.346-3-3-3c-2.757,0-5-2.243-5-5V0h2v5c0,1.654,1.346,3,3,3c2.757,0,5,2.243,5,5s-2.243,5-5,5H5c-1.654,0-3,1.346-3,3
				s1.346,3,3,3c2.757,0,5,2.243,5,5V33z"/>
		</g>
	</g>
</g>
</svg>
