<?xml version="1.0" encoding="iso-8859-1"?>
<!-- Generator: Adobe Illustrator 17.0.0, SVG Export Plug-In . SVG Version: 6.00 Build 0)  -->
<!DOCTYPE svg PUBLIC "-//W3C//DTD SVG 1.1//EN" "http://www.w3.org/Graphics/SVG/1.1/DTD/svg11.dtd">
<svg version="1.1" id="_x32_6_x5F_flashlight" xmlns="http://www.w3.org/2000/svg" xmlns:xlink="http://www.w3.org/1999/xlink"
	 x="0px" y="0px" width="64px" height="64px" viewBox="0 0 64 64" style="enable-background:new 0 0 64 64;" xml:space="preserve">
<g>
	<g>
		<g>
			<g>
				<g>
					<path style="fill:#222829;" d="M39.255,35.967l-0.51-1.934l17.316-4.558L34.524,7.938l-4.558,17.316l-1.934-0.51l5-19
						c0.091-0.346,0.36-0.617,0.706-0.711c0.345-0.092,0.714,0.005,0.968,0.259l24,24c0.253,0.253,0.352,0.622,0.259,0.968
						c-0.094,0.346-0.365,0.615-0.711,0.706L39.255,35.967z"/>
				</g>
			</g>
			<g>
				
					<rect x="0.929" y="55" transform="matrix(0.7071 0.7071 -0.7071 0.7071 41.9411 10.7452)" style="fill:#222829;" width="14.142" height="2"/>
			</g>
			<g>
				<path style="fill:#222829;" d="M58.707,30.707l-1.414-1.414L61.586,25L39,2.414l-4.293,4.293l-1.414-1.414l5-5
					c0.391-0.391,1.023-0.391,1.414,0l24,24c0.391,0.391,0.391,1.023,0,1.414L58.707,30.707z"/>
			</g>
			<g>
				<path style="fill:#222829;" d="M8,64c-4.411,0-8-3.589-8-8c0-2.14,0.833-4.218,2.286-5.7l26.007-26.007
					c0.391-0.391,1.023-0.391,1.414,0l10,10c0.391,0.391,0.391,1.023,0,1.414l-26,26C12.261,63.184,10.231,64,8,64z M29,26.414
					L3.707,51.707C2.641,52.795,2,54.403,2,56c0,3.309,2.691,6,6,6c1.689,0,3.212-0.604,4.286-1.7l25.3-25.3L29,26.414z"/>
			</g>
			<g>
				<path style="fill:none;stroke:#222829;stroke-width:2;stroke-linejoin:round;stroke-miterlimit:10;" d="M53,26"/>
			</g>
			<g>
				<path style="fill:none;stroke:#222829;stroke-width:2;stroke-linejoin:round;stroke-miterlimit:10;" d="M58,21"/>
			</g>
			<g>
				
					<rect x="38.5" y="2.964" transform="matrix(0.7071 0.7071 -0.7071 0.7071 16.1655 -26.0269)" style="fill:#222829;" width="2" height="7.071"/>
			</g>
			<g>
				
					<rect x="41.5" y="5.964" transform="matrix(0.7071 0.7071 -0.7071 0.7071 19.1655 -27.2696)" style="fill:#222829;" width="2" height="7.071"/>
			</g>
			<g>
				
					<rect x="44.5" y="8.964" transform="matrix(0.7071 0.7071 -0.7071 0.7071 22.1655 -28.5122)" style="fill:#222829;" width="2" height="7.071"/>
			</g>
			<g>
				
					<rect x="47.5" y="11.964" transform="matrix(0.7071 0.7071 -0.7071 0.7071 25.1655 -29.7548)" style="fill:#222829;" width="2" height="7.071"/>
			</g>
			<g>
				
					<rect x="50.5" y="14.964" transform="matrix(0.7071 0.7071 -0.7071 0.7071 28.1655 -30.9975)" style="fill:#222829;" width="2" height="7.071"/>
			</g>
			<g>
				
					<rect x="53.5" y="17.964" transform="matrix(0.7071 0.7071 -0.7071 0.7071 31.1655 -32.2401)" style="fill:#222829;" width="2" height="7.071"/>
			</g>
			<g>
				
					<rect x="56.5" y="20.964" transform="matrix(0.7071 0.7071 -0.7071 0.7071 34.1655 -33.4828)" style="fill:#222829;" width="2" height="7.071"/>
			</g>
			<g>
				
					<rect x="29.065" y="20.5" transform="matrix(0.7071 0.7071 -0.7071 0.7071 27.6508 -23.7548)" style="fill:#222829;" width="26.87" height="2"/>
			</g>
			<g>
				<path style="fill:#222829;" d="M26,42c-0.256,0-0.512-0.098-0.707-0.293l-3-3c-0.391-0.391-0.391-1.023,0-1.414l6-6
					c0.391-0.391,1.023-0.391,1.414,0l3,3c0.391,0.391,0.391,1.023,0,1.414l-6,6C26.512,41.902,26.256,42,26,42z M24.414,38
					L26,39.586L30.586,35L29,33.414L24.414,38z"/>
			</g>
			<g>
				
					<rect x="25.379" y="35.5" transform="matrix(0.7071 0.7071 -0.7071 0.7071 33.864 -8.7548)" style="fill:#222829;" width="4.243" height="2"/>
			</g>
			<g>
				
					<rect x="48" y="0.586" transform="matrix(0.7071 0.7071 -0.7071 0.7071 15.766 -34.0624)" style="fill:#222829;" width="2" height="2.828"/>
			</g>
			<g>
				
					<rect x="54" y="6.586" transform="matrix(0.7071 0.7071 -0.7071 0.7071 21.766 -36.5477)" style="fill:#222829;" width="2" height="2.828"/>
			</g>
			<g>
				
					<rect x="52" y="1.172" transform="matrix(0.7071 0.7071 -0.7071 0.7071 18.3518 -36.3051)" style="fill:#222829;" width="2" height="5.657"/>
			</g>
			<g>
				
					<rect x="60" y="12.586" transform="matrix(0.7071 0.7071 -0.7071 0.7071 27.766 -39.033)" style="fill:#222829;" width="2" height="2.828"/>
			</g>
			<g>
				
					<rect x="58" y="7.172" transform="matrix(0.7071 0.7071 -0.7071 0.7071 24.3518 -38.7904)" style="fill:#222829;" width="2" height="5.657"/>
			</g>
		</g>
	</g>
</g>
</svg>
