<?xml version="1.0" encoding="iso-8859-1"?>
<!-- Generator: Adobe Illustrator 17.0.0, SVG Export Plug-In . SVG Version: 6.00 Build 0)  -->
<!DOCTYPE svg PUBLIC "-//W3C//DTD SVG 1.1//EN" "http://www.w3.org/Graphics/SVG/1.1/DTD/svg11.dtd">
<svg version="1.1" id="_x32_6_x5F_hot_x5F_drink_x5F_thermos"
	 xmlns="http://www.w3.org/2000/svg" xmlns:xlink="http://www.w3.org/1999/xlink" x="0px" y="0px" width="64px" height="60px"
	 viewBox="0 0 64 60" style="enable-background:new 0 0 64 60;" xml:space="preserve">
<g>
	<g>
		<g>
			<path style="fill:#222829;" d="M32,60H10c-0.552,0-1-0.447-1-1V21c0-0.217,0.07-0.427,0.2-0.6l6-8c0.188-0.252,0.485-0.4,0.8-0.4
				h10c0.315,0,0.611,0.148,0.8,0.4l6,8c0.13,0.173,0.2,0.383,0.2,0.6v38C33,59.553,32.552,60,32,60z M11,58h20V21.333L25.5,14h-9
				L11,21.333V58z"/>
		</g>
		<g>
			<path style="fill:#222829;" d="M52,60h-6c-4.962,0-9-4.037-9-9V39c0-0.553,0.448-1,1-1h22c0.552,0,1,0.447,1,1v12
				C61,55.963,56.962,60,52,60z M39,40v11c0,3.859,3.14,7,7,7h6c3.86,0,7-3.141,7-7V40H39z"/>
		</g>
		<g>
			<path style="fill:#222829;" d="M26,14H16c-0.552,0-1-0.447-1-1V5c0-0.553,0.448-1,1-1h10c0.552,0,1,0.447,1,1v8
				C27,13.553,26.552,14,26,14z M17,12h8V6h-8V12z"/>
		</g>
		<g>
			<rect x="10" y="20" style="fill:#222829;" width="22" height="2"/>
		</g>
		<g>
			<rect x="16" y="8" style="fill:#222829;" width="10" height="2"/>
		</g>
		<g>
			<g>
				<rect x="13" y="26" style="fill:#222829;" width="19" height="2"/>
			</g>
			<g>
				<path style="fill:#222829;" d="M7,54H6c-1.654,0-3-1.346-3-3V29c0-1.654,1.346-3,3-3h4v2H6c-0.551,0-1,0.448-1,1v22
					c0,0.552,0.449,1,1,1h1V54z"/>
			</g>
			<g>
				<rect x="10" y="52" style="fill:#222829;" width="22" height="2"/>
			</g>
		</g>
		<g>
			<polygon style="fill:#222829;" points="25,5 23,5 23,2 19,2 19,5 17,5 17,0 25,0 			"/>
		</g>
		<g>
			<rect x="38" y="42" style="fill:#222829;" width="22" height="2"/>
		</g>
		<g>
			<rect x="27" y="30" style="fill:#222829;" width="2" height="20"/>
		</g>
		<g>
			<rect y="58" style="fill:#222829;" width="64" height="2"/>
		</g>
		<g>
			<path style="fill:#222829;" d="M52,36h-2c0-2.206,1.794-4,4-4h6c1.103,0,2-0.897,2-2s-0.897-2-2-2H41c-2.206,0-4-1.794-4-4
				s1.794-4,4-4h13c1.103,0,2-0.897,2-2h2c0,2.206-1.794,4-4,4H41c-1.103,0-2,0.897-2,2s0.897,2,2,2h19c2.206,0,4,1.794,4,4
				s-1.794,4-4,4h-6C52.897,34,52,34.897,52,36z"/>
		</g>
		<g>
			<path style="fill:#222829;" d="M47,28c-2.206,0-4-1.794-4-4s1.794-4,4-4v2c-1.103,0-2,0.897-2,2s0.897,2,2,2V28z"/>
		</g>
		<g>
			<path style="fill:#222829;" d="M46,36h-2c0-2.206,1.794-4,4-4h7v2h-7C46.897,34,46,34.897,46,36z"/>
		</g>
	</g>
</g>
</svg>
