<?xml version="1.0" encoding="iso-8859-1"?>
<!-- Generator: Adobe Illustrator 17.0.0, SVG Export Plug-In . SVG Version: 6.00 Build 0)  -->
<!DOCTYPE svg PUBLIC "-//W3C//DTD SVG 1.1//EN" "http://www.w3.org/Graphics/SVG/1.1/DTD/svg11.dtd">
<svg version="1.1" id="_x32_6_x5F_hiker_x5F_boots" xmlns="http://www.w3.org/2000/svg" xmlns:xlink="http://www.w3.org/1999/xlink"
	 x="0px" y="0px" width="64px" height="50px" viewBox="0 0 64 50" style="enable-background:new 0 0 64 50;" xml:space="preserve">
<g>
	<g>
		<g>
			<path style="fill:#222829;" d="M64,50h-2v-6H2v6H0v-7c0-0.553,0.447-1,1-1h62c0.553,0,1,0.447,1,1V50z"/>
		</g>
		<g>
			<path style="fill:#222829;" d="M28,50h-2v-2h-4v2h-2v-3c0-0.553,0.447-1,1-1h6c0.553,0,1,0.447,1,1V50z"/>
		</g>
		<g>
			<rect x="4" y="46" style="fill:#222829;" width="2" height="4"/>
		</g>
		<g>
			<rect x="8" y="46" style="fill:#222829;" width="2" height="4"/>
		</g>
		<g>
			<rect x="12" y="46" style="fill:#222829;" width="2" height="4"/>
		</g>
		<g>
			<rect x="16" y="46" style="fill:#222829;" width="2" height="4"/>
		</g>
		<g>
			<rect x="30" y="46" style="fill:#222829;" width="2" height="4"/>
		</g>
		<g>
			<rect x="34" y="46" style="fill:#222829;" width="2" height="4"/>
		</g>
		<g>
			<rect x="38" y="46" style="fill:#222829;" width="2" height="4"/>
		</g>
		<g>
			<rect x="42" y="46" style="fill:#222829;" width="2" height="4"/>
		</g>
		<g>
			<rect x="46" y="46" style="fill:#222829;" width="2" height="4"/>
		</g>
		<g>
			<rect x="50" y="46" style="fill:#222829;" width="2" height="4"/>
		</g>
		<g>
			<rect x="54" y="46" style="fill:#222829;" width="2" height="4"/>
		</g>
		<g>
			<rect x="58" y="46" style="fill:#222829;" width="2" height="4"/>
		</g>
		<g>
			<path style="fill:#222829;" d="M4,43H2v-6c0-0.06,0.006-0.12,0.017-0.179L4,25.91V9h2v17c0,0.06-0.006,0.12-0.017,0.179L4,37.09
				V43z"/>
		</g>
		<g>
			<path style="fill:#222829;" d="M27,10H8V8h18V2H6v7H4V1c0-0.553,0.447-1,1-1h22c0.553,0,1,0.447,1,1v8C28,9.553,27.553,10,27,10z
				"/>
		</g>
		<g>
			<g>
				<path style="fill:#222829;" d="M62,43h-2v-1c0-7.72-6.28-14-14-14H34c-4.411,0-8-3.589-8-8V9h2v11c0,3.309,2.691,6,6,6h12
					c8.822,0,16,7.178,16,16V43z"/>
			</g>
		</g>
		<g>
			<rect x="24" y="12" style="fill:#222829;" width="6" height="2"/>
		</g>
		<g>
			<rect x="24" y="16" style="fill:#222829;" width="6" height="2"/>
		</g>
		<g>
			<rect x="24" y="20" style="fill:#222829;" width="6" height="2"/>
		</g>
		<g>
			<path style="fill:#222829;" d="M12,32H8v-2h4c2.206,0,4-1.794,4-4V9h2v17C18,29.309,15.309,32,12,32z"/>
		</g>
		<g>
			<rect x="32" y="24" style="fill:#222829;" width="2" height="6"/>
		</g>
		<g>
			<rect x="36" y="24" style="fill:#222829;" width="2" height="6"/>
		</g>
		<g>
			<rect x="40" y="24" style="fill:#222829;" width="2" height="6"/>
		</g>
		<g>
			<rect x="44" y="24" style="fill:#222829;" width="2" height="6"/>
		</g>
		<g>
			<path style="fill:#222829;" d="M24,34c-2.206,0-4-1.794-4-4s1.794-4,4-4s4,1.794,4,4S26.206,34,24,34z M24,28
				c-1.103,0-2,0.897-2,2s0.897,2,2,2s2-0.897,2-2S25.103,28,24,28z"/>
		</g>
		<g>
			<rect x="8" y="14" style="fill:#222829;" width="2" height="12"/>
		</g>
		<g>
			<path style="fill:#222829;" d="M48,38H3v-2h45c3.309,0,6-2.691,6-6h2C56,34.411,52.411,38,48,38z"/>
		</g>
		<g>
			<path style="fill:#222829;" d="M5,10H4c-1.654,0-3-1.346-3-3V3c0-1.654,1.346-3,3-3h1v2H4C3.448,2,3,2.448,3,3v4
				c0,0.552,0.448,1,1,1h1V10z"/>
		</g>
	</g>
</g>
</svg>
