<?xml version="1.0" encoding="iso-8859-1"?>
<!-- Generator: Adobe Illustrator 17.0.0, SVG Export Plug-In . SVG Version: 6.00 Build 0)  -->
<!DOCTYPE svg PUBLIC "-//W3C//DTD SVG 1.1//EN" "http://www.w3.org/Graphics/SVG/1.1/DTD/svg11.dtd">
<svg version="1.1" id="_x32_6_x5F_hiker_x5F_on_x5F_trail"
	 xmlns="http://www.w3.org/2000/svg" xmlns:xlink="http://www.w3.org/1999/xlink" x="0px" y="0px" width="64px" height="58px"
	 viewBox="0 0 64 58" style="enable-background:new 0 0 64 58;" xml:space="preserve">
<g>
	<g>
		<g>
			<path style="fill:#222829;" d="M27.895,12c-3.309,0-6-2.691-6-6s2.691-6,6-6s6,2.691,6,6S31.203,12,27.895,12z M27.895,2
				c-2.206,0-4,1.794-4,4s1.794,4,4,4s4-1.794,4-4S30.1,2,27.895,2z"/>
		</g>
		<g>
			<polygon style="fill:#222829;" points="37.974,57.229 36.026,56.771 39.899,40.313 32,32.414 32,26 34,26 34,31.586 
				42.101,39.687 			"/>
		</g>
		<g>
			<rect y="56" style="fill:#222829;" width="64" height="2"/>
		</g>
		<g>
			
				<rect x="24.5" y="37.938" transform="matrix(0.8944 0.4472 -0.4472 0.8944 24.1584 -6.3365)" style="fill:#222829;" width="2" height="20.125"/>
		</g>
		<g>
			<polygon style="fill:#222829;" points="32.99,57.142 31.01,56.858 32.939,43.354 27.293,37.707 28.707,36.293 35.061,42.646 			
				"/>
		</g>
		<g>
			<rect x="46" y="29" style="fill:#222829;" width="2" height="28"/>
		</g>
		<g>
			<path style="fill:#222829;" d="M15.922,57.388l-1.844-0.775L22,37.798V19c0-2.757,2.243-5,5-5h4.315l10,7H47c1.654,0,3,1.346,3,3
				s-1.346,3-3,3h-7.192l-10.179-4.071l0.743-1.857L40.192,25H47c0.551,0,1-0.448,1-1s-0.449-1-1-1h-6.315l-10-7H27
				c-1.654,0-3,1.346-3,3v19.202L15.922,57.388z"/>
		</g>
		<g>
			<path style="fill:#222829;" d="M20,36h-5c-1.654,0-3-1.346-3-3V19.586l3-3V15c0-1.654,1.346-3,3-3h3c1.654,0,3,1.346,3,3v4h-2v-4
				c0-0.552-0.449-1-1-1h-3c-0.551,0-1,0.448-1,1v2.414l-3,3V33c0,0.552,0.449,1,1,1h5V36z"/>
		</g>
		<g>
			<rect x="13" y="30" style="fill:#222829;" width="7" height="2"/>
		</g>
		<g>
			<rect x="13" y="26" style="fill:#222829;" width="7" height="2"/>
		</g>
		<g>
			<rect x="13" y="22" style="fill:#222829;" width="7" height="2"/>
		</g>
		<g>
			<rect x="17" y="52" style="fill:#222829;" width="6" height="2"/>
		</g>
		<g>
			<rect x="33" y="52" style="fill:#222829;" width="5" height="2"/>
		</g>
		<g>
			<rect x="23" y="4" style="fill:#222829;" width="15" height="2"/>
		</g>
	</g>
</g>
</svg>
