<?xml version="1.0" encoding="iso-8859-1"?>
<!-- Generator: Adobe Illustrator 17.0.0, SVG Export Plug-In . SVG Version: 6.00 Build 0)  -->
<!DOCTYPE svg PUBLIC "-//W3C//DTD SVG 1.1//EN" "http://www.w3.org/Graphics/SVG/1.1/DTD/svg11.dtd">
<svg version="1.1" id="_x32_6_x5F_kayak_x5F_on_x5F_river"
	 xmlns="http://www.w3.org/2000/svg" xmlns:xlink="http://www.w3.org/1999/xlink" x="0px" y="0px" width="56px" height="64px"
	 viewBox="0 0 56 64" style="enable-background:new 0 0 56 64;" xml:space="preserve">
<g>
	<g>
		<g>
			<path style="fill:#222829;" d="M28,64c-0.489,0-0.906-0.354-0.986-0.836c-0.326-1.959-1.503-4.736-2.865-7.951
				C21.409,48.749,18,40.704,18,32s3.409-16.749,6.148-23.213c1.362-3.215,2.539-5.992,2.865-7.951C27.094,0.354,27.511,0,28,0
				s0.906,0.354,0.986,0.836c0.326,1.959,1.503,4.736,2.865,7.951C34.591,15.251,38,23.296,38,32s-3.409,16.749-6.148,23.213
				c-1.362,3.215-2.539,5.992-2.865,7.951C28.906,63.646,28.489,64,28,64z M28,4.615c-0.546,1.494-1.25,3.157-2.011,4.952
				C23.321,15.864,20,23.702,20,32s3.321,16.136,5.989,22.433c0.761,1.795,1.465,3.458,2.011,4.952
				c0.546-1.494,1.25-3.157,2.011-4.952C32.679,48.136,36,40.298,36,32s-3.321-16.136-5.989-22.433
				C29.25,7.772,28.546,6.109,28,4.615z"/>
		</g>
		<g>
			<path style="fill:#222829;" d="M28,45c-2.206,0-4-1.794-4-4V23c0-2.206,1.794-4,4-4s4,1.794,4,4v18C32,43.206,30.206,45,28,45z
				 M28,21c-1.103,0-2,0.897-2,2v18c0,1.103,0.897,2,2,2s2-0.897,2-2V23C30,21.897,29.103,21,28,21z"/>
		</g>
		<g>
			
				<rect x="27" y="5.13" transform="matrix(0.7071 0.7071 -0.7071 0.7071 30.8284 -10.4264)" style="fill:#222829;" width="2" height="53.74"/>
		</g>
		<g>
			<path style="fill:#222829;" d="M51,14h-4c-0.553,0-1-0.447-1-1V9c0-0.266,0.105-0.52,0.293-0.707l4-4C50.48,4.105,50.734,4,51,4
				h4c0.553,0,1,0.447,1,1v4c0,0.266-0.105,0.52-0.293,0.707l-4,4C51.52,13.895,51.266,14,51,14z M48,12h2.586L54,8.586V6h-2.586
				L48,9.414V12z"/>
		</g>
		<g>
			<path style="fill:#222829;" d="M5,60H1c-0.553,0-1-0.447-1-1v-4c0-0.266,0.105-0.52,0.293-0.707l4-4C4.48,50.105,4.734,50,5,50h4
				c0.553,0,1,0.447,1,1v4c0,0.266-0.105,0.52-0.293,0.707l-4,4C5.52,59.895,5.266,60,5,60z M2,58h2.586L8,54.586V52H5.414L2,55.414
				V58z"/>
		</g>
		<g>
			<path style="fill:#222829;" d="M10,32H8c0-2.081,1.316-3.135,2.375-3.981C11.413,27.188,12,26.665,12,25.597
				s-0.587-1.591-1.625-2.422C9.317,22.328,8,21.273,8,19.191c0-2.08,1.317-3.134,2.375-3.98C11.413,14.382,12,13.86,12,12.793
				c0-1.066-0.587-1.588-1.625-2.417C9.317,9.529,8,8.477,8,6.397c0-2.08,1.317-3.133,2.375-3.979C11.413,1.589,12,1.067,12,0h2
				c0,2.08-1.317,3.134-2.376,3.98C10.587,4.81,10,5.331,10,6.397c0,1.065,0.587,1.587,1.624,2.416C12.683,9.66,14,10.713,14,12.793
				s-1.317,3.134-2.375,3.98C10.587,17.603,10,18.124,10,19.191c0,1.069,0.587,1.592,1.625,2.423C12.684,22.461,14,23.516,14,25.597
				c0,2.082-1.317,3.136-2.375,3.983C10.587,30.41,10,30.932,10,32z"/>
		</g>
		<g>
			<path style="fill:#222829;" d="M44,64h-2c0-2.081,1.317-3.136,2.375-3.982C45.413,59.187,46,58.664,46,57.596
				s-0.587-1.591-1.625-2.422C43.317,54.327,42,53.272,42,51.191s1.317-3.135,2.375-3.981C45.413,46.38,46,45.858,46,44.791
				c0-1.065-0.587-1.586-1.624-2.415C43.317,41.53,42,40.478,42,38.398c0-2.08,1.317-3.134,2.375-3.98
				C45.413,33.589,46,33.067,46,32h2c0,2.08-1.317,3.134-2.375,3.98C44.587,36.81,44,37.331,44,38.398
				c0,1.065,0.587,1.586,1.624,2.415C46.683,41.659,48,42.712,48,44.791c0,2.081-1.317,3.135-2.375,3.981
				C44.587,49.603,44,50.124,44,51.191c0,1.068,0.587,1.591,1.625,2.422C46.683,54.46,48,55.515,48,57.596s-1.317,3.136-2.375,3.982
				C44.587,62.409,44,62.932,44,64z"/>
		</g>
	</g>
</g>
</svg>
