<?xml version="1.0" encoding="iso-8859-1"?>
<!-- Generator: Adobe Illustrator 17.0.0, SVG Export Plug-In . SVG Version: 6.00 Build 0)  -->
<!DOCTYPE svg PUBLIC "-//W3C//DTD SVG 1.1//EN" "http://www.w3.org/Graphics/SVG/1.1/DTD/svg11.dtd">
<svg version="1.1" id="_x32_6_x5F_lumberjack_x5F_tools"
	 xmlns="http://www.w3.org/2000/svg" xmlns:xlink="http://www.w3.org/1999/xlink" x="0px" y="0px" width="56px" height="64.001px"
	 viewBox="0 0 56 64.001" style="enable-background:new 0 0 56 64.001;" xml:space="preserve">
<g>
	<g>
		<g>
			<g>
				<path style="fill:#222829;" d="M38,5.001h-2v-3h-4v3h-2V1.001c0-0.553,0.448-0.999,1-0.999h6c0.552,0,1,0.447,1,0.999V5.001z"/>
			</g>
			<g>
				<path style="fill:#222829;" d="M34,64.001c-2.206,0-4-1.794-4-4V23.001h2v36.999c0,1.103,0.897,2,2,2s2-0.897,2-2V23.001h2
					v36.999C38,62.207,36.206,64.001,34,64.001z"/>
			</g>
			<g>
				<path style="fill:#222829;" d="M55,25.001c-0.086,0-0.173-0.01-0.258-0.034l-14.873-3.966H27c-0.552,0-1-0.448-1-1.001v-15
					c0-0.553,0.448-0.999,1-0.999h12.869l14.873-3.966c0.302-0.082,0.621-0.017,0.867,0.173C55.855,0.397,56,0.69,56,1.001v23
					c0,0.311-0.145,0.604-0.391,0.793C55.433,24.929,55.218,25.001,55,25.001z M28,19.001h12c0.087,0,0.174,0.011,0.258,0.034
					L54,22.699V2.302L40.258,5.967C40.174,5.989,40.087,6.001,40,6.001H28V19.001z"/>
			</g>
			<g>
				<rect x="30" y="8.001" style="fill:#222829;" width="2" height="9"/>
			</g>
			<g>
				<rect x="48" y="3.001" style="fill:#222829;" width="2" height="19"/>
			</g>
		</g>
		<g>
			<g>
				<path style="fill:#222829;" d="M6,45.001H4v-4.001c0-0.065,0.006-0.132,0.02-0.196l8-40c0.093-0.467,0.504-0.803,0.98-0.803h8
					c0.552,0,1,0.447,1,0.999v37.001h-2v-36h-6.18L6,41.099V45.001z"/>
			</g>
			<g>
				<path style="fill:#222829;" d="M23,64.001h-4c-0.552,0-1-0.448-1-1.001v-0.999H6v0.999c0,0.553-0.448,1.001-1,1.001H1
					c-0.552,0-1-0.448-1-1.001v-14c0-0.266,0.105-0.52,0.293-0.707l8-8C8.48,40.106,8.735,40.001,9,40.001h14
					c0.552,0,1,0.447,1,0.999v22C24,63.553,23.552,64.001,23,64.001z M20,62.001h2v-20H9.414L2,49.415v12.587h2v-1.001
					c0-0.553,0.448-0.999,1-0.999h14c0.552,0,1,0.447,1,0.999V62.001z"/>
			</g>
			<g>
				<path style="fill:#222829;" d="M19,58.001H5c-0.552,0-1-0.448-1-1.001v-3c0-0.266,0.105-0.52,0.293-0.707l6-6
					c0.188-0.188,0.442-0.293,0.707-0.293h8c0.552,0,1,0.447,1,0.999v9C20,57.553,19.552,58.001,19,58.001z M6,56.001h12v-7h-6.586
					L6,54.415V56.001z"/>
			</g>
			<g>
				<rect x="16" y="6.001" style="fill:#222829;" width="2" height="30"/>
			</g>
		</g>
	</g>
</g>
</svg>
