<?xml version="1.0" encoding="iso-8859-1"?>
<!-- Generator: Adobe Illustrator 17.0.0, SVG Export Plug-In . SVG Version: 6.00 Build 0)  -->
<!DOCTYPE svg PUBLIC "-//W3C//DTD SVG 1.1//EN" "http://www.w3.org/Graphics/SVG/1.1/DTD/svg11.dtd">
<svg version="1.1" id="_x32_6_x5F_mountain_x5F_landscape"
	 xmlns="http://www.w3.org/2000/svg" xmlns:xlink="http://www.w3.org/1999/xlink" x="0px" y="0px" width="64px" height="57px"
	 viewBox="0 0 64 57" style="enable-background:new 0 0 64 57;" xml:space="preserve">
<g>
	<g>
		<g>
			<path style="fill:#222829;" d="M1.845,52.535l-1.689-1.07l19-30c0.177-0.28,0.482-0.454,0.814-0.465
				c0.327-0.01,0.646,0.146,0.841,0.414l5.066,7l-1.62,1.172l-4.201-5.804L1.845,52.535z"/>
		</g>
		<g>
			<path style="fill:#222829;" d="M36,34c-0.265,0-0.519-0.104-0.707-0.293l-5-5l1.414-1.414l4.226,4.226l4.299-5.159
				c0.18-0.216,0.442-0.346,0.723-0.358c0.285-0.011,0.554,0.093,0.752,0.292L44,28.586l3.293-3.293l1.414,1.414l-4,4
				c-0.391,0.391-1.023,0.391-1.414,0l-2.226-2.226l-4.299,5.16C36.588,33.857,36.326,34,36.045,34C36.03,34,36.015,34,36,34z"/>
		</g>
		<g>
			<path style="fill:#222829;" d="M62.133,52.498L39.976,13.964L26.854,35.52l-1.708-1.039l14-23C39.328,11.182,39.651,11,40,11
				c0.004,0,0.008,0,0.013,0c0.353,0.005,0.678,0.195,0.854,0.502l23,40L62.133,52.498z"/>
		</g>
		<g>
			<path style="fill:#222829;" d="M42.293,52.707L36.586,47H32c-0.265,0-0.52-0.105-0.707-0.293L25,40.414L12.707,52.707
				l-1.414-1.414l13-13c0.391-0.391,1.023-0.391,1.414,0L32.414,45H37c0.265,0,0.52,0.105,0.707,0.293l6,6L42.293,52.707z"/>
		</g>
		<g>
			<path style="fill:#222829;" d="M17,14H5c-2.757,0-5-2.243-5-5c0-2.421,1.729-4.445,4.018-4.903C4.223,1.804,6.154,0,8.5,0
				c1.612,0,3.146,0.985,3.959,2.409C12.899,2.171,13.414,2,14,2c1.446,0,2.762,0.789,3.463,2.021C20.004,4.256,22,6.399,22,9
				C22,11.757,19.757,14,17,14z M4.957,6C3.322,6.023,2,7.36,2,9c0,1.654,1.346,3,3,3h12c1.654,0,3-1.346,3-3s-1.346-3-3-3
				c-0.017,0.008-0.08,0.015-0.146,0.017c-0.411,0.048-0.833-0.257-0.977-0.67C15.597,4.541,14.843,4,14,4
				c-0.381,0-0.785,0.224-1.31,0.724c-0.265,0.253-0.647,0.34-0.995,0.229c-0.348-0.111-0.608-0.403-0.677-0.763
				C10.785,2.982,9.655,2,8.5,2C7.122,2,6,3.121,6,4.5c0,0.111,0.02,0.219,0.035,0.325c0.042,0.288-0.04,0.597-0.23,0.816
				S5.341,6.005,5.051,6.005C5.024,6.005,4.99,6.003,4.957,6z"/>
		</g>
		<g>
			<rect y="55" style="fill:#222829;" width="64" height="2"/>
		</g>
	</g>
</g>
</svg>
