<?xml version="1.0" encoding="iso-8859-1"?>
<!-- Generator: Adobe Illustrator 17.0.0, SVG Export Plug-In . SVG Version: 6.00 Build 0)  -->
<!DOCTYPE svg PUBLIC "-//W3C//DTD SVG 1.1//EN" "http://www.w3.org/Graphics/SVG/1.1/DTD/svg11.dtd">
<svg version="1.1" id="_x32_6_x5F_swiss_x5F_army_x5F_knife"
	 xmlns="http://www.w3.org/2000/svg" xmlns:xlink="http://www.w3.org/1999/xlink" x="0px" y="0px" width="64px" height="47.999px"
	 viewBox="0 0 64 47.999" style="enable-background:new 0 0 64 47.999;" xml:space="preserve">
<g>
	<g>
		<g>
			<g>
				<path style="fill:#222829;" d="M24.707,29.706l-1.414-1.414l9-9c6.671-6.671,4.621-13.829,3.43-16.602L8.707,29.706
					l-1.414-1.414l28-28c0.218-0.218,0.527-0.319,0.829-0.285c0.306,0.037,0.577,0.214,0.735,0.478
					c0.064,0.106,6.293,10.779-3.15,20.222L24.707,29.706z"/>
			</g>
			<g>
				<path style="fill:#222829;" d="M54,47.999v-2c4.411,0,8-3.59,8-8.001s-3.589-8.001-8-8.001H10c-4.411,0-8,3.589-8,8s3.589,8,8,8
					h22v2H10c-5.514,0-10-4.486-10-10s4.486-10,10-10h44c5.514,0,10,4.487,10,10.001S59.514,47.999,54,47.999z"/>
			</g>
			<g>
				<rect x="46" y="42.997" style="fill:#222829;" width="2" height="5"/>
			</g>
			<g>
				<rect x="42" y="42.997" style="fill:#222829;" width="2" height="5"/>
			</g>
			<g>
				<rect x="38" y="42.997" style="fill:#222829;" width="2" height="5"/>
			</g>
			<g>
				<rect x="34" y="42.997" style="fill:#222829;" width="2" height="5"/>
			</g>
			<g>
				
					<rect x="29" y="10.17" transform="matrix(0.7071 0.7071 -0.7071 0.7071 17.9783 -17.406)" style="fill:#222829;" width="2" height="5.657"/>
			</g>
			<g>
				<path style="fill:#222829;" d="M10,43.999c-3.309,0-6-2.691-6-6s2.691-6,6-6s6,2.691,6,6S13.309,43.999,10,43.999z M10,33.999
					c-2.206,0-4,1.794-4,4s1.794,4,4,4s4-1.794,4-4S12.206,33.999,10,33.999z"/>
			</g>
			<g>
				<path style="fill:#222829;" d="M55,28.997h-2V16.999c0-0.197,0.059-0.391,0.168-0.555L55,13.696V7.997h-6v5.699l1.832,2.748
					C50.941,16.608,51,16.801,51,16.999v8.999h-2v-8.696l-1.832-2.748C47.059,14.389,47,14.196,47,13.999v-7
					c0-0.553,0.447-1.001,1-1.001h8c0.553,0,1,0.449,1,1.001v7c0,0.197-0.059,0.391-0.168,0.555L55,17.301V28.997z"/>
			</g>
			<g>
				<path style="fill:#222829;" d="M52,47.997h-2v-4H30v-2h21c0.553,0,1,0.449,1,1.001V47.997z"/>
			</g>
		</g>
	</g>
</g>
</svg>
