<?xml version="1.0" encoding="iso-8859-1"?>
<!-- Generator: Adobe Illustrator 17.0.0, SVG Export Plug-In . SVG Version: 6.00 Build 0)  -->
<!DOCTYPE svg PUBLIC "-//W3C//DTD SVG 1.1//EN" "http://www.w3.org/Graphics/SVG/1.1/DTD/svg11.dtd">
<svg version="1.1" id="_x32_6_x5F_trail_x5F_map" xmlns="http://www.w3.org/2000/svg" xmlns:xlink="http://www.w3.org/1999/xlink"
	 x="0px" y="0px" width="64px" height="60px" viewBox="0 0 64 60" style="enable-background:new 0 0 64 60;" xml:space="preserve">
<g>
	<g>
		<g>
			<path style="fill:#222829;" d="M63,60c-0.171,0-0.342-0.044-0.496-0.132l-12.587-7.194l0.992-1.736L62,57.276V13.58L42.012,2.159
				L22.515,13.857c-0.31,0.186-0.696,0.19-1.011,0.011L2,2.723V46.42l19.988,11.421l11.364-6.818l1.029,1.715l-11.866,7.12
				c-0.31,0.186-0.696,0.189-1.011,0.011l-21-12C0.192,47.69,0,47.358,0,47V1c0-0.356,0.19-0.686,0.498-0.865
				c0.309-0.178,0.689-0.179,0.998-0.003l20.492,11.709L41.485,0.142c0.311-0.186,0.697-0.19,1.011-0.011l21,12
				C63.808,12.309,64,12.641,64,13v46c0,0.356-0.19,0.686-0.498,0.865C63.347,59.955,63.173,60,63,60z"/>
		</g>
		<g>
			<rect x="21" y="13" style="fill:#222829;" width="2" height="46"/>
		</g>
		<g>
			<rect x="41" y="1" style="fill:#222829;" width="2" height="23"/>
		</g>
		<g>
			<path style="fill:#222829;" d="M42,60c-0.379,0-0.726-0.214-0.895-0.554C40.733,58.702,32,41.147,32,36c0-5.514,4.486-10,10-10
				s10,4.486,10,10c0,5.147-8.733,22.702-9.105,23.446C42.726,59.786,42.379,60,42,60z M42,28c-4.411,0-8,3.589-8,8
				c0,3.478,5.147,14.834,8,20.73c2.853-5.896,8-17.254,8-20.73C50,31.589,46.411,28,42,28z"/>
		</g>
		<g>
			<path style="fill:#222829;" d="M42,42c-3.309,0-6-2.691-6-6s2.691-6,6-6s6,2.691,6,6S45.309,42,42,42z M42,32
				c-2.206,0-4,1.794-4,4s1.794,4,4,4s4-1.794,4-4S44.206,32,42,32z"/>
		</g>
		<g>
			<path style="fill:#222829;" d="M18,53c-0.182,0-0.364-0.05-0.524-0.148l-13-8C4.18,44.67,4,44.347,4,44V8
				c0-0.362,0.196-0.696,0.512-0.873c0.317-0.178,0.704-0.169,1.012,0.021l13,8C18.82,15.33,19,15.652,19,16v36
				c0,0.362-0.196,0.696-0.512,0.873C18.336,52.958,18.168,53,18,53z M6,43.441l11,6.769V16.558L6,9.79V43.441z"/>
		</g>
		<g>
			<rect x="10" y="25" style="fill:#222829;" width="2" height="2"/>
		</g>
		<g>
			<rect x="10" y="29" style="fill:#222829;" width="2" height="2"/>
		</g>
		<g>
			<rect x="10" y="33" style="fill:#222829;" width="2" height="2"/>
		</g>
	</g>
</g>
</svg>
