<?xml version="1.0" encoding="iso-8859-1"?>
<!-- Generator: Adobe Illustrator 17.0.0, SVG Export Plug-In . SVG Version: 6.00 Build 0)  -->
<!DOCTYPE svg PUBLIC "-//W3C//DTD SVG 1.1//EN" "http://www.w3.org/Graphics/SVG/1.1/DTD/svg11.dtd">
<svg version="1.1" id="_x32_6_x5F_tourist_x5F_backpack"
	 xmlns="http://www.w3.org/2000/svg" xmlns:xlink="http://www.w3.org/1999/xlink" x="0px" y="0px" width="60px" height="64px"
	 viewBox="0 0 60 64" style="enable-background:new 0 0 60 64;" xml:space="preserve">
<g>
	<g>
		<g>
			<path style="fill:#222829;" d="M9,64H4c-2.206,0-4-1.794-4-4V46c0-2.206,1.794-4,4-4h5v2H4c-1.103,0-2,0.897-2,2v14
				c0,1.103,0.897,2,2,2h5V64z"/>
		</g>
		<g>
			<path style="fill:#222829;" d="M56,64h-5v-2h5c1.103,0,2-0.897,2-2V46c0-1.103-0.897-2-2-2h-5v-2h5c2.206,0,4,1.794,4,4v14
				C60,62.206,58.206,64,56,64z"/>
		</g>
		<g>
			<path style="fill:#222829;" d="M2,40H0V4c0-2.206,1.794-4,4-4h6c2.206,0,4,1.794,4,4h-2c0-1.103-0.897-2-2-2H4
				C2.897,2,2,2.897,2,4V40z"/>
		</g>
		<g>
			<path style="fill:#222829;" d="M60,40h-2V4c0-1.103-0.897-2-2-2h-6c-1.103,0-2,0.897-2,2h-2c0-2.206,1.794-4,4-4h6
				c2.206,0,4,1.794,4,4V40z"/>
		</g>
		<g>
			<g>
				<path style="fill:#222829;" d="M51,64H9c-0.552,0-1-0.447-1-1V27h2v35h40V27h2v36C52,63.553,51.552,64,51,64z"/>
			</g>
			<g>
				<path style="fill:#222829;" d="M49,28h-4v-2h4c2.757,0,5-2.243,5-5V8H6v13c0,2.757,2.243,5,5,5h4v2h-4c-3.86,0-7-3.141-7-7V7
					c0-0.553,0.448-1,1-1h50c0.552,0,1,0.447,1,1v14C56,24.859,52.86,28,49,28z"/>
			</g>
			<g>
				<rect x="25" y="26" style="fill:#222829;" width="10" height="2"/>
			</g>
			<g>
				<rect x="15" y="22" style="fill:#222829;" width="10" height="2"/>
			</g>
			<g>
				<rect x="35" y="22" style="fill:#222829;" width="10" height="2"/>
			</g>
			<g>
				<path style="fill:#222829;" d="M22,36h-4c-0.552,0-1-0.447-1-1V23c0-0.553,0.448-1,1-1h4c0.552,0,1,0.447,1,1v12
					C23,35.553,22.552,36,22,36z M19,34h2V24h-2V34z"/>
			</g>
			<g>
				<path style="fill:#222829;" d="M42,36h-4c-0.552,0-1-0.447-1-1V23c0-0.553,0.448-1,1-1h4c0.552,0,1,0.447,1,1v12
					C43,35.553,42.552,36,42,36z M39,34h2V24h-2V34z"/>
			</g>
			<g>
				<rect x="15" y="12" style="fill:#222829;" width="30" height="2"/>
			</g>
			<g>
				<rect x="21" y="13" style="fill:#222829;" width="2" height="3"/>
			</g>
			<g>
				<path style="fill:#222829;" d="M42,58H18c-0.552,0-1-0.447-1-1v-9c0-2.206,1.794-4,4-4h18c2.206,0,4,1.794,4,4v9
					C43,57.553,42.552,58,42,58z M19,56h22v-8c0-1.103-0.897-2-2-2H21c-1.103,0-2,0.897-2,2V56z"/>
			</g>
			<g>
				<rect x="18" y="48" style="fill:#222829;" width="24" height="2"/>
			</g>
			<g>
				<rect x="22" y="49" style="fill:#222829;" width="2" height="3"/>
			</g>
			<g>
				<rect x="29" y="27" style="fill:#222829;" width="2" height="18"/>
			</g>
			<g>
				<rect x="29" y="57" style="fill:#222829;" width="2" height="6"/>
			</g>
			<g>
				<path style="fill:#222829;" d="M38,7h-2V6c0-1.103-0.897-2-2-2h-8c-1.103,0-2,0.897-2,2v1h-2V6c0-2.206,1.794-4,4-4h8
					c2.206,0,4,1.794,4,4V7z"/>
			</g>
			<g>
				<rect x="38" y="30" style="fill:#222829;" width="4" height="2"/>
			</g>
			<g>
				<rect x="18" y="30" style="fill:#222829;" width="4" height="2"/>
			</g>
		</g>
	</g>
</g>
</svg>
