<?xml version="1.0" encoding="iso-8859-1"?>
<!-- Generator: Adobe Illustrator 17.0.0, SVG Export Plug-In . SVG Version: 6.00 Build 0)  -->
<!DOCTYPE svg PUBLIC "-//W3C//DTD SVG 1.1//EN" "http://www.w3.org/Graphics/SVG/1.1/DTD/svg11.dtd">
<svg version="1.1" id="_x32_6_x5F_wild_x5F_forest_x5F_trees"
	 xmlns="http://www.w3.org/2000/svg" xmlns:xlink="http://www.w3.org/1999/xlink" x="0px" y="0px" width="64px" height="56px"
	 viewBox="0 0 64 56" style="enable-background:new 0 0 64 56;" xml:space="preserve">
<g>
	<g>
		<g>
			<g>
				<g>
					<rect x="37" y="45" style="fill:#222829;" width="2" height="9"/>
				</g>
				<g>
					<rect x="41" y="42" style="fill:#222829;" width="2" height="12"/>
				</g>
				<g>
					<path style="fill:#222829;" d="M60,43H47v-2h10.586l-7.293-7.293c-0.286-0.286-0.372-0.716-0.217-1.09
						C50.23,32.243,50.596,32,51,32h5.586l-8.293-8.293c-0.286-0.286-0.372-0.716-0.217-1.09C48.23,22.243,48.596,22,49,22h4.586
						l-7.293-7.293c-0.286-0.286-0.372-0.716-0.217-1.09C46.23,13.243,46.596,13,47,13h3.586L40,2.414l-4.293,4.293l-1.414-1.414
						l5-5c0.391-0.391,1.023-0.391,1.414,0l13,13c0.286,0.286,0.372,0.716,0.217,1.09C53.77,14.757,53.404,15,53,15h-3.586
						l7.293,7.293c0.286,0.286,0.372,0.716,0.217,1.09C56.77,23.757,56.404,24,56,24h-4.586l8.293,8.293
						c0.286,0.286,0.372,0.716,0.217,1.09C59.77,33.757,59.404,34,59,34h-5.586l7.293,7.293c0.286,0.286,0.372,0.716,0.217,1.09
						C60.77,42.757,60.404,43,60,43z"/>
				</g>
			</g>
		</g>
		<g>
			<g>
				<g>
					<rect x="21" y="45" style="fill:#222829;" width="2" height="9"/>
				</g>
				<g>
					<rect x="25" y="42" style="fill:#222829;" width="2" height="12"/>
				</g>
				<g>
					<path style="fill:#222829;" d="M44,43H4c-0.404,0-0.77-0.243-0.924-0.617c-0.155-0.374-0.069-0.804,0.217-1.09L10.586,34H5
						c-0.404,0-0.77-0.243-0.924-0.617c-0.155-0.374-0.069-0.804,0.217-1.09L12.586,24H8c-0.404,0-0.77-0.243-0.924-0.617
						c-0.155-0.374-0.069-0.804,0.217-1.09L14.586,15H11c-0.404,0-0.77-0.243-0.924-0.617c-0.155-0.374-0.069-0.804,0.217-1.09
						l13-13c0.391-0.391,1.023-0.391,1.414,0l13,13c0.286,0.286,0.372,0.716,0.217,1.09C37.77,14.757,37.404,15,37,15h-3.586
						l7.293,7.293c0.286,0.286,0.372,0.716,0.217,1.09C40.77,23.757,40.404,24,40,24h-4.586l8.293,8.293
						c0.286,0.286,0.372,0.716,0.217,1.09C43.77,33.757,43.404,34,43,34h-5.586l7.293,7.293c0.286,0.286,0.372,0.716,0.217,1.09
						C44.77,42.757,44.404,43,44,43z M6.414,41h35.172l-7.293-7.293c-0.286-0.286-0.372-0.716-0.217-1.09
						C34.23,32.243,34.596,32,35,32h5.586l-8.293-8.293c-0.286-0.286-0.372-0.716-0.217-1.09C32.23,22.243,32.596,22,33,22h4.586
						l-7.293-7.293c-0.286-0.286-0.372-0.716-0.217-1.09C30.23,13.243,30.596,13,31,13h3.586L24,2.414L13.414,13H17
						c0.404,0,0.77,0.243,0.924,0.617c0.155,0.374,0.069,0.804-0.217,1.09L10.414,22H15c0.404,0,0.77,0.243,0.924,0.617
						c0.155,0.374,0.069,0.804-0.217,1.09L7.414,32H13c0.404,0,0.77,0.243,0.924,0.617c0.155,0.374,0.069,0.804-0.217,1.09L6.414,41
						z"/>
				</g>
			</g>
		</g>
		<g>
			<rect x="23" y="22" style="fill:#222829;" width="2" height="2"/>
		</g>
		<g>
			<rect x="23" y="32" style="fill:#222829;" width="2" height="2"/>
		</g>
		<g>
			<rect x="23" y="13" style="fill:#222829;" width="2" height="2"/>
		</g>
		<g>
			<rect y="54" style="fill:#222829;" width="64" height="2"/>
		</g>
	</g>
</g>
</svg>
