<?xml version="1.0" encoding="iso-8859-1"?>
<!-- Generator: Adobe Illustrator 17.0.0, SVG Export Plug-In . SVG Version: 6.00 Build 0)  -->
<!DOCTYPE svg PUBLIC "-//W3C//DTD SVG 1.1//EN" "http://www.w3.org/Graphics/SVG/1.1/DTD/svg11.dtd">
<svg version="1.1" id="_x32_6_x5F_zippo_x5F_lighter"
	 xmlns="http://www.w3.org/2000/svg" xmlns:xlink="http://www.w3.org/1999/xlink" x="0px" y="0px" width="64px" height="64px"
	 viewBox="0 0 64 64" style="enable-background:new 0 0 64 64;" xml:space="preserve">
<g>
	<g>
		<g>
			<path style="fill:#222829;" d="M31,64H3c-1.654,0-3-1.346-3-3V27c0-0.553,0.447-1,1-1h29v2H2v33c0,0.552,0.448,1,1,1h28
				c0.552,0,1-0.448,1-1V46h2v15C34,62.654,32.654,64,31,64z"/>
		</g>
		<g>
			<path style="fill:#222829;" d="M61,44H35c-1.654,0-3-1.346-3-3V30h2v11c0,0.552,0.448,1,1,1h26c0.552,0,1-0.448,1-1V28H39v-2h24
				c0.553,0,1,0.447,1,1v14C64,42.654,62.654,44,61,44z"/>
		</g>
		<g>
			<path style="fill:#222829;" d="M57,40h-6v-2h6c0.552,0,1-0.448,1-1v-5h2v5C60,38.654,58.654,40,57,40z"/>
		</g>
		<g>
			<path style="fill:#222829;" d="M33,31c-2.206,0-4-1.794-4-4s1.794-4,4-4s4,1.794,4,4S35.206,31,33,31z M33,25
				c-1.103,0-2,0.897-2,2s0.897,2,2,2s2-0.897,2-2S34.103,25,33,25z"/>
		</g>
		<g>
			<path style="fill:#222829;" d="M29,28H3c-0.553,0-1-0.447-1-1c0-2.757,2.243-5,5-5h18c2.757,0,5,2.243,5,5
				C30,27.553,29.553,28,29,28z M4.171,26h23.658c-0.413-1.164-1.525-2-2.829-2H7C5.696,24,4.584,24.836,4.171,26z"/>
		</g>
		<g>
			<path style="fill:#222829;" d="M24,23h-2v-7H12v3h-2v-4c0-0.553,0.447-1,1-1h12c0.553,0,1,0.447,1,1V23z"/>
		</g>
		<g>
			<path style="fill:#222829;" d="M7,24c-2.757,0-5-2.243-5-5s2.243-5,5-5s5,2.243,5,5S9.757,24,7,24z M7,16c-1.654,0-3,1.346-3,3
				s1.346,3,3,3s3-1.346,3-3S8.654,16,7,16z"/>
		</g>
		<g>
			<path style="fill:#222829;" d="M22,12h-2c0-1.734-0.907-3.322-1.868-5.004C17.74,6.311,17.343,5.616,17,4.897
				c-0.343,0.719-0.74,1.413-1.132,2.099C14.907,8.678,14,10.266,14,12h-2c0-2.266,1.084-4.162,2.132-5.996
				C15.093,4.322,16,2.734,16,1c0-0.553,0.447-1,1-1s1,0.447,1,1c0,1.734,0.907,3.322,1.868,5.004C20.916,7.838,22,9.734,22,12z"/>
		</g>
		<g>
			<rect x="1" y="56" style="fill:#222829;" width="32" height="2"/>
		</g>
		<g>
			<rect x="12" y="52" style="fill:#222829;" width="2" height="2"/>
		</g>
		<g>
			<rect x="16" y="52" style="fill:#222829;" width="2" height="2"/>
		</g>
		<g>
			<rect x="20" y="52" style="fill:#222829;" width="2" height="2"/>
		</g>
		<g>
			<rect x="6" y="18" style="fill:#222829;" width="2" height="2"/>
		</g>
	</g>
</g>
</svg>
