<svg xmlns="http://www.w3.org/2000/svg" xmlns:xlink="http://www.w3.org/1999/xlink" version="1.1" x="0px" y="0px" viewBox="0 0 100 125" enable-background="new 0 0 100 100" xml:space="preserve" fill="#4e5c65"><path d="M94.553,30.021c-3.771-3.768-9.905-3.768-13.675,0c-3.36,3.358-3.719,8.589-1.092,12.357L65.824,56.34  c-3.359-2.512-7.982-2.557-11.386-0.133L42.109,43.875c2.707-3.775,2.376-9.073-1.011-12.462c-3.772-3.767-9.905-3.767-13.676,0  c-3.393,3.394-3.722,8.695-1.008,12.471L16.299,53.998c-3.777-2.71-9.078-2.382-12.471,1.008c-3.77,3.771-3.77,9.904,0,13.674  c3.774,3.767,9.904,3.767,13.672,0c3.371-3.369,3.719-8.623,1.067-12.394L28.703,46.15c3.327,2.339,7.796,2.337,11.119-0.004  l12.34,12.34c-2.68,3.774-2.34,9.047,1.041,12.425c3.773,3.768,9.903,3.768,13.673,0c3.324-3.323,3.713-8.484,1.176-12.243  l13.993-13.993c3.779,2.741,9.103,2.421,12.505-0.98C98.32,39.925,98.32,33.79,94.553,30.021z M15.15,66.326  c-2.473,2.474-6.496,2.474-8.966,0c-2.476-2.471-2.476-6.496,0-8.97c2.47-2.47,6.494-2.475,8.966,0  C17.627,59.828,17.624,63.855,15.15,66.326z M29.778,42.733c-2.476-2.47-2.476-6.497,0-8.969c2.471-2.472,6.494-2.475,8.966,0  c2.478,2.47,2.474,6.499,0,8.969C36.272,45.207,32.249,45.207,29.778,42.733z M64.525,68.559c-2.473,2.473-6.497,2.473-8.968,0  c-2.475-2.472-2.475-6.498,0-8.971c2.471-2.472,6.495-2.474,8.968,0C67.002,62.059,66.999,66.087,64.525,68.559z M92.199,41.34  c-2.472,2.474-6.496,2.474-8.967,0c-2.476-2.47-2.476-6.497,0-8.969c2.471-2.472,6.495-2.474,8.967,0  C94.676,34.841,94.673,38.87,92.199,41.34z"/></svg>
