<svg xmlns="http://www.w3.org/2000/svg" xmlns:xlink="http://www.w3.org/1999/xlink" version="1.1" x="0px" y="0px" viewBox="0 0 566.9 708.625" style="enable-background:new 0 0 566.9 566.9;" xml:space="preserve" fill="#4e5c65"><g><path d="M337.3,349.1c1.5,0.5,3,1.7,3,0.8c0-0.9,0.4-1.5-1.1-1.9c-1.5-0.4-2.5-0.3-2.5-0.3S335.8,348.6,337.3,349.1z"/><path d="M328.8,345.7c-0.4,0.2-2.5-0.3-2.5-0.3s-0.4,1.7-0.3,2.1c0.2,0.4,0.8,0.6,2,0.7c1.2,0.1,2.1,0.7,2.1,0.3   S329.2,345.4,328.8,345.7z"/><path d="M301,344.5c-1.3-1-1.4-1.8-3.4-1.3c-2,0.5-2.3,1.5-2.3,1.5c0.9,1.2-2.5,1.4,1.4,2c3.9,0.6,4,1,4.1-0.1   C300.9,345.6,302.3,345.5,301,344.5z"/><path d="M297.8,320.8c-2.7-1.6-1.2-2.9-3.4-2c-2.1,0.9-2.1,0.9-2.1,0.9l1.8,2c0,0,0.7,2.8,2.7,1.4   C298.7,321.7,300.6,322.4,297.8,320.8z"/><path d="M369.4,247.7c-0.3,0.4-0.7,0-2.3-0.1c-1.6-0.1-1.6,0.1-2,0.2c-0.4,0.1-1.4-0.3-1.7,0.2c-0.2,0.3,0.4,1.3,2.7,1.7   c2.3,0.4,0.6,0.3,1.3,1.5c0.7,1.2,1.5,0.8,1.8,1.2c0.3,0.5,0.9,1,1.6,1.9c0.7,0.9,2.8,0.3,4.2,0.5c1.5,0.1,2.3,0.4,3.2,0.4   c0.9,0,1.9-1.5,2-2.1c0.1-0.6,0.1-1.4-0.1-2.4c-0.3-1-0.4-0.1-1.3-0.8c-0.8-0.7,0-0.7-1.8-2c-1.8-1.3-2-1.2-2-1.2s-0.9-0.6-2.4-0.9   c-1.5-0.4-1.1-0.4-2.6,0.4C368.6,247.1,369.7,247.4,369.4,247.7z"/><path d="M279.2,366.9C279.2,367,279.3,367,279.2,366.9C279.3,367,279.2,366.9,279.2,366.9L279.2,366.9z"/><path d="M172.4,314.8c-1.1-0.9,0-0.8-2.3-2.5c-2.3-1.7-2.5-1.5-2.5-1.5s-1.2-0.8-3.1-1.2c-1.9-0.5-1.5-0.6-3.4,0.5   c-1.9,1.1-0.5,1.4-0.9,1.9c-0.4,0.5-0.9,0-2.9-0.1c-2-0.1-2.1,0.1-2.6,0.3c-0.5,0.1-1.8-0.3-2.2,0.3c-0.2,0.4,0.5,1.7,3.4,2.2   c3,0.5,0.8,0.3,1.7,1.9c0.9,1.6,2,1,2.3,1.6c0.4,0.6,1.2,1.3,2.1,2.5c0.9,1.1,3.5,0.4,5.4,0.6c1.9,0.1,2.9,0.5,4.1,0.5   c1.2,0,2.4-1.9,2.5-2.7c0.1-0.7,0.2-1.7-0.2-3C173.6,314.6,173.4,315.8,172.4,314.8z"/><path d="M115.8,230.3c10.8,0,19.5-8.8,19.5-19.5c0-10.8-8.8-19.5-19.5-19.5s-19.5,8.8-19.5,19.5   C96.3,221.5,105.1,230.3,115.8,230.3z M115.8,196.2c8,0,14.5,6.5,14.5,14.5c0,8-6.5,14.5-14.5,14.5s-14.5-6.5-14.5-14.5   C101.3,202.8,107.8,196.2,115.8,196.2z"/><path d="M475.7,304.5l-18.5-32.4l-7.3-12.8l-79-76.8l-42.1,35.4l-24.5-18.8l-2.7-2.1l-3.5-2.7l-2.8-2.2l-2.7-2.1l-5.1-3.9l-5.2-4   l-28.8-22.1l-9.5-7.3l-4.3,3.9l-67.1,61.8l-2.1,0l-9.2,0.1c0.7-3.3,1.1-6.6,1.1-10c0-25.6-20.8-46.3-46.3-46.3   s-46.3,20.8-46.3,46.3c0,3.6,0.4,7.2,1.3,10.7l-11.4,0.1l2.5,155.1l0.1,4l0.5,30.7l33.4,0.6l12.1,0.2l111.8,1.9l1.2,0l23.9-28   l34.6-40.6l0.8-1l0,0l10-11.7l69,83l35.9-55l29.2-44.7l28,21.4l73.4,56.1L475.7,304.5z M293.9,197.7l2.3,1.8   c-0.2,0.1-0.4,0.3-0.5,0.4c-0.2,0.6-2.3-1.4-2.3-1.4S293.7,198.2,293.9,197.7z M115.8,167.5c22.8,0,41.3,18.5,41.3,41.3   c0,9.4-3.3,18.7-9.1,25.9l-26.6,30.6l-7.1,8.1l-31.7-40c-2.7-3.6-4.8-7.7-6.2-12l-1.2-4.6c-0.5-2.7-0.8-5.4-0.8-8.1   C74.5,186.1,93,167.5,115.8,167.5z M92.7,273.3c-9.4,2.7-9.4,5.2-9.4,6c0,6.5,21.3,8.2,32.5,8.2s32.5-1.7,32.5-8.2   c0-0.8-0.4-1.5-1.1-2.2c-3.1-3-13.9-5.5-24.2-5.8l2.9-3.4c17.4,0.6,32.2,7.9,32.2,12.4c0,6.1-17.4,13-42.3,13s-42.3-6.9-42.3-13   c0-4.4,13-11.8,29.5-13.1l3,3.8C101.5,271.3,96.9,272.1,92.7,273.3z M108.3,273.9l6,7.6l6.2-7.2c12.1,0,23.7,3.3,24.8,5.2   c-0.3,1.3-9.3,5.2-29.5,5.2c-20.1,0-29.1-3.8-29.5-5.2C87.4,277.8,97.2,274.3,108.3,273.9z M105.7,405.2c-0.5-1-1-1.9-2-2.6   c-2-1.3,1.2-0.5-3.1-2c-4.3-1.5-4.7-0.5-6-1.9c-1.3-1.3-1.9-2.8-2.8-3c-1-0.3-1.2,0.9-2-0.2c-0.8-1.1,0.1-1.2-0.6-2.1   c-0.7-1-1.8-0.9-1.3-2c0.5-1.2,0.8-0.8,0.7-2.8c-0.1-2,0.7-3.1,2.2-4c1.4-0.9,2.9-2.2,3.3-4c0.4-1.8,0.8-3.6,1.8-4.2   c1-0.6,3.6,0.4,4.5-1.9c0.9-2.2,0.1-2.1-0.9-3.6c-1-1.5-1.6-3.1,0.3-3.8c1.9-0.7,4,1.8,6-0.4c2-2.3,3.3-2.6,3.9-5.9   c0.6-3.2,0.7-0.2,1.7-2.5c1-2.3,2.2-2.2,2.4-4.8c0.2-2.6,0.1-3,0.9-6c0.8-3,2.1-4.4,1-9.2c-1.1-4.8-2.1-5.8-1.9-8.5   c0.2-2.7,1-1.6-0.6-3.8c-1.6-2.2-2.6-4.3-4.4-5c-1.9-0.7-1.8,0.8-2.3,1.6c-0.6,0.8-2,1.6-3.3,2.8c-1.3,1.2-2.2-0.9-3.6,2.2   c-1.5,3-4.1,3.7-5.4,4.4s-3.3,1.8-4,2.7c-0.7,0.9-2.5,1.2-4.2,0c-1.7-1.2-0.7-2.9-2.7-2c-2.1,0.9-3.5,2-3.7,2.6   c-0.2,0.6-2.1,0.9-4.8-0.2c-2.7-1.1-5.6-2.5-5.9-2.4c-0.2,0-1.3,0.4-2.4,0.8l-1.8-108.9l7.8-0.1c1.6,4.3,3.7,8.4,6.5,12.1l22,27.7   c-16.1,1.8-30.3,9.1-30.3,15.9c0,7.8,15.9,16,45.3,16s45.3-8.2,45.3-16c0-6.4-14.7-14.1-32.7-15.3l23.4-27   c3.5-4.3,6.1-9.1,7.8-14.2l0,0.1l10.5-0.1c-0.2,1.1-0.8,2.5-1.4,3.5c-0.9,1.6-2.9,4.4-2.2,7.8c0.7,3.3,1.2,6.3,0.5,7.6   c-0.7,1.3-2.2,5.2-2.5,7c-0.3,1.8-0.6,2.7,0,4.4c0.6,1.7,0.2,2.5,0.6,4.2c0.3,1.7,0.6,3.2,1.3,4.5c0.7,1.4-1.8,2,0.3,3.2   c2.2,1.3,0.5,1.9,1.6,2.6c1.2,0.8,0.9,1,1.6,1.9c0.8,0.9,1.7-0.9,0.7-2.4c-1-1.5-1.3-1.3-0.9-2.7c0.4-1.4,0.4-0.2,0.2-2.1   c-0.2-1.9,0.5-3.1-0.1-5.1c-0.6-2-1.4-1.9-1-3.2c0.4-1.3,0.7-2.4,0.3-3.4c-0.4-1,0.5-2.5,0.8-4s0.2-3.3,0.4-4.1   c0.2-0.8,0.6-1.9,0.6-1.9s0.6,2,0.7,2.5c0,0.5-0.5,3.1-0.8,4.7c-0.3,1.5-0.2,1.8-0.4,3.3c-0.2,1.6-0.1,1.6,0.1,2.4   c0.2,0.9,0.5,4,0.6,5.7c0.1,1.7-0.7,2.9-0.1,4.7c0.7,1.8,0.8,4.8,1.5,6.8c0.7,2-1.4,5.1,0.8,8.1c2.2,3.1,3.4,3.3,4.2,4.9   c0.9,1.6-0.8,5,2.7,7.4c3.5,2.4,3,4.4,5.5,5.7c2.3,1.2,2.4,2.1,4.7,3.1l26.1,106.2L105.7,405.2z M221,404.4l-24.8-101.1   c0.2,0,0.5,0.3,1.1,0.9c1.8,1.9,2.6,3.8,4.1,5.5c1.6,1.7,3.3,3.5,4.7,4.3c1.4,0.7,2.5,0.3,3.1,1.3c0.6,1,2.8,3.5,3.6,5.5   c0.8,2.1,0.6,1.2,1.7,3.1c1.1,1.8,2.3,1.5,1.9,3.1c-0.4,1.7,1,2.8,2.8,4c1.8,1.2,0.9,2.3,3,2.9c2.1,0.6,2.3-0.6,3.3,1.6   c1,2.1,1.8,3.8,3.8,3.3c2-0.6,2.3-1.6,2.5-2c0.2-0.4-0.3-1.1,1.4,1.2c1.7,2.3,3.1,3.9,2.8,5.2s-0.7,0.7,0,2.3   c0.7,1.6,0.7,2.7,0.7,2.7s-1.3,1.4-1,2.5c0,0.1,0,0.1,0,0.1c-0.1,0.1-0.4,0.5-0.7,1.2c-1.2,2.6-1.7,2.4-1.7,2.4s-2.7-0.1-2.5,1.9   c0.1,2-0.1,2.5,0.7,4.6c0.9,2.1,0.9,0.9,0.8,2.6s0.6,5.9,2.5,7.8c1.9,1.9,3.6,5.1,5.4,7.5c1.3,1.8-0.1,1,0.9,1.9L221,404.4z    M274,342.3c-0.1-0.2-0.2-0.3-0.2-0.3l-1.8-1.3c0,0,0-1.1-1.2-1.2c-1.2-0.1-2.9,0.2-2.9,0.2s-3.4-0.3-4.8,0.1   c-1.3,0.5-2.5-1.9-2.5-1.9s0.6-2.1-0.2-2.3c-0.7-0.2-2,1-2,1s-1.2-0.3-1.5-0.6c-0.3-0.3,0.8-2.1,0.8-2.1s-1.1-2.6-1.7-2.4   c-0.6,0.2-2.9,1.8-3.7,4.9c-0.8,3.1-1.6,0.8-1.6,0.8s1.3-2.6,0.9-3.5c-0.4-0.9,1.3-2.8,0.1-3.3c-1.2-0.4-3,1.1-3,1.1   s-3.1,0.6-3.6,0.9c-0.6,0.4-2.4-1.1-4,0.2c-1.7,1.3-2.1-1.1-3.2,3c-1.1,4-3.2-1.1-3.2-1.1s-1.8-1.8-6.9-1.4   c-5.1,0.3-3.4-2.5-3.4-2.5s-1.6-4.4-3.2-5.3c-1.6-0.8,0.5-1.4-1.1-2.7c-1.6-1.3,1.5-2.8,1.7-6.2c0.2-3.4-1.2-3.8-1.8-4.2   c-0.6-0.4-7.7-2.9-7.7-2.9s-1.5-1.3-1.2-2.4c0.3-1.1,1.1-4.1,1.4-6.6c0.3-2.5,4.1-4.9,1.9-7.5c-2.2-2.6-6.2-1.9-6.8-1.3   c-0.7,0.6-1.4,0-2.9,3.8c-1.5,3.7-6.8,1.4-7.4,0.2c-0.6-1.2-0.9-3.5-2.7-5.1c-1.8-1.6-1.2-3.7-1.2-3.7s-0.4-1.9-0.8-3.3   c-0.4-1.4,0.9-1.5-0.9-3.1c-1.8-1.6,0.6-3.3,1-5.5c0.4-2.2,1.4-3.2,1.6-3.6s0.7-1.2,1.2-3.3c0.4-2.1,2.4-1.9,2.4-1.9   s1.7-0.7,2.7-1.5c1.1-0.7,5.4-0.1,7,1.1c1.6,1.2,4.4,2,4.4,2s1.4,0.7,1.3,1.2c-0.1,0.5,2.1,0.5,1.9-0.3c-0.2-0.8-0.2-2.1,0.7-2.4   c0.9-0.3,3.6,0.6,5,1.1c1.4,0.5,3.1,2.5,3.7,2.6c0.7,0.2,0.8,1.1,2.5,2.8c1.7,1.7,2.7,1.8,2.2,3.5c-0.5,1.7,0.5,3.3,0.5,3.3   s-0.1,5.4,0.9,6.2c1,0.7,2.8,2.7,4.1,1.8c1.3-0.9,0.8-3.2,0.8-3.2s1.3-2.4-0.3-4.1c-1.6-1.7,1.1-2.3-0.5-3.8c-1.6-1.6,0.5-4.7,2-5   c1.6-0.3,1.3-1.2,1.3-1.2s3.9-1.1,3.9-3.1c0.1-1.9,2.7-1.3,2.7-1.3s3.1-0.9,4.2-1.9c1.1-1,2-0.9,2.4-2.2c0.4-1.3,4.3-2.9,1.3-7.9   c-3-5,1.3-2.5,1.3-2.5s3.1,2.1,5.1,0.3c2-1.8,2.7-2.1,2.8-4c0.1-1.4,2.3-1.3,4.2-0.7l15.9,58.5c-0.3,0.1-0.5,0.1-0.7,0.2   c-1.5,0.8-3.7,1.9-4,1.9c0,0,1.5,1.4,3.5,1.2c0.7-0.1,1.4-0.1,2-0.2l4.9,18L274,342.3z M309.4,346.2c0.5,0.2,0.7,0.2,2.3,0.5   c2.5,0.4,3.8,1,5.6,0.1c1.8-0.8,2.1-0.4,4.1-0.7c2-0.3,3.4-0.6,1.1-1.7c-2.2-1.1-5.3-0.7-5.2-1.6c0-0.9-1.1-1.4-1.5-1.4   c-0.4,0-3.3-0.4-3.3-0.4s-1.2-1.3-2.1-0.3c-0.9,1-1.9,2-1.9,2c0.8,0.9,1.1,0.4-0.2,1.5c-0.1,0.1-0.2,0.2-0.3,0.3l-13.3-16   c0.3,0,0.6,0,1.1-0.1c1.6-0.3,1.2-1.7,1.2-2c0-0.3-1.4-1.3-2.1-1.4c-0.6-0.1-1.7,0.7-2.3,1l-0.1-0.2l-4.5-16.6   c0.4,0.2,0.8,0.3,1.2,0.5c2.3,1,2.2,0.8,3,2.3c0.9,1.5,1.4,0.3,3.9,1.7c2.5,1.4,1.8,1.3,2.9,2.3c1.1,0.9,2,0.9,2.8,0.3   c0.8-0.5,2.1,0.3,5.2,0.6c3,0.4,2.7-0.1,2.8-1.1s-1.4-0.6-3.2-0.9c-1.8-0.4-1.6-0.7-3.9-2.6c-2.3-1.9-2.7-1.4-4.3-1.8   c-1.6-0.4-1.4-0.3-2-1.4s-0.8-1.1-3.8-2.8c-3-1.6-5.4-1.4-5.4-1.4s-0.2,0-0.5,0l-15.6-57.7c0.4-0.6,0.8-1.4,1.2-2.5   c1.9-4.9,5.1-3.6,5.1-3.6s4.8-0.6,6.3-2.2c1.5-1.5-1.2,1.4-0.9,2.2c0.3,0.7,0.5,1.5,0.5,1.5s-1.1,1.6,1.5,1.8   c2.6,0.1-0.4-1.1,2.1-1s6.3-1.5,6.3-1.5s1.8,0.4,2.6-0.2c0.8-0.6,1.9-0.3,1.9-0.3l1.9-0.7l-0.2-1.8c0,0,1-1,0.3-1.8   c-0.7-0.8-1.3-1.5-2.7-0.4c-1.4,1-2,2.6-2.8,1.9c-0.8-0.7-2.1-3-4-3.3c-1.9-0.3-2-0.2-2-1.1c0-0.9,1-2.1,0.1-2.8s1.9-0.6,1.9-0.6   s0.5-1.1,1.4-1.3c1-0.2,1-0.7,2.5-0.3c1.5,0.3,3.3,0.6,3.5-0.3c0.2-0.8-2.4-0.6-2.4-0.6s-1.3-0.8-3-0.5c-1.7,0.3-1.9-1.3-4.2-0.8   c-2.3,0.6-1.9-1-4.9,0.6c-3,1.6-4.1,2.5-4.8,1.3c-0.7-1.2,5-2.9,5-2.9s2.2-0.4,3.2-0.8c1-0.5,2.8-0.5,4.4,0.2   c1.6,0.7,2.4,1.3,4.1,1c1.8-0.2,3.9-0.5,4.7,0c0.8,0.5,1.6,0.2,2.5-0.1c0.9-0.3,2.9,0.3,3.3-0.5c0.4-0.8,3.9,0.2,5.4,0.9   c1.5,0.7,2.3,0.6,2-1.8c-0.3-2.4-1.1-2.5-2-7c-0.9-4.5-1.8-2.4-1.8-2.4s-1.8-3.1-3.1-4.2c-1.3-1.1-1.4-3.2-1.6-4.1   c-0.1-0.4,0.1-0.7,0.2-1.2l21.5,16.5l6.8,42.4c-0.4,0-0.9,0.1-1.3,0.2c-1.9,0.4-4.7-0.1-5.1,0.3c0,0-0.3,1.3-1.8,1.2   c-1.5-0.1-3,0.5-3.2,1.5c-0.2,0.9-0.6,1.2,1.1,1.4c1.7,0.2,2.8,0.1,4.1,0.5c1.3,0.4,0.1-0.2,2.2,0c2,0.2,1.6-0.1,3.5,0.5   c0.6,0.2,1,0.3,1.5,0.5l20.8,130L309.4,346.2z M414.3,302.1c0,0-5,1.2-7.4,2.8c-2.3,1.6-2.2,2.2-3,4.2c-0.8,2,0.7,1-1.2,2.8   c-1.9,1.8-0.8,2.8-0.3,4.3c0.5,1.4,2.1,1.4,2.5,1.7c0.3,0.3,0.5,1.7-1.1,2.7c-1.6,0.9-4.3,0.5-6.6,0.2c-2.2-0.3-5.4,1.4-6.9,1.9   c-1.4,0.5-1.4,2.4-2.1,2.4c-0.7,0-1.5,1.1-1.9,1.3c-0.4,0.2-2.5,0.9-2.5,0.9s-7.2,1.9-8.5,2.8c-1.3,0.9-2.3,1-4.2,3.4   c-1.1,1.4-1.3,1.7-1.5,2.1l1.7,6.8c0.6,0.3,1.3,0.8,1.3,0.8s2.2,0.4,2.5,1c0.4,0.5,1.6,1.3,1.6,1.3l2.1,0.8c0,0,2.2-0.6,4,2.6   c1.9,3.2,1.6,0.6,3.1,3.4c1.5,2.7,1.4-0.1,2.4,2.7c0.6,1.6,1.2,2.1,1.8,2.3l-29.9,45.8l-21.1-132.2c2.3-1.3,2-1.9,3.2-1.9   c1.1-0.1,2,0.2,2.5-0.1c0.5-0.3,0.1-0.9,0.9-0.9c0.8,0.1,0.5,0.5,1.2,0.6c0.7,0.1,1.1-0.5,1.5,0.2c0.3,0.7,0,0.7,1,1.4   c1,0.8,1.1,1.6,1,2.6c-0.2,1-0.2,2.2,0.5,3.1c0.7,0.9,1.3,1.8,1.2,2.5c-0.1,0.7-1.6,1.5-1,2.8c0.7,1.3,0.9,0.9,2,1   c1.1,0.1,2.1,0.5,1.6,1.7c-0.4,1.1-2.5,1.1-2.2,2.9c0.2,1.8-0.1,2.6,1.2,4.2c1.3,1.6-0.2,0.4,0.5,1.8c0.7,1.4,0.1,1.9,1.2,3   c1.1,1.1,1.3,1.2,2.4,2.8c1.1,1.6,1.2,2.7,3.8,4.2s3.5,1.4,4.7,2.6c1.2,1.2,0.3,1.1,2,1.2c1.7,0.2,3,0.6,4.1,0   c1.1-0.6,0.3-1.2,0.2-1.7c-0.1-0.6,0.1-1.5,0.1-2.6c0-1.1,1.3-0.6,0.5-2.5c-0.8-1.9-0.1-3.4,0.2-4.3c0.2-0.9,0.5-2.3,0.4-3   s0.5-1.6,1.7-1.9c1.2-0.3,1.6,0.9,2-0.4c0.4-1.3,0.5-2.4,0.3-2.8c-0.2-0.3,0.4-1.3,2-2.1c1.6-0.8,3.4-1.6,3.5-1.7   c0.1-0.1,1-2.1,0.9-2.8c-0.1-0.7-1.1-0.1-1.2-0.9c-0.1-0.8,0.7-0.6,0.3-1.5c-0.4-0.8-1.7-1.5-1.9-1.5c-0.2,0-2.9-0.4-3.4-1.5   c-0.5-1.1-0.1-1-1.5-1.3c-1.4-0.3-3.2-1.3-3.2-1.3l1.7-0.8c0,0,0.7-0.9-0.3-1.5c-1-0.6-2.3-1.8-4-1.8c-1.8-0.1-1.3-1-1.3-1   s-0.8-0.8-2.1-1c-1.3-0.2-1.9-1.2-3.5-1.3c-1.5-0.1-4.3-1.4-5.1-1.5c-0.9-0.1-0.2-1.3,0.3-1.2c0.5,0.1,2.9,0.8,4.2,0.5   c1.3-0.3,1.3-0.2,4,0.3c2.7,0.5,3,0.8,4.4,1c1.5,0.2,3.5,0.7,6.7,0.8c3.2,0.1,2.8,0.6,4.3,0.3s1.1,0.1,1.9-0.2   c0.8-0.3,2.1-0.7,0.5-0.9c-1.6-0.2-4.9-1.6-7.1-1.3c-2.2,0.4-3.4-0.2-5.7-0.4c-2.3-0.2-3.8-0.6-6-0.9c-2.2-0.3-2.1-0.1-4-0.8   c-1.9-0.7-2.6-1.3-2.8-1.4s-1.8-1.5-3-1c-1.2,0.5-2.3,1.7-2.8,2.1c-0.6,0.4-3.6,0-3.8,0.7c-0.2,0.8-4.6,1.6-5.5,1.6   c-0.8-0.1-4.9-0.1-5.3,0.6c-0.2,0.3-0.6,0.5-1,0.6l-6.7-42.1l38.2-32.2L417,301.3C415.6,300.9,414.3,302.1,414.3,302.1z    M451.8,273.2c-0.6-0.2-1.7,2.4-1.7,2.4s1.1,1.9,0.8,2.1c-0.3,0.3-1.5,0.6-1.5,0.6s-1.2-1.1-2-1c-0.7,0.2-0.2,2.3-0.2,2.3   s-1.1,2.4-2.5,1.9c-1.3-0.5-4.8-0.1-4.8-0.1s-1.7-0.3-2.9-0.2c-1.2,0.1-1.2,1.2-1.2,1.2l-1.8,1.3c0,0-1.3,2.4-3.4,0.6   c-2-1.8-3.2,0.1-3.2,0.1s1.1-0.8,0.9,1c-0.3,1.8-0.1,2.6-0.1,3.6c0,1,0.4,1.5-0.8,2.9c-1.2,1.4-4,2.8-4,2.8l-1.5,1.1   c0,0-0.5,0.9-1.3,1.7l-42.9-101.1l68,66.1l6.2,10.9C452,273.3,451.9,273.3,451.8,273.2z M460.3,329.5c2.7-1.7,0.7-2,4.8-5.3   c4.1-3.3,1-1.1,2.8-3.5c1.7-2.4,3.5-5.6,5.4-7.5c0.4-0.4,0.7-0.8,1-1.3l34.8,60.7l-52.7-40.3C457.6,331.3,459.1,330.3,460.3,329.5z   "/></g></svg>
